<?xml version="1.0" encoding="UTF-8"?>
<svg version="1.1" viewBox="0 0 2048 489" width="967" height="231" xmlns="http://www.w3.org/2000/svg">
<path transform="translate(0)" d="m0 0h2048v489h-2048z" fill="#FEFEFE"/>
<path transform="translate(194)" d="m0 0h17l19 5 12 6 12 11 9 14 10 23 19 50 38 98 22 57 16 41 22 57 8 20-1 6-8 7h-20l-16-3-27-7 21 8 26 7 12 2 7-1 9-6 3 1 3 15v19l-4 16-6 12-8 10-9 8-16 8-14 4h-25l-17-5-35-16-65-28-6-1-30 13-25 11-41 18-21 7-7 1h-15l-18-4-9-4-9-6-10-9-9-14-5-13-1-4v-23l3-14 3-3 3 5h23l16-3 26-8 4-2-8 1-26 7-18 3-10-3-5-4-1-2v-9l7-20 17-44 15-40 18-47 17-45 21-55 19-49 9-22 4-1 11 4 9 7 9 11 16 26-3-9-13-25-8-12-5-5-5-4-6-1-6 6h-2l3-9 6-12 12-15 15-10 12-5z" fill="#06B0FE"/>
<path transform="translate(0)" d="m0 0h194l-3 2-15 5-12 7-5 4h-2l-2 4-7 8-6 10-6 14 8-7 6 1 9 7 10 15 15 29 1 6-5-5-9-16-8-11-7-8-10-6-9-2h-2l-3 9-35 91-33 87-18 47-20 53-10 26-3 9v9l5 5 10 3 22-4 26-7h5l-3 3-21 7-16 4-7 1h-23l-4-5-2 5-2 11v23l5 15 9 15 7 7 10 7 8 4 15 4 6 1h15l14-3 16-6 41-18 32-14 21-9 6 1 60 26 43 19 14 4 24 1v1h-349z" fill="#FEFEFE"/>
<path transform="translate(194)" d="m0 0h17l19 5 12 6 12 11 9 14 10 23 19 50 38 98 22 57 16 41 22 57 8 20-1 6-8 7h-20l-16-3-26-7-19-8-18-8-5-3-11-27-16-42-14-37-20-53-18-47-7-18-11-31-7-16-13-25-8-12-5-5-5-4-6-1-6 6h-2l3-9 6-12 12-15 15-10 12-5z" fill="#2966E0"/>
<path transform="translate(204,157)" d="m0 0 3 3 16 42 17 45 20 53 19 49 6 15v2l-21 11-18 12-14 12-16 17-10 13h-4l-13-17-9-10-11-10-15-11-14-8-13-6-3-1 1-7 19-52 22-56 17-44 18-46z" fill="#FEFEFE"/>
<path transform="translate(1704,146)" d="m0 0h11l18 4 16 8 8 6 7 6 9 13 6 15 2 9v80h-27l-1-1-1-12 1-3-4 1-2 4-9 6-8 4-10 3h-18l-16-4-14-7-10-8-9-10-6-10-4-10-4-18v-11l4-16 8-16 6-8 10-10 13-8 18-6z" fill="#06B0FE"/>
<path transform="translate(851,147)" d="m0 0h22l13 3 16 8 9 7 9 9 8 14 5 14v85h-23l-4-2-2-14-9 8-16 8-8 2h-15l-14-3-12-5-13-9-10-10-7-11-5-12-3-11v-19l4-15 8-16 7-9 7-7 13-8 12-5z" fill="#2868E0"/>
<path transform="translate(574,95)" d="m0 0h27l5 10 15 39 22 57 19 49 10 26 3 10-2 1h-24l-5-4-13-25-4-3-16-4-12-2h-31l-22 4-8 16-8 15-4 3h-22l-4-1 2-9 14-35 18-47 38-98z" fill="#2868E0"/>
<path transform="translate(283,366)" d="m0 0 6 1 16 8 20 8 3 3 25 9 25 6 12 1 10-6h4l3 15v19l-4 16-6 12-8 10-9 8-16 8-14 4h-25l-17-5-35-16-65-28-5-2v-5l5-5 11-13 15-16 13-11 19-12z" fill="#06B0FE"/>
<path transform="translate(120,368)" d="m0 0h7l21 10 17 12 15 13 8 8 13 17 2 3v6l-15 7-39 17-36 16-21 8-14 3h-15l-18-4-9-4-9-6-10-9-9-14-5-13-1-4v-23l3-14 3-3 3 5h23l16-3 26-8 6-2v-2l20-8z" fill="#2967E0"/>
<path transform="translate(1337,95)" d="m0 0h28l1 1v77h85v-77l1-1h27v192h-27l-1-1v-87h-86l1 16v71l-1 1h-28l-1-1v-190z" fill="#06B0FE"/>
<path transform="translate(1553,146)" d="m0 0h11l15 3 15 6 11 7 10 9 9 14 6 17 1 6v17l-1 4h-111l7 16 6 7 10 6 9 3h18l11-4 11-8 1-1h32l-1 5-10 13-8 7-15 10-11 4-9 2h-19l-12-3-12-5-13-9-9-9-7-11-5-15-3-15v-11l3-16 8-16 6-8 5-6 11-8 14-7z" fill="#06B0FE"/>
<path transform="translate(1929,95)" d="m0 0h27v65l11-9 11-4 5-1h10l18 4 17 9 7 7 6 10 6 14 1 3v94h-26l-1-1-2-82-3-12-5-8v-2l-4-2-7-3-5-1h-14l-11 4-6 5-5 12-2 9-1 81h-28l-1-1v-119l1-71z" fill="#06B0FE"/>
<path transform="translate(999,147)" d="m0 0h23l16 4 9 5 10 9 6 8 6 13 3 13 1 11v76l-1 1h-26l-1-1-1-18-1-62-3-13-6-9v-2l-4-2-10-4h-17l-10 4-4 2-7 14-1 22-1 45-1 23-1 1h-26v-92l4-13 7-13 9-10 11-7 11-4z" fill="#2868E1"/>
<path transform="translate(1256,147)" d="m0 0h21l15 4 11 6 8 8 6 12 1 4v8l-2 1h-21l-4-1-5-10-7-4-4-1h-16l-8 4-4 4-1 8 3 6 10 4 35 10 16 8 7 8 5 11v20l-4 10-9 10-14 8-11 3h-30l-12-4-10-5-10-9-7-14-2-10 1-1h28l3 9 5 4 7 3 5 1h12l13-4 5-6v-11l-4-5-11-5-27-7-13-5-10-6-8-11-3-9v-13l4-11 9-10 9-6 13-5z" fill="#2868E0"/>
<path transform="translate(677,95)" d="m0 0h26l1 23v32h28l1 1v24l-1 1h-29l1 42 2 18 4 11 5 5 4 3 13 4 1 1v26l-5 1-14-3-12-5-9-7-7-8-7-14-4-15-1-8v-25l1-26h-19l-1-1v-25l20-1 1-53z" fill="#2868E1"/>
<path transform="translate(1855,100)" d="m0 0h27l1 1v49h29v26h-29l1 46 2 17 4 10 1 3 4 2 10 4 7 3v24l-1 3-9-1-12-3-13-7-11-11-6-12-4-13-2-19v-44l-20-2v-26l19-2 1-45z" fill="#06B0FE"/>
<path transform="translate(1097,100)" d="m0 0h25v50h30v26l-29 1 1 40 1 16 2 9 6 10 12 6 7 2 1 3v24l-1 1-10-1-18-6-10-7-7-7-8-15-4-15v-61h-20v-26l19-2 1-47z" fill="#2868E0"/>
<path transform="translate(1701,174)" d="m0 0h17l10 3 12 7 8 10 4 8 2 8v15l-4 13-8 11-8 7-12 5-4 1h-14l-15-5-9-7-8-11-4-10v-22l5-13 9-10 9-6z" fill="#FEFEFE"/>
<path transform="translate(854,174)" d="m0 0h19l11 4 11 8 7 11 4 10v20l-4 12-8 11-8 6-8 4-6 2h-15l-15-5-9-7-5-6-6-11-1-4v-23l5-12 8-10 11-7z" fill="#FEFEFE"/>
<path transform="translate(750,95)" d="m0 0h27v191l-1 1h-27l-1-1v-180l1-10z" fill="#2967E0"/>
<path transform="translate(1796,95)" d="m0 0h27l1 1v190l-1 1h-27l-1-21v-66z" fill="#06B0FE"/>
<path transform="translate(1170,150)" d="m0 0h27v136l-1 1h-26l-1-1v-122z" fill="#2967E0"/>
<path transform="translate(586,135)" d="m0 0h3l6 14 16 41 12 30v2l-11-1-15-2h-19l-21 3h-4l2-9 19-48z" fill="#FEFEFE"/>
<path transform="translate(623,334)" d="m0 0h12l9 3 8 6 4 5 4 8 1 4v9l-4 10-8 9-9 5-4 1h-10l-10-3-8-6-6-10-2-5v-11l5-12 7-8 7-4z" fill="#266CE2"/>
<path transform="translate(1556,334)" d="m0 0h13l9 4 9 7 5 9 1 2v16l-6 11-8 7-11 4h-8l-13-4-7-6-4-6-3-9v-12l5-10 6-7z" fill="#276CE2"/>
<path transform="translate(668,335)" d="m0 0h24l6 4 3 5v11l-3 5 1 3 5 5 2 4v9l-4 7-8 5h-26l-1-2v-55z" fill="#266CE2"/>
<path transform="translate(2014,335)" d="m0 0h34v58h-34z" fill="#2868E1"/>
<path transform="translate(1278,335)" d="m0 0h22l8 4 3 9v6l-2 3 1 7 4 5 1 3v9l-4 7-5 4-2 1h-26l-1-2v-55z" fill="#266DE3"/>
<path transform="translate(1551,174)" d="m0 0h17l11 4 11 7 8 11 3 6v3l-40 1h-41l1-6 6-10 7-8 8-5z" fill="#FEFEFE"/>
<path transform="translate(1020,335)" d="m0 0h24l8 5 5 8v10l-3 6-5 5-4 3 8 15 2 3v3h-9l-6-9-6-10-5-2v21h-10v-57z" fill="#276BE2"/>
<path transform="translate(1650,335)" d="m0 0h25l6 3 5 6 2 4v11l-6 8-5 4 2 7 7 12v3h-10l-11-19-6-1v20h-9z" fill="#2869E1"/>
<path transform="translate(1892,335)" d="m0 0h9l8 10 13 19 6 8 2-37h9l1 1v56l-1 1h-8l-9-10-13-19-7-9-1 29-1 9h-8z" fill="#276CE2"/>
<path transform="translate(1196,335)" d="m0 0h9l9 11 16 24 2 2 2-36 1-1h8v57l-1 1h-7l-9-10-15-22-4-5-1 29-1 8h-9z" fill="#2869E1"/>
<path transform="translate(521,334)" d="m0 0h13l10 4 8 7 3 4v3h-10l-9-6-4-1h-9l-8 4-4 5-1 3v14l5 8 5 3 4 1h9l6-3 5-4 1-3-2 1h-9l-1-1v-8h26l-1 8-4 8-4 5-9 6-9 2-12-1-10-5-8-9-3-7v-15l4-10 6-7z" fill="#276BE2"/>
<path transform="translate(1970,334)" d="m0 0h12l10 4 9 8 2 5-1 1h-9l-8-6-2-1h-13l-7 4-5 7-1 4v9l4 8 7 5 3 1h9l8-3 3-1 3-6h-13l-1-4 2-4h24l1 3-4 11-8 9-9 5-4 1h-11l-10-4-10-9-4-8-1-5v-8l3-10 9-10 6-4z" fill="#276CE2"/>
<path transform="translate(733,335)" d="m0 0h9l8 19 14 37v2h-9l-3-4-3-8h-24l-4 11-1 1h-9l2-9 15-39z" fill="#266DE2"/>
<path transform="translate(1434,335)" d="m0 0h9l5 10 18 47v1h-10l-6-12-23-1-2 6-4 7h-8l1-7 10-27z" fill="#266CE2"/>
<path transform="translate(931,335)" d="m0 0h25l6 3 6 7 2 5v7l-5 9-7 5-3 1-14 1-1 20h-8l-1-1z" fill="#2869E1"/>
<path transform="translate(1856,335)" d="m0 0h8l6 12 13 35 3 8v3h-9l-5-11-7-1-17-1-2 6-4 7h-8l1-7 9-24 10-24z" fill="#266CE2"/>
<path transform="translate(1556,343)" d="m0 0h12l7 3 6 5 3 6v12l-4 8-8 7-3 1h-11l-8-4-6-7-2-5v-11l6-9z" fill="#FEFEFE"/>
<path transform="translate(624,343)" d="m0 0h12l8 4 6 7 1 3v13l-5 8-7 6-3 1h-11l-8-4-6-7-2-6 1-11 5-8 6-5z" fill="#FEFEFE"/>
<path transform="translate(1786,335)" d="m0 0h9l1 23h23l1-22 1-1h8l1 12v39l-1 7h-9l-1-26h-18l-6-1v27h-10v-57z" fill="#256EE3"/>
<path transform="translate(1365,335)" d="m0 0h9l1 23h23l1-22 1-1h8v58h-9l-1-26h-18l-6-1v27h-9l-1-1v-56z" fill="#256EE3"/>
<path transform="translate(1744,334)" d="m0 0h13l10 4 6 5 5 8-1 3-9-1-8-7-3-1h-12l-8 4-4 5-2 7 1 10 4 6 5 4 5 2h9l8-3 6-5h9l-2 6-4 5-11 7-12 1-10-2-8-5-6-7-4-8v-15l4-10 5-6 8-5z" fill="#266CE2"/>
<path transform="translate(1602,335)" d="m0 0h7l1 1 1 32 1 14 5 1h7l5-2 2-3 2-43h9l1 1v41l-3 8-8 7-6 2h-9l-10-5-5-7-2-7v-24l1-15z" fill="#256EE3"/>
<path transform="translate(877,335)" d="m0 0h10l8 10 5 7 5-5 9-12h11l-5 9-12 17 2 6 10 16 6 9-1 2-9-1-11-14-3-5-4 2-12 17h-10l2-6 11-16 4-6-1-5-14-21z" fill="#266CE2"/>
<path transform="translate(1119,334)" d="m0 0h12l7 4 4 5 2 5v3l-2 1h-7l-3-7h-12v9l5 3 12 4 7 6 2 4v9l-5 8-5 4-7 2-10-1-9-6-4-8 1-5h7l7 9 6 1 7-3 1-2v-8l-20-8-5-5-2-3v-10l4-6 5-4z" fill="#266CE2"/>
<path transform="translate(835,335)" d="m0 0h35v8h-25v15h18l4 1v8l-1 1h-21l1 15 24 1v9h-35z" fill="#2869E1"/>
<path transform="translate(977,335)" d="m0 0h35v8l-25 1v14h17l5 1v8h-23l1 8v9h24l1 1v8h-35l-1-33v-23z" fill="#276AE1"/>
<path transform="translate(1458,335)" d="m0 0h10l11 27 5 13 4-8 12-30 2-2h9l-2 9-15 38-5 10-1 1h-7l-6-10-15-40-2-5z" fill="#276BE2"/>
<path transform="translate(1323,335)" d="m0 0h34v7l-1 1-24 1v14l22 1v8h-22v17h23l1 1v8h-34v-57z" fill="#2967E0"/>
<path transform="translate(1177,98)" d="m0 0h11l7 4 4 6 1 3v8l-4 6-7 6-2 1h-8l-8-5-4-5-1-3v-9l4-7z" fill="#2868E1"/>
<path transform="translate(566,335)" d="m0 0h9l1 1v49l9-1h14v9h-33l-1-8v-49z" fill="#266CE2"/>
<path transform="translate(1062,335)" d="m0 0h41v8l-1 1-15 1-1 48h-9v-49l-16-1v-7z" fill="#2868E0"/>
<path transform="translate(2024,344)" d="m0 0h24v40h-24l-1-1v-15l22-1 1-8h-22l-1-1v-13z" fill="#FEFEFE"/>
<path transform="translate(770,335)" d="m0 0h8l1 12 1 36 20 1 2 1v8h-32z" fill="#286AE1"/>
<path transform="translate(1517,335)" d="m0 0h9v58h-9l-1-1v-56z" fill="#2471E4"/>
<path transform="translate(1180,335)" d="m0 0h8l1 1v47l-1 10h-9v-57z" fill="#2374E5"/>
<path transform="translate(941,343)" d="m0 0h13l5 4 1 2v9l-4 5-2 1h-13l-1-2v-16z" fill="#FEFEFE"/>
<path transform="translate(1659,343)" d="m0 0h13l5 3 2 3v8l-3 5-4 2h-12l-1-2z" fill="#FEFEFE"/>
<path transform="translate(1029,343)" d="m0 0h12l5 3 2 6-1 8-4 3-3 1h-11z" fill="#FEFEFE"/>
<path transform="translate(677,366)" d="m0 0h14l5 4 1 6-2 6-2 2-5 1h-10l-1-1z" fill="#FEFEFE"/>
<path transform="translate(1286,366)" d="m0 0h14l5 4v11l-3 3-5 1h-10l-1-1z" fill="#FEFEFE"/>
<path transform="translate(1437,349)" d="m0 0 4 2 6 15v4h-17l1-5z" fill="#FEFEFE"/>
<path transform="translate(1859,348)" d="m0 0 3 2 6 16v4h-16l1-8z" fill="#FEFEFE"/>
<path transform="translate(737,349)" d="m0 0 3 3 6 16v2h-17l1-5 6-15z" fill="#FEFEFE"/>
<path transform="translate(1286,343)" d="m0 0h11l3 1 1 2v8l-3 3-3 1h-8l-1-1z" fill="#FEFEFE"/>
<path transform="translate(678,343)" d="m0 0 12 1 2 2v7l-3 4-4 1h-7l-1-1v-13z" fill="#FEFEFE"/>
</svg>
