<?xml version="1.0" encoding="UTF-8"?>
<svg version="1.1" viewBox="0 0 1600 313" width="1539" height="302" xmlns="http://www.w3.org/2000/svg">
<path transform="translate(0)" d="m0 0h1600v313h-1600z" fill="#FEFEFE"/>
<path transform="translate(0,1)" d="m0 0h311l1 1v309l-1 1h-311z" fill="#1E5E99"/>
<path transform="translate(835,23)" d="m0 0h22l15 4 15 8 12 11 7 8 8 16 4 13 1 8v14l-3 16-7 16-9 12-8 8-14 9-13 5-9 2h-20l-15-4-14-7-10-8-10-11-7-12-5-15-1-6h-77v-24h77l2-10 6-15 9-13 10-10 11-7 11-5z" fill="#1E2122"/>
<path transform="translate(1143,23)" d="m0 0h22l15 4 15 8 12 11 7 8 8 16 4 13 1 8v14l-3 16-7 16-9 12-9 9-13 8-13 5-9 2h-20l-15-4-14-7-10-8-10-11-7-12-5-15-2-12v-12l3-16 6-15 9-13 10-10 11-7 11-5z" fill="#1E2122"/>
<path transform="translate(539,23)" d="m0 0h23l12 3 16 8 10 8 9 10 8 14 4 11 2 9v24l-4 15-8 16-9 11-8 7-13 8-15 5-6 1h-19l-16-4-15-8-12-11-7-8-8-15-4-13-1-6v-20l4-16 4-10 8-12 7-8 12-9 14-7z" fill="#1E2122"/>
<path transform="translate(1251,27)" d="m0 0h29l44 108v2h2l1-5 42-103 1-2h28v142h-24l-1-1-1-78-22 54-10 24-1 1h-29l-16-39-17-42-1 81h-24l-1-1z" fill="#1E2122"/>
<path transform="translate(1469,27)" d="m0 0h27l5 11 22 56 26 65 3 10h-26l-5-10-11-28h-55l-14 35-2 3h-26l3-10 52-130z" fill="#1E2122"/>
<path transform="translate(943,27)" d="m0 0h25v58h64v-57l1-1h24v142h-24l-1-1v-59h-64v60h-25z" fill="#1E2123"/>
<path transform="translate(1145,48)" d="m0 0h18l12 4 10 7 9 10 6 13 2 9v13l-3 13-6 11-9 10-10 6-7 3-5 1h-16l-10-3-12-7-9-10-6-12-3-13v-11l3-12 6-12 9-10 11-7z" fill="#FEFEFE"/>
<path transform="translate(837,48)" d="m0 0h18l12 4 10 7 9 10 6 13 2 9v14l-3 12-6 11-9 10-10 6-7 3-5 1h-16l-10-3-10-6-8-7-7-11-4-12-1-6v-11l3-12 6-12 9-10 11-7z" fill="#FEFEFE"/>
<path transform="translate(541,48)" d="m0 0h19l11 4 11 7 8 9 6 12 3 16-2 16-4 10-7 11-11 9-12 5-4 1h-17l-12-4-10-7-7-7-6-10-4-14v-16l3-12 7-12 10-10 14-7z" fill="#FEFEFE"/>
<path transform="translate(310,205)" d="m0 0h1l1 106-1 1-102-1-9-1-5-2-13-3v-3l16-6 25-5 8-3 10-3v-3l-5-1-7 1-1 3-16 5-7 1-23 1 4-3 11-3 10-2 2-2-4-6-6-1-1 4v-5l6-2 2-2 1-4h7l-5 4v9h7l1-10 2-1 1 2v10h2l1-13-3-1h3v-3h2v16h3l1-4 3 1 2 3-2-5 1-4 4-3 4 1-3 5 1 5 7 1v-2l-5 1-2-3h8l-1-6 6 1 4-4h2l2-4 17-16 5-6 6-5 7-9 6-12h4l4 3z" fill="#022B5A"/>
<path transform="translate(371,26)" d="m0 0h108v25h-44v118h-25v-118h-43l-1-1v-23z" fill="#1E2326"/>
<path transform="translate(1569,27)" d="m0 0h25v141l-1 1h-24z" fill="#1E2123"/>
<path transform="translate(648,27)" d="m0 0h25v141l-1 1h-24z" fill="#1E2123"/>
<path transform="translate(1522,243)" d="m0 0h8l6 3 3 2v-4h12v6h-6v34l-3 7-5 4-12 2-8-2-6-4-2-3v-3h7l4 4 3 1h7l5-2 2-4v-7l-4 3-3 1h-9l-7-4-4-5-2-6v-8l4-9 5-4z" fill="#1E272D"/>
<path transform="translate(128,79)" d="m0 0 1 3-11 6-5 5-4 6v12l6 9 9 6 15 5 5 1h23l15-4 10-5 6-5 4-7 1-8-3-8-4-5-10-6-2-1v-3l6 2 11 8 7 10 1 4v11l-5 10-10 9-13 6-13 3-16 1-19-3-12-5-9-6-7-8-3-6v-14l6-10 8-7z" fill="#FEFEFE"/>
<path transform="translate(1416,243)" d="m0 0h8l8 3 6 7 2 7-1 9-4 7-6 4-3 1h-11l-7-3-5-5-2-5v-12l5-8 6-4z" fill="#1E2830"/>
<path transform="translate(1480,243)" d="m0 0h8l8 3 6 7 2 5v9l-4 8-5 4-5 2h-11l-8-4-4-4-2-6v-10l4-8 5-4z" fill="#1E272E"/>
<path transform="translate(1112,243)" d="m0 0h8l8 3 5 5 3 7v9l-4 8-5 4-5 2h-11l-8-4-4-5-2-5v-9l3-7 5-5z" fill="#1E272E"/>
<path transform="translate(1240,243)" d="m0 0h8l8 4 5 6 2 5v6l-1 1h-30l5 8 2 1h10l8-5h5l-1 5-6 5-6 2h-10l-8-4-5-7-1-3v-10l5-8 5-4z" fill="#1E2831"/>
<path transform="translate(1051,243)" d="m0 0h7l8 3 5 6 3 8-1 5h-30l3 6 4 3h10l8-5h5l-2 6-8 5-3 1h-10l-8-4-5-6-1-3v-12l5-8 7-4z" fill="#1E2931"/>
<path transform="translate(1307,224)" d="m0 0h13l1 24 6-4 9-1 6 4 2 4v24h5l1 5h-19v-5h6l-1-22-2-3-8 1-5 4-1 20h6v5h-19v-5h6v-46h-6z" fill="#1E262B"/>
<path transform="translate(1184,224)" d="m0 0h43v15l-1 1h-6l-1-10-10-1v46h7v5h-22v-5h7v-46h-10v10l-1 1h-6z" fill="#1E252A"/>
<path transform="translate(1482,61)" d="m0 0 2 2 16 40v3h-35l3-10z" fill="#FEFEFE"/>
<path transform="translate(1553,244)" d="m0 0h17l1 5-5 2 7 18 6-12 3-8h-5v-5h17v5l-5 1-3 9-12 26-2 5 6 1v5l-1 1h-18l-1-1v-5h7l3-9 1-4-11-27-5-2z" fill="#1E2830"/>
<path transform="translate(830,243)" d="m0 0h6l6 4 2 3v25h5l1 4-1 1h-18v-5h6l-1-22-2-3-8 1-5 4-1 20h6v5h-19v-5h6l-1-25-5-1v-5h13v4z" fill="#1E252B"/>
<path transform="translate(1377,243)" d="m0 0 8 1 5 4 1 3v24h5v5h-18v-5h6l-1-22-2-3-8 1-4 3h-2v21h6v5h-19v-5h6l-1-25-5-1v-5h13v4z" fill="#1E252B"/>
<path transform="translate(863,243)" d="m0 0h8l6 3 1-2h6v11h-6l-4-4-2-1h-8l-2 1v5l7 2 10 2 5 3 2 3v8l-4 5-5 2h-11l-6-3v2h-6v-12h6l2 4 4 2h13v-5l-3-2-16-3-5-5-1-2v-6l4-6z" fill="#1E2A33"/>
<path transform="translate(966,244)" d="m0 0h12l1 28 2 2h7l6-4h2l-1-20-5-1v-5h13v31h6v5h-13l-1-4-5 4-3 1h-9l-5-3-2-4-1-24-4-1z" fill="#1E262D"/>
<path transform="translate(782,224)" d="m0 0h21v5l-6 1-1 45h7v5h-21v-5h6v-46h-6z" fill="#1E2429"/>
<path transform="translate(1282,243)" d="m0 0h7l6 3 1-2h6v13h-5l-5-6-2-1h-7l-5 4-2 6 1 8 3 5 2 1h9l6-4h4l2 3-5 5-7 3h-10l-6-3-5-6-2-7 1-10 3-6 5-4z" fill="#1E2A35"/>
<path transform="translate(1152,224)" d="m0 0h9v5l-6 2-1 13h7v5l-1 1h-6v25h7v5h-21v-5h7l-1-25-6-1v-5h7v-14l2-4z" fill="#1E272E"/>
<path transform="translate(1112,249)" d="m0 0h9l5 3 3 6v8l-3 6-5 3h-10l-5-4-2-5v-8l3-6z" fill="#FEFEFE"/>
<path transform="translate(1480,249)" d="m0 0h9l6 5 2 5-1 10-5 5-2 1h-10l-5-4-2-5v-8l4-7z" fill="#FEFEFE"/>
<path transform="translate(1416,249)" d="m0 0h9l6 5 2 9-2 7-6 5h-10l-5-4-2-4v-10l4-6z" fill="#FEFEFE"/>
<path transform="translate(133,38)" d="m0 0h3l10 14 7 10v61h-6l-1-56-7-14-7-12z" fill="#FEFEFE"/>
<path transform="translate(175,38)" d="m0 0 4 1-2 5-12 22-1 57h-6v-61l10-14z" fill="#FEFEFE"/>
<path transform="translate(0,288)" d="m0 0 4 1v2l5 2 25 8 2 2v3l-7 2v2l-4 1h-25z" fill="#022B5A"/>
<path transform="translate(1523,249)" d="m0 0h8l5 4 2 4v9l-4 7-3 2h-9l-5-5-2-4v-8l4-7z" fill="#FEFEFE"/>
<path transform="translate(1443,224)" d="m0 0h13v51h6v5h-19v-5h6v-46h-6z" fill="#1E2021"/>
<path transform="translate(223,263)" d="m0 0h2v16h3l1-4 3 1 2 3-2-5 1-4 4-3 4 1-3 5 1 5 2 2-8 2h-4l-1 3-16 5-7 1-23 1 4-3 11-3 10-2 2-2-4-6-6-1-1 4v-5l6-2 2-2 1-4h7l-5 4v9h7l1-10 2-1 1 2v10h2l1-13-3-1h3z" fill="#042E5E"/>
<path transform="translate(1018,231)" d="m0 0h5l1 1v12h7v5l-1 1h-6l1 25h6v5l-1 1h-9l-4-4-1-27-5-1v-5h6v-12z" fill="#1E2830"/>
<path transform="translate(897,231)" d="m0 0h5l1 1v12h7v5l-1 1h-6l1 23 6 2v5l-1 1h-9l-3-2-1-3-1-26-5-1v-5h6v-12z" fill="#1E272F"/>
<path transform="translate(947,231)" d="m0 0h6l1 1v12h7v5l-1 1h-6l1 24 5 1v5l-1 1h-9l-3-3v-28l-6-1v-5h6z" fill="#1E272F"/>
<path transform="translate(126,45)" d="m0 0 4 1 12 17 2 3v48h-5l-1-1-1-45-11-20z" fill="#FEFEFE"/>
<path transform="translate(152,28)" d="m0 0h7l5 3 3 7-2 7-6 5h-7l-5-3-3-9 2-5z" fill="#FEFEFE"/>
<path transform="translate(182,45)" d="m0 0h3l-1 5-10 17-1 26v20l-5 1-1-1v-47l10-14z" fill="#FEFEFE"/>
<path transform="translate(917,244)" d="m0 0h12l1 1v30h6v5h-20v-5l6-1v-24l-5-1z" fill="#1E262D"/>
<path transform="translate(47,159)" d="m0 0h12l4 4-1 6h-2v2h2l1 2v6l-3 3h-13z" fill="#FEFEFE"/>
<path transform="translate(113,159)" d="m0 0h7l5 5v13l-4 5h-8l-4-4-1-3v-9l3-6z" fill="#FEFEFE"/>
<path transform="translate(74,194)" d="m0 0h6l5 4 1 2v7l-6 5h-6l-5-4-1-7 3-5z" fill="#1E5E99"/>
<path transform="translate(154,159)" d="m0 0h12l4 3v7l-4 4h-8v9h-4z" fill="#FEFEFE"/>
<path transform="translate(73,159)" d="m0 0 4 1 7 19v3l-4-1-1-3-9-1-1 5h-4l3-10z" fill="#FEFEFE"/>
<path transform="translate(208,159)" d="m0 0 4 1 9 14 1-15h3v23l-4-1-9-14-1 15h-3z" fill="#FEFEFE"/>
<path transform="translate(47,192)" d="m0 0h9l5 5-1 6-3 3-7 2v6h-3z" fill="#FEFEFE"/>
<path transform="translate(136,226)" d="m0 0h10l3 2v7l-2 4 3 5v2l-4-1-3-6v-2h-4v8h-3z" fill="#FEFEFE"/>
<path transform="translate(1051,249)" d="m0 0h8l6 4 2 6h-24l1-5 4-4z" fill="#FEFEFE"/>
<path transform="translate(1240,249)" d="m0 0h8l6 4 2 3v3h-24l2-6z" fill="#FEFEFE"/>
<path transform="translate(190,159)" d="m0 0h15v3h-11v7h9v3h-9v7h11v3h-15z" fill="#FEFEFE"/>
<path transform="translate(76,191)" d="m0 0 8 2 5 6v8l-6 7-8 1-6-3-3-4-1-7 3-6 4-3zm-2 3-5 4-1 8 4 5 2 1h6l6-5v-7l-4-5-2-1z" fill="#FEFEFE"/>
<path transform="translate(212,192)" d="m0 0 4 2 10 14 1-16h2v22l-4-1-10-15-1 16h-2z" fill="#FEFEFE"/>
<path transform="translate(175,226)" d="m0 0 4 2 6 10 1-12h3v20l-4-2-7-11-1 13h-2z" fill="#FEFEFE"/>
<path transform="translate(115,162)" d="m0 0 5 1 2 4v8l-3 4-6-1-1-2v-11z" fill="#1E5E99"/>
<path transform="translate(103,226)" d="m0 0h2l7 18v2h-3l-2-4h-7l-2 4h-2l1-6 5-13z" fill="#FEFEFE"/>
<path transform="translate(161,226)" d="m0 0 3 2 5 14v4l-3-1-1-3h-7l-2 4h-2l1-6 5-13z" fill="#FEFEFE"/>
<path transform="translate(220,226)" d="m0 0 3 1 6 16v3l-3-1-1-3-8-1-1 5-3-1z" fill="#FEFEFE"/>
<path transform="translate(200,226)" d="m0 0h5l4 5h-4l-5-1-1 1v10l5 1 2-4h-4v-3h7v6l-5 5-6-1-3-4v-10z" fill="#FEFEFE"/>
<path transform="translate(188,192)" d="m0 0h2l1 9 11 1v-10h3v22h-3v-10h-12v10h-2z" fill="#FEFEFE"/>
<path transform="translate(129,159)" d="m0 0h14v3h-11v7h10v3h-10v10h-3z" fill="#FEFEFE"/>
<path transform="translate(173,191)" d="m0 0 6 1 3 3-3 1-7-1-4 1-1 3v8l1 3 3 1h7l3-1v3l-4 2-8-1-5-5-1-2v-8l5-6z" fill="#FEFEFE"/>
<path transform="translate(255,191)" d="m0 0 8 2v3l-10-1-4 3-1 8 5 5h6l4-1v3l-5 2-7-1-5-4-2-8 3-7 4-3z" fill="#FEFEFE"/>
<path transform="translate(116,226)" d="m0 0h3l1 15 5 1 1-1 1-15h3v14l-3 5-6 1-5-4z" fill="#FEFEFE"/>
<path transform="translate(146,192)" d="m0 0h11l1 2h-9v8h9v2h-9v8h9v2h-12z" fill="#FEFEFE"/>
<path transform="translate(82,159)" d="m0 0h4l4 8 3-4 2-4 4 1-6 12-1 10h-3l-1-10z" fill="#FEFEFE"/>
<path transform="translate(247,159)" d="m0 0 4 1 4 8 5-9 4 1-6 11-1 11h-3l-1-10z" fill="#FEFEFE"/>
<path transform="translate(228,159)" d="m0 0h16v3h-6v20h-4l1-20h-7z" fill="#FEFEFE"/>
<path transform="translate(195,264)" d="m0 0h9l2 2v5l-2 2h-7v7h-2z" fill="#FEFEFE"/>
<path transform="translate(106,192)" d="m0 0 4 1 5 8 5-9h3l-2 6-4 7-1 9h-3l-1-10z" fill="#FEFEFE"/>
<path transform="translate(173,159)" d="m0 0h3v20h12v3h-15z" fill="#FEFEFE"/>
<path transform="translate(210,268)" d="m0 0h5l2 2v7l-3 3-5-1-1-2v-7z" fill="#FEFEFE"/>
<path transform="translate(179,268)" d="m0 0 6 1 1 2v6l-3 3-5-1-1-1v-8z" fill="#FEFEFE"/>
<path transform="translate(127,192)" d="m0 0h14v2l-5 1-1 19h-3v-20h-5z" fill="#FEFEFE"/>
<path transform="translate(82,226)" d="m0 0h13l-1 3-4 1v10l-1 6h-2v-17h-5z" fill="#FEFEFE"/>
<path transform="translate(95,192)" d="m0 0h3v20h8v2h-11z" fill="#FEFEFE"/>
<path transform="translate(103,263)" d="m0 0v3l-2 5 4 7v2l-4-2-2-6-3 2-1 6-2-1v-15h2v7h2l2-4z" fill="#FEFEFE"/>
<path transform="translate(130,268)" d="m0 0h5l2 2v9l-7 1-2-2 1-5h6l-1-2h-5z" fill="#D7E0E8"/>
<path transform="translate(77,268)" d="m0 0 6 1 1 6h-7l1 2h5v2l-5 1-3-2v-8z" fill="#DCE4EC"/>
<path transform="translate(240,268)" d="m0 0 5 1 2 2v4l-7 1 4 1h2v2l-5 1-3-2-1-5z" fill="#D7E0E9"/>
<path transform="translate(50,194)" d="m0 0h5l3 3v5l-2 2h-6z" fill="#1E5E99"/>
<path transform="translate(158,162)" d="m0 0h7l2 2-1 5-2 1h-6z" fill="#1E5E99"/>
<path transform="translate(268,238)" d="m0 0 3 1v4l-2 1-2 4-5 5h-2l1-5z" fill="#022B5A"/>
<path transform="translate(50,172)" d="m0 0h8l2 2-1 4-1 1h-8z" fill="#1E5E99"/>
<path transform="translate(920,228)" d="m0 0h9v7h-9z" fill="#1F1F1E"/>
<path transform="translate(237,267)" d="m0 0 4 1-3 5 1 5 2 2h-6l-3-6 1-4z" fill="#0A3A6C"/>
<path transform="translate(226,264)" d="m0 0h2l1 8 4-4 2 1-2 2 1 5 1 4-4-4h-2l-1 3h-2z" fill="#FEFEFE"/>
<path transform="translate(50,162)" d="m0 0h8l1 5-2 2h-6l-1-1z" fill="#1E5E99"/>
<path transform="translate(236,192)" d="m0 0 3 1v12l-1 9h-2z" fill="#FEFEFE"/>
<path transform="translate(107,268)" d="m0 0h2l1 8 4 1v-9h2v11h-8l-1-1z" fill="#FEFEFE"/>
<path transform="translate(153,268)" d="m0 0h7l2 2v9h-2l-1-8h-3l-1 8h-2z" fill="#FEFEFE"/>
<path transform="translate(207,266)" d="m0 0h7l-5 4-1 7-9-2-1 4v-5l6-2 2-2z" fill="#073566"/>
<path transform="translate(139,229)" d="m0 0h7l1 4-2 2h-6z" fill="#1E5E99"/>
<path transform="translate(64,264)" d="m0 0h11l-4 1v14l-2 1-1-14z" fill="#FEFEFE"/>
<path transform="translate(225,258)" d="m0 0h22l-3 3-19-2z" fill="#022B5A"/>
<path transform="translate(74,164)" d="m0 0 2 2 2 8h-7z" fill="#1E5E99"/>
<path transform="translate(223,263)" d="m0 0h2v16l-2 1v-13l-3-1h3z" fill="#022B5A"/>
<path transform="translate(180,270)" d="m0 0 4 1v5l-3 2-2-1v-6z" fill="#134B82"/>
<path transform="translate(211,270)" d="m0 0 4 1v5l-3 2-2-1v-6z" fill="#0E4276"/>
<path transform="translate(197,266)" d="m0 0h6l1 4-1 1h-6z" fill="#18538B"/>
<path transform="translate(141,265)" d="m0 0h2l1 5v9h-3l-1-11z" fill="#FEFEFE"/>
<path transform="translate(120,268)" d="m0 0h7v2l-4 1-1 8h-2z" fill="#FEFEFE"/>
<path transform="translate(156,270)" d="m0 0h3v10l-3-1z" fill="#053060"/>
<path transform="translate(161,231)" d="m0 0 2 1 1 7h-5l1-6z" fill="#144B82"/>
<path transform="translate(221,231)" d="m0 0 2 2 1 6h-5l1-7z" fill="#12487E"/>
<path transform="translate(296,198)" d="m0 0h1l-1 7-5 7-1-2z" fill="#022B5A"/>
<path transform="translate(103,231)" d="m0 0h2l1 8h-5z" fill="#1B5A94"/>
</svg>
