<?xml version="1.0" encoding="UTF-8"?>
<svg version="1.1" viewBox="0 0 1600 578" width="1200" height="434" xmlns="http://www.w3.org/2000/svg">
<path transform="translate(650,2)" d="m0 0h45l36 2 34 4h11l31-4 32-2h43l37 2 36 4 38 6 37 8 35 9 35 11 38 14 28 12 28 13 24 12 23 13 27 16 25 16 17 12 19 14 16 12 13 11 11 9 12 11 8 7 16 15 19 19 7 8 14 15 9 11 12 14 13 17 10 13 13 18 19 29 17 28 15 27 19 38 13 30 11 29-2 1-16-35-12-25-12-22-10-18-14-23-20-30-10-14-9-12-10-13-9-11-11-13-12-14-16-17-31-31-8-7-11-10-11-9-13-11-36-27-33-22-21-13-25-14-27-14-25-12-36-15-36-13-35-11-38-10-38-8-38-6-30-3 25 9 26 11 28 13 22 11 23 13 20 12 21 14 26 10 30 13 33 16 23 13 22 13 27 18 18 13 13 10 16 13 14 12 12 11 10 9 28 28 7 8 10 11 9 11 14 17 14 19 12 17 10 15 16 26 15 27 6 12 4 15 1 15-2 15-4 13-7 14-7 9-10 10-13 8-12 5-12 3h-23l-16-4-16-8-9-7-5-4-9-11-7-11-7-19-10-29-14-34-11-24-14-28-13-23-15-24-13-19-14-19-13-17-13-15-9-10-7-8-16-17-11-11-8-7-14-13-11-9-13-11-17-13-11-8-16-6-25-8-37-10-37-8-30-5-35-4-28-2h-67l-37 3-36 5-36 7-32 8-35 11-27 10-26 11-28 13-29 15-22 13-19 12-22 15-18 13-16 13-10 8-14 12-24 22-23 23-7 8-11 12-9 11-11 13-15 20-13 18-17 26-13 22-10 18-12 23-6 12-1-3 11-28 12-26 15-30 14-24 13-21 13-19 14-19 14-18 12-14 9-11 9-9 7-8 27-27 8-7 12-11 11-9 16-13 20-15 23-16 19-12 24-14 34-18 28-13 27-11 30-11 29-9 26-7 39-8 26-4 40-4 19-1h50l34 2-33-10-40-10-32-6-24-3-14-1h-47l-29 3-28 5-31 8-33 11-32 13-26 12-38 19-23 13-25 15-39 26-19 14-13 10-16 13-13 11-11 10-8 7-16 15-15 15-7 8-14 15-9 11-12 14-10 13-12 16-14 20-13 20-13 21-14 25-12 23-12 24-15 34-8 17-8 10-9 9-14 9-12 5-13 3h-25l-15-4-12-6-12-9-10-10-9-14-5-13-3-16v-13l3-16 6-16 11-26 17-36 12-23 14-24 15-24 16-23 16-21 13-16 12-14 9-10 11-12 36-36 8-7 12-11 8-7 13-11 14-11 17-13 17-12 15-10 19-12 21-12 26-14 30-14 27-11 28-10 25-8 38-10 34-7 31-5 37-4zm-81 56-37 7-28 7-30 9-31 11-26 11-26 12-29 15-22 13-19 12-16 11-14 10-17 13-16 13-14 12-10 9-12 11-29 29-7 8-10 11-9 11-13 16-12 16-12 17-10 15-12 19-15 26-17 33-13 29-10 26v13l4 9 7 8 9 5 4 1h12l11-4 8-8 7-14 13-29 17-34 13-23 13-22 12-19 17-25 13-18 10-13 11-14 14-17 9-10 7-8 11-12 12-13 19-19 8-7 15-14 11-9 10-9 14-11 18-14 19-13 11-8 22-14 15-9 23-13 27-14 31-14 28-11 12-4 1-2zm685 202 2 4 12 15 12 16 14 20 13 20 17 28 13 24 8 16 14 29 14 35 14 39 5 9 9 8 7 3h14l10-4 8-7 5-10 1-4v-10l-4-11-12-22-12-20-16-25-11-15-12-16-11-14-12-14-18-20-31-31-8-7-10-9-25-20-9-7z" fill="#ED4A4A"/>
<path transform="translate(650,2)" d="m0 0h45l36 2 17 2 1 4 5 5-5 5-3 6h-2l-1 6-3 8-2 1-1 4h-3v2l-10 6v3l-20 3h-4v2l-30 6-30 8-30 10-32 13-26 12-38 19-23 13-25 15-39 26-19 14-13 10-16 13-13 11-11 10-8 7-16 15-15 15-7 8-14 15-9 11-12 14-10 13-12 16-14 20-13 20-13 21-14 25-12 23-12 24-15 34-8 17-8 10-9 9-14 9-12 5-13 3h-25l-15-4-12-6-12-9-10-10-9-14-5-13-3-16v-13l3-16 6-16 11-26 17-36 12-23 14-24 15-24 16-23 16-21 13-16 12-14 9-10 11-12 36-36 8-7 12-11 8-7 13-11 14-11 17-13 17-12 15-10 19-12 21-12 26-14 30-14 27-11 28-10 25-8 38-10 34-7 31-5 37-4zm-81 56-37 7-28 7-30 9-31 11-26 11-26 12-29 15-22 13-19 12-16 11-14 10-17 13-16 13-14 12-10 9-12 11-29 29-7 8-10 11-9 11-13 16-12 16-12 17-10 15-12 19-15 26-17 33-13 29-10 26v13l4 9 7 8 9 5 4 1h12l11-4 8-8 7-14 13-29 17-34 13-23 13-22 12-19 17-25 13-18 10-13 11-14 14-17 9-10 7-8 11-12 12-13 19-19 8-7 15-14 11-9 10-9 14-11 18-14 19-13 11-8 22-14 15-9 23-13 27-14 31-14 28-11 12-4 1-2z" fill="#9E3366"/>
<path transform="translate(1293,229)" d="m0 0 5 3 16 13 14 12 12 11 10 9 28 28 7 8 10 11 9 11 14 17 14 19 12 17 10 15 16 26 15 27 6 12 4 15 1 15-2 15-4 13-7 14-7 9-10 10-13 8-12 5-12 3h-23l-16-4-16-8-9-7-5-4-9-11-7-11-7-19-10-29-14-34-11-24-14-28-13-23-15-24-13-19-14-19 1-2 5 6v-2l-3-9-3-8 1-3 6 8v2l5 1 4 6 4 7 7 10 1 6 8 10 6 10 3 4v2l7 1 8 4 7 1 1 4 4-2-2-16-3-10 2-5-1-5-6-10-8-11-4-4-4-6-3-4-4-9 1-3 13 18 22 33 17 28 13 24 8 16 14 29 14 35 14 39 5 9 8 7 7 3h14l10-4 7-6 5-10 1-4v-10l-4-11-12-22-12-20-16-25-11-15-12-16-11-14-12-14-18-20-30-30-8-7-10-9-5-5-4-6 9 2 4 3 2 4 8 5 5 4 1-2 9 7v2l6 1 7 4 12 3 6 3 1 4h5l-4-7 1-2v-10l-7-11v-3l-8-7-12-10-5-1v-2l-4-2-9-6-6-5-3-5-7-5 1-3 5-2-1-3-3-2z" fill="#F07467"/>
<path transform="translate(365,73)" d="m0 0 5 1 4 2v3l6-2-4 6-8 6 2 6-3 5-5 5-10 9-1 2h-2l-1 4-7 6h-2v2l-10 10-3 5-6 5h-2l-1 4-5 8-7 7-14 10-17 13-16 13-14 12-10 9-12 11-28 28-7 8-10 11-9 11-13 16-12 16-12 17-4 5-2-1 2-4h-2l-1 5-5 2-5 5-10 13-12 14-5 7h-3l-13 16-5 4-7 7-2-2v-8l-3 3-1-10v-9l-5-2 1-6 13-24 13-21 16-24 10-14 13-17 13-16 12-14 9-10 11-12 36-36 8-7 12-11 8-7 13-11 14-11 17-13 17-12 15-10 19-12 21-12z" fill="#732D7B"/>
<path transform="translate(623,132)" d="m0 0 1 2 6 1-4 5-2 1 2 1-2 5-3 2 2 1v2l-2 1 2 2-4 2v6l-5 3h-2l1 4-8 4-11 5h-2v2l-36 17-27 14-22 13-19 12-22 15-18 13-16 13-10 8-14 12-24 22-23 23-7 8-11 12-9 11-11 13-15 20-13 18-17 26-13 22-10 18-12 23-6 12-1-3 11-28 12-26 15-30 14-24 13-21 13-19 14-19 14-18 12-14 9-11 9-9 7-8 27-27 8-7 12-11 11-9 16-13 20-15 23-16 19-12 24-14 34-18 28-13z" fill="#9F3465"/>
<path transform="translate(908,366)" d="m0 0h13l12 3 13 7 1 1 1-7 1-1h28l1 1v112l-1 1h-28l-1-1v-7l-12 7-15 4h-14l-12-3-12-6-10-9-7-9-5-10-4-16v-14l4-16 5-10 7-9 10-9 12-6zm3 29-10 4-9 8-4 8-2 8v7l3 10 6 8 6 5 9 4h15l12-6 8-9 3-7 1-5v-8l-3-10-6-8-6-5-10-4z" fill="#ED4B4B"/>
<path transform="translate(551,366)" d="m0 0h14l16 4 11 6 12 11 7 10 5 12 2 11v12l-3 14-7 14-9 10-7 6-14 7-13 3h-15l-15-4-11-6-10-9-6-7-7-14-3-13v-14l3-13 7-14 11-12 10-7 12-5zm0 29-9 4-8 6-5 8-2 6v14l4 10 6 7 10 6 4 1h14l10-4 7-6 5-8 2-6v-14l-4-9-6-8-8-5-6-2z" fill="#ED4B4A"/>
<path transform="translate(695,366)" d="m0 0h12l13 4 9 6 9 9 7 14 2 8v75l-1 1h-28l-1-1-1-63-2-9-4-7-6-5-5-2h-11l-10 5-5 7-2 7-1 67-1 1h-28l-1-1v-112l1-1h28l1 1v7l14-8z" fill="#ED4A4A"/>
<path transform="translate(1113,340)" d="m0 0h27l2 1v36h44l1 3-11 23-4 1h-30l1 41 3 7 4 3h11l12-5 4 1 10 20v5l-14 7-12 3h-15l-12-3-10-6-6-7-5-12-2-15v-101z" fill="#ED4C4B"/>
<path transform="translate(772,340)" d="m0 0h27l2 1v36h44l1 4-10 21-5 2h-30l1 40 3 8 4 3h11l10-4 5-1 10 19 2 6-8 5-13 5-6 1h-15l-12-3-10-6-8-11-3-9-1-5v-111z" fill="#EC4B4A"/>
<path transform="translate(447,366)" d="m0 0h14l16 4 9 5 2 2-1 5-10 20-5-1-8-4-3-1h-14l-9 4-6 4-5 7-3 9v12l3 9 6 8 8 5 6 2h14l15-6 5 8 7 14-1 4-8 5-12 4-6 1h-15l-15-4-11-6-12-11-7-10-5-13-2-10v-12l3-14 7-14 11-12 10-7 12-5z" fill="#DA3A47"/>
<path transform="translate(1053,366)" d="m0 0h13l16 4 11 6-1 6-9 19-4 1-9-5-4-1h-13l-10 4-8 7-5 10-1 5v8l3 10 6 8 5 4 9 4h15l12-6h3l11 22-1 5-10 5-15 4h-15l-13-3-12-6-10-8-9-11-5-11-3-11-1-11 2-14 4-11 6-10 9-10 10-7 12-5z" fill="#ED4B4B"/>
<path transform="translate(764,93)" d="m0 0h20v3l-1 3-6 1v2l-10 3-2 2-2 7 3 9-2 6 3 1v1l-27 5-7 2-36 8-33 9-36 12-31 12-5 2v-2l15-7 6-2-1-4 5-3h2v-6l3-2-3-2 4-1v-2l-3-1 5-5 1-2-3-1 6-5-5-2 1-3 36-13 26-8 26-7 39-8z" fill="#DA3A46"/>
<path transform="translate(820,3)" d="m0 0h30l6 1v2l2 1 2 5-2 1-1 5-2 2v6l-2 2h-3l-2 4-11 9-4 6-2 5-2 3-13 5h-15l-23-2h-47l-31 3v-2l20-3 4-2-2-2 9-4 3-1v-2l3-1v-4l3-1 4-13 3-3 4-7 2-2-5-4-1-3 3-1 15 2h11l31-4z" fill="#DA3946"/>
<path transform="translate(1333,168)" d="m0 0 4 2 14 11 13 11 11 9 17 16 12 11 20 20 7 8 14 15 9 11 12 14 13 17 10 13 13 18 19 29 17 28 15 27 19 38 13 30 11 29-2 1-16-35-12-25-12-22-10-18-14-23-20-30-10-14-9-12-10-13-9-11-11-13-12-14-16-17-31-31-8-7-11-10-11-9-7-6-1-3-5-5-9-8-4-6-9-10-1-3 8 1 2-2-13-11z" fill="#F17568"/>
<path transform="translate(395,435)" d="m0 0 2 2 4 12 3 5v3l3-1 1 3 1-2h2l1-2 5 2h7l7-6 1-3 9 6 6 2h14l15-6 5 8 7 14-1 4-8 5-12 4-6 1h-15l-15-4-11-6-12-11-7-10-5-13z" fill="#ED4B4A"/>
<path transform="translate(677,113)" d="m0 0 9 3 1 2-10 8v3l2 2-3 2v3h-2v2l3 1-5 5-8 6h-2v2l-16 7-14 5h-3l-1 3-31 12-5 2v-2l15-7 6-2-1-4 5-3h2v-6l3-2-3-2 4-1v-2l-3-1 5-5 1-2-3-1 6-5-5-2 1-3 36-13z" fill="#CD394F"/>
<path transform="translate(748,6)" d="m0 0 27 3 9 3 2 4-5 5-2 7-3 2-1 12h-3l-1 4-6 4-1 2h-2l-1 3 5 1v1l-35 1-31 3v-2l20-3 4-2-2-2 9-4 3-1v-2l3-1v-4l3-1 4-13 3-3 4-7 2-2-5-4-1-3z" fill="#CC394F"/>
<path transform="translate(1141,444)" d="m0 0 2 1 3 7 4 3h11l12-5 4 1 10 20v5l-14 7-10 2 3-3 1-4 7-5 7-2-2-6-1-4-9 3h-19l-6-5v-5l-3-6z" fill="#F17568"/>
<path transform="translate(1270,305)" d="m0 0 7 6 3 6 1 1 1 8 5 4 1 4-1 5 2 3h-4l-3-3-5-2v-3l-3-1-2-4-6-2-3-5-4-2-1-9 3 1v-2l4 1 1 2 3 1z" fill="#F07467"/>
<path transform="translate(1219,451)" d="m0 0h7l4 10v3h2l1-5 3-8h8v22l-3 1-3-2-1-6-4 8-5-1-3-8-1 8-3 1-3-2v-20z" fill="#F07467"/>
<path transform="translate(1291,264)" d="m0 0 5 1 5 2h10l2-1 5 5 6 5 1 4 7 7-1 2h-7l-8-3-3-3v-2l-8-1-5-4v-2l-9-3 4-1v-2l-4-2z" fill="#F17568"/>
<path transform="translate(1113,455)" d="m0 0 3 4v2h2l2 2 2-3 4 1 3 4 2-1 3 6 9 8-1 3-9-2-8-4-4-1-6-10z" fill="#F17568"/>
<path transform="translate(1197,451)" d="m0 0h19v5h-7v17l-2 1-3-1-1-16-6-1z" fill="#F07467"/>
<path transform="translate(252,492)" d="m0 0 2 1-11 21-6 12-1-3 11-28 4-1z" fill="#DB414B"/>
<path transform="translate(1208,456)" d="m0 0h1v17l-2 1-3-1v-16z" fill="#F17568"/>
<path transform="translate(521,420)" d="m0 0 4 4 1 9-2 3v-2h-4l-1-6v-4z" fill="#DA3946"/>
<path transform="translate(761,131)" d="m0 0h5v2l-30 5-3-1 7-2z" fill="#EE5551"/>
<path transform="translate(1199,452)" d="m0 0h11l3 2-7 4-2-1v-2h-5z" fill="#ED4A4A"/>
<path transform="translate(395,435)" d="m0 0 2 2 4 12 3 5-1 4-6-12z" fill="#EE5451"/>
<path transform="translate(242,511)" d="m0 0 1 3-6 12-1-3 4-11z" fill="#E44D50"/>
<path transform="translate(252,492)" d="m0 0 2 1-4 8-4-1 2-6h3z" fill="#D24454"/>
</svg>
