<?xml version="1.0" encoding="UTF-8"?>
<svg version="1.1" viewBox="0 0 2048 420" width="663" height="136" xmlns="http://www.w3.org/2000/svg">
<path transform="translate(1906)" d="m0 0h16l17 4 12 5 10 6 10 9 9 12 14 25 10 16 11 13 9 11 9 12 8 16 4 16v21l-4 15-8 16-15 26-5 10-14 37-7 13-8 10-8 8-11 7-14 6-9 2-61 1-16 2-20 6-39 16-37 15h-3l2-18 4-26 1-3 30-13 29-12 20-8 14-3 11-1 59-1 12-6 6-7 5-11 14-37 13-23 10-17 3-7 1-4v-8l-4-11-4-6-8-10-11-13-10-13-16-28-9-15-8-6-9-3h-13l-37 6-53 1-9 2-6 3-6 5-5 8-9 24-8 20-11 20-14 24-2 9 1 10 5 10 8 10 11 13 12 16 10 18 5 10-1 7-4 4-29 12-4 1-13-23-7-11-12-14-9-11-7-10-6-12-4-13-1-5v-21l4-15 8-16 13-22 8-16 14-37 8-14 11-12 10-8 14-7 12-3 13-1 48-1z" fill="#C9D936"/>
<path transform="translate(1095,50)" d="m0 0h82l20 3 16 6 11 7 6 5 7 10 4 8 3 15v12l-3 12-5 10-2 2-1 4 5 2 9 10 7 13 2 7 1 13-1 14-5 15-6 9-7 8-14 9-17 6-19 3h-94l-8-5-5-7-1-4v-171l5-10zm25 38v40h55l13-2 8-3 5-4 3-7-1-8-4-6-5-4-10-4-12-2zm0 78v49h64l12-2 9-4 8-7 3-7v-11l-4-8-7-6-9-3-6-1z" fill="#534F4C"/>
<path transform="translate(865,48)" d="m0 0h7l8 3 8 9 14 23 24 38 13 21 8 12 12-19 13-21 15-24 16-26 7-10 7-5 10-1 9 3 6 7 2 6v178l-3 6-5 5-7 3h-9l-7-3-5-4-3-6-1-97 1-6-4 4-12 20-15 24-11 17-6 5-8 2-10-1-6-4-6-7-14-23-14-22-8-13-2-1 1 3v77l-1 21-5 8-5 4-6 2h-8l-7-3-5-4-3-6-1-5v-173l3-8 5-5 4-3z" fill="#54504D"/>
<path transform="translate(1480,50)" d="m0 0h86l18 3 16 6 13 9 10 10 8 14 4 11 2 11v16l-2 12-6 15-7 9-8 8-12 7-6 2 6 7 27 30 5 9v11l-3 6-6 5-5 2h-12l-7-4-7-7-7-8-11-12-7-8-10-11-7-8-5-5-40-1v43l-2 13-5 6-5 3-4 1h-9l-7-3-7-8-2-7v-169l3-9 4-5zm27 39-1 50v12h58l10-2 12-5 7-7 3-7 1-10-2-9-6-10-9-7-15-5z" fill="#534F4C"/>
<path transform="translate(1298,50)" d="m0 0h129l7 3 6 7 2 6-1 9-5 8-6 4-4 1h-105v46l25-1h14l17 1 8 6 4 9v7l-3 8-7 6-3 1h-55v43l107 1 6 3 6 7 2 6v8l-4 8-6 5-5 1h-130l-8-4-6-8-2-6v-167l3-7 7-8z" fill="#534F4C"/>
<path transform="translate(366,46)" d="m0 0h13l8 5 4 5 2 6v107l-3 19-5 14-8 15-11 12-9 8-16 9-18 6-11 2h-25l-15-3-13-5-13-7-10-8-5-5-8-9-8-14-6-18-2-14v-110l4-8 7-5 3-1h12l7 3 6 7 2 6 1 109 4 13 6 10 7 7 12 7 15 4h15l16-5 11-7 8-9 5-10 3-13 1-108 4-8 6-5z" fill="#534F4C"/>
<path transform="translate(788,47)" d="m0 0h11l7 3 6 7 2 5v111l-4 20-6 15-9 14-7 8-10 8-14 8-16 6-14 3h-27l-17-4-15-6-12-8-10-9-8-9-6-10-4-8-5-16-2-20v-102l3-7 8-7 3-1h12l7 3 6 7 2 5 1 109 3 11 5 10 9 10 12 7 14 4h16l14-4 12-7 8-8 6-12 3-11 1-9 1-104 5-7 6-4z" fill="#534F4C"/>
<path transform="translate(93,45)" d="m0 0h21l17 3 15 5 14 8 11 9 8 8 4 8v7l-3 7-4 5-5 3-4 1h-9l-7-3-11-10-14-7-10-3h-26l-11 3-12 5-12 11-7 10-5 14-2 12v14l3 15 6 14 8 11 7 7 13 8 12 4 5 1h14l15-4 12-6 9-8h2l2-4 8-7 4-1h8l10 4 5 6 2 5v8l-3 7-6 8-10 10-14 9-13 6-16 5-10 2h-27l-17-4-16-7-12-8-10-9-8-8-10-15-6-13-5-16-3-15v-24l5-21 7-17 10-15 9-10 9-8 14-9 14-6 16-4z" fill="#534F4C"/>
<path transform="translate(511,46)" d="m0 0h20l18 3 16 6 15 9 13 11 6 9 1 3v8l-4 8-6 5-5 2h-11l-6-3-11-10-14-7-11-3h-25l-14 4-13 7-5 5h-2l-2 4-6 9-5 14-2 13v12l3 16 6 14 8 11 7 7 13 8 11 4 6 1h16l18-6 11-7 15-15 7-2 11 1 7 4 4 5 2 4v10l-4 8-9 11-14 11-16 8-14 5-16 3h-25l-15-3-19-8-12-8-12-11-8-9-7-11-7-14-6-21-1-5-1-21 2-17 5-17 8-16 7-11 11-12 13-10 14-8 15-5z" fill="#534F4C"/>
<path transform="translate(1113,339)" d="m0 0 12 1 8 4 5 3 2-5 4-2 3 2 1 16v32l-2 12-6 9-8 5-11 2-14-1-11-4-5-3 1-5 4-2 9 4 9 2h7l9-3 5-5 2-5 1-10-8 6-8 3h-12l-10-4-7-6-5-11v-13l4-10 7-7 8-4zm-2 9-8 5-4 6-1 3v11l5 8 5 4 7 2 9-1 7-4 7-8v-13l-4-6-6-5-4-2z" fill="#C9D936"/>
<path transform="translate(678,339)" d="m0 0 12 1 8 4 6 7 4 10 1 6-2 5-1 1-10 1h-23l-11-1 3 9 5 6 6 3 9 1 9-3 6-4 4 1 1 1v5l-8 6-10 3h-10l-9-3-6-4-6-8-3-7-1-11 2-10 6-10 7-6 5-2zm0 8-7 3-6 7-3 6 1 4h35l1-4-4-9-6-5-5-2z" fill="#C9D936"/>
<path transform="translate(1044,339)" d="m0 0 13 1 10 5 7 7 4 9 1 5-1 13-5 10-5 5-5 4-11 3h-9l-10-3-8-6-6-9-2-6v-14l4-10 6-7 9-5zm-2 9-8 4-6 9-1 3v12l4 8 8 7 4 1h11l8-5 5-6 2-7v-8l-4-10-7-6-4-2z" fill="#C9D936"/>
<path transform="translate(1320,339)" d="m0 0 13 1 8 4 8 8 4 9 1 4v10l-3 10-6 8-7 5-11 3h-9l-10-3-8-6-6-10-2-7v-10l4-11 6-8 9-5zm-3 9-6 3-7 8-2 6v10l3 8 8 7 5 2h10l8-4 6-7 2-5v-11l-3-8-8-7-5-2z" fill="#C9D936"/>
<path transform="translate(947,339)" d="m0 0 12 1 10 5 7 8 4 9 1 10-3 12-6 8-7 6-12 3h-8l-10-3-6-4-6-7-4-9v-15l4-10 7-8 7-4zm-3 9-8 4-6 9-1 2v14l3 6 7 7 5 2h12l7-4 5-6 2-4v-15l-4-8-8-6-3-1z" fill="#C9D936"/>
<path transform="translate(1604,339)" d="m0 0 12 1 8 5 6 7 4 10v8l-3 3-12 1h-31l3 9 8 7 7 2 9-1 11-6 5 1-1 6-7 6-10 3h-10l-10-3-8-7-5-8-2-10 1-13 5-10 7-7 7-3zm0 8-7 3-5 5-4 8v4h36l1-3-4-9-8-7z" fill="#C9D936"/>
<path transform="translate(788,316)" d="m0 0 5 1 1 1 1 30 7-6 9-3h7l9 3 6 5 3 5 1 5v41l-1 1h-6l-2-3-1-35-3-7-5-4-2-1h-9l-8 4-4 8-2 37-1 1h-5l-3-4v-74z" fill="#C9D936"/>
<path transform="translate(1165,340)" d="m0 0 4 2 8 17 7 17 5 10 2-3 12-31 4-9 3-3 6 2 1 3-8 20-16 38-6 9-6 5-4 1h-8l-8-3 1-5 2-2 10 1 6-3 3-5-1-7-14-29-8-18 1-5z" fill="#C9D936"/>
<path transform="translate(881,339)" d="m0 0h7l9 3 5 4 4 8 1 5v32l-1 7-1 1h-5l-3-4-1-37-4-6-5-3h-10l-6 3-4 5-1 3-1 32-1 6-6 1-3-2v-53l4-4 4 2 2 4 4-2 7-4z" fill="#C9D937"/>
<path transform="translate(744,339)" d="m0 0 13 1 10 5 4 4-2 5-4 2-9-6-3-1h-11l-7 4-4 5-3 7v10l3 8 7 6 5 2h10l14-7 4 4-2 5-9 6-7 2h-11l-11-4-6-5-6-10-2-7v-10l4-11 5-7 9-6z" fill="#C9D936"/>
<path transform="translate(615,319)" d="m0 0h25l14 1 2 4-1 4-5 1h-21v67l-2 3h-6l-1-2v-68h-22l-4-1-1-3 2-5z" fill="#C9D936"/>
<path transform="translate(1557,316)" d="m0 0h11l4 1v6l-1 1-13 2-2 4-2 10h13l5 2v6l-3 1h-15v48l-3 2-5-1-2-7v-42l-7-2v-5l6-2 1-2 2-13 6-7z" fill="#C9D938"/>
<path transform="translate(1447,321)" d="m0 0h7l1 2v67h26l17 1 1 1v6l-7 2h-41l-5-3v-75z" fill="#CAD93A"/>
<path transform="translate(1273,316)" d="m0 0h11l4 1 1 3-2 4-10 1-5 5-2 10h13l5 1v7l-4 1h-14v49l-1 1-7-1-1-2v-47l-7-1-1-5 7-3 1-11 4-8 5-4z" fill="#C9D936"/>
<path transform="translate(997,317)" d="m0 0 5 1 2 3v73l-3 5-6-1-1-1v-77z" fill="#C9D936"/>
<path transform="translate(1373,340)" d="m0 0 4 2 2 9 5-6 6-4 9-1 3 3-1 4-13 7-5 5-3 7-1 6-1 25-2 2h-5l-2-2v-53z" fill="#C9D936"/>
<path transform="translate(1515,341)" d="m0 0 6 1 1 1v53l-3 3h-5l-1-1v-56z" fill="#C9D936"/>
<path transform="translate(1517,318)" d="m0 0 5 2-1 7-1 1-7-1-1-6z" fill="#C9D936"/>
</svg>
