<?xml version="1.0" encoding="UTF-8"?>
<svg version="1.1" viewBox="0 0 2048 383" width="2458" height="460" xmlns="http://www.w3.org/2000/svg">
<path transform="translate(1678,4)" d="m0 0h59l6 13 13 32 19 46 18 44 48 117 4 10 5-10 18-43 16-38 18-43 16-38 15-36 18-43 5-11h57l-1 7v11l19 203 8 86 4 44 4 17v3h-85l-2-19-10-119-7-82-1-7-15 35-18 41-26 60-18 41-16 37-6 13h-26l-14-32-36-82-14-32-36-82-2 20-12 162-3 42-1 4h-45l1-8 2-7 8-106 16-219 1-21-4-8z" fill="#002B7F"/>
<path transform="translate(1,4)" d="m0 0h160l18 3 17 5 17 8 15 10 13 12 10 11 10 15 11 21 6 17 4 13 5 27 1 11v46l-3 24-5 22-5 16-6 15-11 21-12 17-10 11-4 5-8 7-13 10-16 9-13 6-15 5-19 4-9 1h-139l7-12v-343zm71 35v292h45l18-2 19-5 14-7 13-10 9-10 8-13 5-10 7-21 4-19 3-25v-56l-3-23-4-17-7-19-8-15-8-10-11-11-11-7-10-5-12-4-19-3z" fill="#012C7F"/>
<path transform="translate(1472)" d="m0 0 20 1 20 3 17 5 15 6 14 8 12 9 13 12 10 12 9 14 9 17 9 24 6 25 3 19 1 10 1 28-1 20-4 27-7 26-8 20-10 19-8 12-9 11-9 10-12 11-16 11-19 10-16 6-16 4-15 2-14 1h-10l-22-2-19-4-22-8-16-9-12-9-10-9-8-8-11-15-10-17-8-19-6-19-6-29-2-20v-46l3-24 6-25 5-15 9-20 10-17 11-14 11-12 11-9 14-10 15-8 18-7 20-5 15-2zm-6 33-15 2-15 5-12 7-10 9-8 9-9 15-7 17-5 16-5 24-3 24-1 13v56l3 23 5 22 5 15 9 19 9 13 8 9 12 9 13 6 11 3 8 1h11l16-3 14-6 12-9 10-10 9-13 9-17 8-22 6-25 4-27 2-31v-16l-2-26-4-24-6-21-7-17-9-16-11-13-11-9-16-8-11-3z" fill="#002B7F"/>
<path transform="translate(847,4)" d="m0 0h72l17 48 14 41 16 45 8 24 15 43 17 49 15 43 10 28 10 29 4 11 4 5 4 4v1h-82l-5-14-15-45-14-43-3-8-115-1-3 12-12 36-20 62-1 1h-51l6-10 13-37 12-36 13-37 12-36 15-43 19-56 15-43 17-50-1-6zm29 88-14 40-12 36-13 38-4 12v3h88l-1-6-13-37-12-36-13-37-4-12z" fill="#002B7F"/>
<path transform="translate(388,4)" d="m0 0h71l4 9 21 61 14 40 17 49 15 43 17 48 8 24 30 86 7 8 2 3h-82l-4-10-21-63-12-37h-115l-14 44-22 66h-51l8-16 9-27 15-43 12-36 19-55 15-43 12-36 15-43 17-50-7-20zm29 88-4 10-14 42-14 41-12 36h89l-3-10-19-56-14-41-8-22z" fill="#002B7F"/>
<path transform="translate(1214)" d="m0 0 19 1 18 3 15 5 16 8 10 7v56l-1 1h-5l-8-12-9-11-9-8-13-8-12-5-16-3-17 1-15 4-14 7-9 7-11 11-10 15-8 16-7 18-6 24-4 27-1 11v44l3 26 4 20 8 24 10 19 10 13 9 9 14 9 11 5 16 4 9 1h12l17-3 11-4 10-5 12-9 16-16h1v54l-16 8-15 5-21 3-20 1h-18l-22-2-19-4-15-5-21-10-12-8-11-9-9-8-9-11-8-11-8-14-8-17-6-19-5-23-2-21v-38l3-29 6-29 8-24 11-23 10-15 9-11 8-9 8-7 15-11 14-8 20-8 18-5 20-3z" fill="#002B7F"/>
<path transform="translate(539,4)" d="m0 0h260l-1 8-10 34-4-1-8-6h-77v324l5 11v2h-84l-1-2 5-11 1-325-75 1-17 8h-2l2-14 5-26z" fill="#002B7F"/>
</svg>
