<?xml version="1.0" encoding="UTF-8"?>
<svg version="1.1" viewBox="0 0 2048 384" width="1156" height="217" xmlns="http://www.w3.org/2000/svg">
<path transform="translate(105,2)" d="m0 0h31l27 2 24 4 20 6 15 6 14 7 12 8 11 9 9 8 9 11 10 14 12 25 6 20 4 20 2 17v47l-3 24-5 23-6 18-7 16-10 17-11 14-12 13-11 9-10 7-14 8-17 8-22 7-20 4-31 3h-132v-374zm-5 82-1 1v209h32l19-3 12-4 13-7 11-10 7-10 6-12 5-15 4-24 1-18v-12l-2-24-4-19-8-19-9-12-9-8-10-6-15-5-14-2z" fill="#0E0B0B"/>
<path transform="translate(888,93)" d="m0 0h38l18 3 17 5 21 10 11 8 13 11 9 11 10 15 8 17 6 20 3 16 1 8v41l-4 25-6 20-10 21-10 14-8 9-11 9-10 7-15 8-18 6-22 4-11 1h-22l-24-3-18-5-15-7-12-7-10-8-10-9-9-11-9-14-8-17-6-20-3-16-1-10v-38l3-21 5-19 5-13 7-14 8-11 9-10 9-9 15-10 14-7 15-5 19-4zm15 71-12 3-9 6-7 10-5 14-3 18-1 26 2 25 4 17 4 10 7 9 9 6 7 2h17l10-4 8-7 5-8 4-11 3-14 1-8v-42l-3-19-5-14-6-9-8-6-8-3-6-1z" fill="#0E0B0B"/>
<path transform="translate(454,93)" d="m0 0h40l20 3 20 6 16 8 13 9 10 9 8 10 8 13 6 14 4 13 3 16 1 10v59h-168l3 16 7 14 8 8 16 8 13 3h31l22-3 19-5 14-5h3l14 60v3l-15 7-18 6-20 4-16 2-17 1h-28l-26-3-23-6-18-8-14-9-11-9-9-9-10-14-9-17-6-18-4-19-2-23v-18l2-22 5-25 6-17 8-16 9-13 12-13 13-10 14-8 19-7 19-4zm18 65-9 2-9 5-7 6-6 10-4 14v7l1 1h79l1-2-2-13-4-10-6-9-9-7-13-4z" fill="#0E0B0B"/>
<path transform="translate(1767,93)" d="m0 0h40l19 3 18 5 19 9 14 10 13 13 10 15 7 15 6 21 2 14 1 13v52h-169l4 17 6 12 5 6 10 7 13 5 10 2h31l22-3 19-5 14-5 3 1 13 56v6l-12 6-21 7-19 4-17 2-16 1h-28l-21-2-18-4-18-6-19-10-13-10-14-14-9-13-8-15-7-21-4-22-1-10v-33l3-24 5-21 8-20 9-15 9-11 11-11 13-9 16-8 14-5 19-4zm17 65-13 4-8 6-6 7-5 10-3 15 1 3h80v-8l-3-12-5-10-8-8-12-6-6-1z" fill="#0E0B0B"/>
<path transform="translate(1554,10)" d="m0 0h5v88h60v72h-60l1 114 2 9 5 7 8 4 6 1h9l18-3 22-6v71l-19 7-19 5-13 2-13 1h-22l-17-2-15-4-9-4-10-6-8-7-7-10-7-14-4-14-3-22v-129h-33v-72h33v-73l40-7z" fill="#0E0B0B"/>
<path transform="translate(1336,10)" d="m0 0h5v88h60v71l-1 1h-59l1 117 4 10 6 5 5 2 6 1h9l18-3 20-6h2v70l-10 5-23 7-18 3-13 1h-22l-18-2-15-4-16-8-12-11-7-11-6-13-4-16-2-15v-132h-33v-72l32-1 1-71 32-6z" fill="#0E0B0B"/>
<path transform="translate(648)" d="m0 0h86v377h-94v-376z" fill="#0E0B0B"/>
<path transform="translate(1081,98)" d="m0 0h94v279h-94z" fill="#0E0B0B"/>
<path transform="translate(1983,275)" d="m0 0h20l13 4 11 7 6 5 9 13 5 15 1 6v8l-4 16-6 11-9 10-10 7-14 5-5 1h-13l-13-3-13-7-7-6-8-11-4-8-3-11v-16l4-14 7-12 9-9 10-6 10-4z" fill="#8EBC2F"/>
<path transform="translate(1088)" d="m0 0h87v63l-1 1h-93v-63z" fill="#0E0B0B"/>
</svg>
