<svg xmlns="http://www.w3.org/2000/svg" viewBox="0 0 841.88976 269.29134"><path d="M363.52161,40.0977h43.73307V55.12707H380.053V84.4325h21.3406V99.46187H380.053V145.301H363.52161Z" fill="#144c29"/><path d="M423.48291,139.89q-6.46283-6.91066-6.46282-19.53772v-55.306q0-12.62591,6.46282-19.53772,6.46281-6.91066,18.63972-6.913,12.16773,0,18.63513,6.913,6.45592,6.9141,6.46281,19.53772v55.306q0,12.6259-6.46281,19.53772-6.46281,6.9141-18.63513,6.913Q429.948,146.803,423.48291,139.89Zm27.20627-18.48585V63.99449q0-10.36944-8.56655-10.37174-8.57115,0-8.56656,10.37174v57.4097q0,10.36944,8.56656,10.37174Q450.68689,131.77593,450.68918,121.40419Z" fill="#144c29"/><path d="M486.60441,139.89q-6.46281-6.91066-6.46281-19.53772v-55.306q0-12.62591,6.46281-19.53772,6.46283-6.91066,18.63973-6.913,12.16772,0,18.63513,6.913,6.45592,6.9141,6.46281,19.53772v55.306q0,12.6259-6.46281,19.53772-6.46281,6.9141-18.63513,6.913Q493.06953,146.803,486.60441,139.89Zm27.20628-18.48585V63.99449q0-10.36944-8.56655-10.37174-8.57115,0-8.56656,10.37174v57.4097q0,10.36944,8.56656,10.37174Q513.80839,131.77593,513.81069,121.40419Z" fill="#144c29"/><path d="M556.79046,55.12707H539.50577V40.0977h51.10077V55.12707H573.32185V145.301H556.79046Z" fill="#144c29"/><path d="M601.58,40.0977h24.94636q12.774,0,18.63513,5.93687,5.86338,5.93917,5.86109,18.26078v4.20749q0,8.11641-2.62739,13.22419a15.40771,15.40771,0,0,1-8.04291,7.3654v.30086q12.32619,4.20978,12.3239,21.94233v9.0167q0,12.17461-6.38473,18.56164-6.39392,6.39047-18.71322,6.387H601.58Zm22.9942,42.83278q4.96078,0,7.4366-2.55389,2.48039-2.55619,2.48039-8.56656V65.94665q0-5.70836-2.02566-8.26569-2.03254-2.55275-6.38931-2.55389h-7.96483V82.93048Zm3.004,47.34113q4.36137,0,6.46282-2.32882t2.10374-8.04062v-9.16828q0-7.21382-2.4804-9.99508-2.48038-2.77667-8.1899-2.779h-7.3631v32.31176Z" fill="#144c29"/><path d="M678.07269,40.0977h22.39706L717.60286,145.301h-16.536l-3.004-20.89046v.30087H679.27614l-3.004,20.58959H660.93957Zm18.038,70.33533L688.743,58.43426h-.29857L681.2283,110.433Z" fill="#144c29"/><path d="M728.57173,40.0977h16.53139v90.17391H772.3048V145.301H728.57173Z" fill="#144c29"/><path d="M783.27367,40.0977h16.53139v90.17391h27.20628V145.301H783.27367Z" fill="#144c29"/><path d="M373.998,172.92327H359.98852V160.74175h41.41419v12.18152H387.39694V246.0124H373.998Z" fill="#144c29"/><path d="M410.29686,160.74175h36.54456v12.18152H423.69579v22.53507H442.0872v12.18152H423.69579v26.191h23.14563V246.0124H410.29686Z" fill="#144c29"/><path d="M461.15247,241.74961q-5.05392-5.48391-5.05578-15.47262V180.47716q0-9.99057,5.05578-15.47262,5.05392-5.47833,14.67963-5.48019,9.622,0,14.6759,5.48019,5.05392,5.48393,5.05578,15.47262v9.01328H482.89455V179.6246q0-7.91872-6.6976-7.91873-6.70132,0-6.70133,7.91873v47.62781q0,7.79587,6.70133,7.79587,6.69573,0,6.6976-7.79587V214.21833h12.66923V226.277q0,9.99057-5.05578,15.47262-5.05392,5.48393-14.6759,5.4802Q466.20453,247.22981,461.15247,241.74961Z" fill="#144c29"/><path d="M506.04018,160.74175h13.39893v34.71659h14.37434V160.74175h13.39893V246.0124H533.81345V207.63986H519.43911V246.0124H506.04018Z" fill="#144c29"/><path d="M559.6359,160.74175h16.81288l13.03035,51.04177h.24572V160.74175h11.9358V246.0124H587.89687l-16.07945-62.24787h-.242V246.0124H559.6359Z" fill="#144c29"/><path d="M614.08416,160.74175h13.39893V246.0124H614.08416Z" fill="#144c29"/><path d="M668.16758,245.77041a24.636,24.636,0,0,1-8.89042,1.4594q-9.8677,0-15.10777-5.60306-5.23819-5.60118-5.2382-15.83746V180.96487q0-10.23628,5.2382-15.83747t15.10777-5.603q9.86211,0,15.104,5.603,5.23261,5.60677,5.2382,15.83747v44.82442q0,8.52743-3.7788,14.00949a3.40726,3.40726,0,0,0,1.828,1.58226,10.47336,10.47336,0,0,0,3.16824.36857h2.07v12.18152h-3.53309Q670.23755,253.93113,668.16758,245.77041Zm-1.9471-19.12857V180.11231q0-8.40457-6.94332-8.40644-6.947,0-6.94332,8.40644v46.52953q0,8.40459,6.94332,8.40644Q666.21862,235.04828,666.22048,226.64184Z" fill="#144c29"/><path d="M695.69886,241.68632q-5.12092-5.53975-5.11907-15.897V160.74175h13.39893v66.023q0,4.38378,1.76841,6.33648a7.53738,7.53738,0,0,0,10.11155,0q1.76469-1.949,1.76469-6.33648v-66.023h12.91122v65.04754q0,10.35914-5.11535,15.897-5.11534,5.54535-14.862,5.54349Q700.81235,247.22981,695.69886,241.68632Z" fill="#144c29"/><path d="M742.47411,160.74175h36.54457v12.18152H755.873v22.53507h18.39142v12.18152H755.873v26.191h23.14564V246.0124H742.47411Z" fill="#144c29"/><path d="M792.049,241.68632q-4.99807-5.53975-4.99249-15.897v-4.86963h12.66551v5.845q0,8.28731,6.94332,8.28358a6.53024,6.53024,0,0,0,5.17863-2.01039q1.76469-2.0104,1.76468-6.51518a18.07318,18.07318,0,0,0-2.43481-9.44142q-2.44039-4.08223-9.01328-9.80628-8.2873-7.31-11.57468-13.2165a26.949,26.949,0,0,1-3.28737-13.33936q0-10.10782,5.11534-15.65132,5.11535-5.54535,14.86205-5.54348,9.622,0,14.55677,5.54348,4.93106,5.54535,4.93292,15.897V184.498H814.09639v-4.38564q0-4.38938-1.70511-6.396a6.18247,6.18247,0,0,0-4.99249-2.0104q-6.70132,0-6.70133,8.16072a16.10381,16.10381,0,0,0,2.49811,8.64844q2.49624,4.02079,9.07285,9.7467,8.41015,7.31,11.57468,13.27607a29.4781,29.4781,0,0,1,3.16824,14.00949q0,10.47641-5.17864,16.07946-5.17677,5.6012-15.04448,5.60306Q797.04338,247.22981,792.049,241.68632Z" fill="#144c29"/><path d="M122.97842,64.4426s-2.41154-11.94078,7.80879-13.5482,14.81374,5.39632,13.78023,14.35191c1.83736-.34445.91868,5.39631-.80385,7.5778L146.29,74.43153s8.61264,2.18149,13.206,4.47779,10.79451,5.2815,12.97638,8.2667c5.16759,3.1,16.88078,8.49633,20.211,12.51486s1.72252,5.16668,1.72252,8.2667-9.18681,23.53712-8.15329,26.06305,2.18186,3.44446,2.2967,5.74076.80385,7.463,2.87088,9.7593-1.14835,1.37778-1.14835,1.37778,1.378,1.83705.689,2.06668a6.571,6.571,0,0,1-2.18187,0,2.54421,2.54421,0,0,1-2.64121.68889c-.57418,1.03333-2.18187,2.28354-4.13407.10843s-5.51209-11.70477-3.55989-19.627,4.36374-19.51859,3.78956-23.30749c-4.01923-3.44446-12.05769-5.74077-12.05769-5.74077s-.689,5.62595.80384,9.7593.80385,20.3223.11484,28.35936-6.2011,24.226-6.2011,24.226,2.98571-.22964,2.64121,3.32964-1.6077,7.92225-.34451,14.12227-3.10055,15.15561-7.80879,14.58153-5.51209-8.38151-5.51209-8.38151-7.57912,11.826-14.81374,10.33337-9.18682-9.0704-5.28242-17.22228,6.2011-20.20748,6.2011-20.20748-3.42763,2.61071-6.93194,4.9291a57.7022,57.7022,0,0,0-10.50108,8.95743c-3.51775,3.80212-7.60105,7.69873-7.60105,7.69873a12.191,12.191,0,0,1-.57418,9.18522c-2.2967,5.16669-7.57912,20.43711-6.77528,24.45564a66.2121,66.2121,0,0,1,1.18776,7.20055,4.29333,4.29333,0,0,1-3.74359,4.5802l0,0a4.25247,4.25247,0,0,1-3.16007-.852,7.72722,7.72722,0,0,0-6.916-1.28432c-5.28242,1.37779-15.28768-5.34088-11.52844-7.12462,5.35129-2.53915,15.08833-1.71615,15.89218-6.768s1.60769-24.226,2.87088-29.27788.91868-6.65929,3.55989-10.21856,8.383-25.41744,14.23956-31.53841,4.82308-6.92469,8.26814-9.90989c1.60769-8.26669,3.9044-10.10374,5.16758-12.4s-.91868-13.5482-7.46429-17.3371c-.80384,5.51113-4.47857,12.8593-4.47857,12.8593s1.14835,3.44446-2.98571,7.92225S105.868,136.31694,106.557,138.38361a5.659,5.659,0,0,1-1.83737,5.54691c-1.14835.76793-1.72253,3.86794-2.756,4.78646s-1.72253-1.03333-1.14835-3.55927c0,0-3.981,1.91359-3.86612,2.94692a2.6809,2.6809,0,0,1-1.11008,2.29631c.99524,1.45433,1.53114,3.21483-.38278,2.79384-.03828,1.79877-1.22491,3.06174-1.76081.91852s-.11483-7.50126-.38278-9.18522,1.72253-3.40619,2.44982-4.363,5.74176-5.5494,6.43077-6.621,4.74652-14.00746,8.42125-18.10254c2.067-6.621,4.44029-15.8445,4.70824-17.68154s-.76557-10.0272,3.21539-14.84944,6.96666-6.08521,8.00018-6.46792l-1.18663-3.86545S119.15058,66.35619,122.97842,64.4426Z" fill="#144c29"/><circle cx="160.18502" cy="225.87282" r="12.63187" fill="#144c29"/><path d="M183.37393,8.87166l-7.2802,27.20612H108.57216c-24.67177,0-35.21008,11.74963-39.09734,26.285L65.52014,77.12286H109.426l-6.92068,25.81324H58.59946L42.0842,164.515H14.87335L42.19655,62.58746c8.33628-31.13764,30.53638-53.7158,71.83576-53.7158Z" fill="#144c29"/><polygon points="187.45 260.431 214.896 260.431 247.237 139.753 292.674 139.753 299.966 112.542 204.858 112.542 197.566 139.753 219.791 139.753 187.45 260.431" fill="#144c29"/></svg>