<?xml version="1.0" encoding="UTF-8"?>
<svg version="1.1" viewBox="0 0 2048 1222" width="920" height="549" xmlns="http://www.w3.org/2000/svg">
<path transform="translate(752)" d="m0 0h14v2h59l4 1 35 3 28 3 2 1 11 1 2 1 13 2 22 5 10 2 19 5 18 6 29 12 22 11 16 10 14 10 10 8 9 8 8 7 8 9 11 14 10 14 9 17 7 21 2 8 2 1 2-6 9-16 11-16 10-13 9-11 34-34 9-7 12-10 19-13 19-12 22-11 22-9 17-5 8-3 12-3 16-3 1-1 22-3 34-4 38-1 4-1 2 1 6-1h8l1 1 53 1 4 1 24 2 28 4 30 7 20 6 29 12 19 10 10 6 20 13 16 12 13 11 14 11 15 15 9 11 11 13 7 9 16 24 9 16 7 14 9 21 5 16v6l-40 10-14 4-64 16-27 7-36 9-10 3h-5l-4-13-6-18-9-20-8-14-4-5-7-8-9-9-20-12-16-7-23-7-20-4-17-2h-60l-28 4-23 6-16 7-11 7-16 16-5 11-2 6-1 13-1 2v13l1 2 2 13 10 19 8 8 14 9 19 9 21 7 27 6 30 4 3 1 17 1 2 1 18 1 4 1 24 2 17 2 24 5 38 8 56 14 21 6 21 7 12 5 18 8 21 11 12 8 13 10 13 11 9 9 9 11 10 14 10 16 10 17 6 12 6 15 7 21 4 19 3 23 1 23v4l1 3v16l-1 7-1 19-5 29-5 19-8 23-8 18-12 24-15 22-6 8-8 10-9 10-12 13-13 12-13 11-14 10-25 15-17 8-25 10-21 7-25 7-48 9-33 4-29 2-1 1h-119l-40-4-32-5-27-6-43-14-17-7-19-10-16-9-11-7-17-12-18-14-11-9-11-11-2-1 1 17 1 3 1 12 2 10 3 17 4 16 5 16 1 2-49 2-7 1-121 1-2 1h-81l-4-10-3-11-2-21-2-40-1-9-1-36-1-2-1-11-9 10-6 8-9 11-5 6-7 8-6 6-3 5-28 28-8 6-7 6-14 10-12 8-15 9-21 10-25 9-24 6-32 5-17 2h-84l-35-6-26-7-20-7-20-9-23-13-15-10-8-6-13-11-8-7-19-19-1 95h-267v-918l1-1h266v182h2l3-10 11-22 14-22 10-13 10-12 7-8 13-13 20-15 11-7 18-11 14-8 38-19 13-5 9-4 10-4 13-4 8-3 13-3 14-4 15-3 11-3 26-4 28-3 33-1zm-5 178-2 1-16 1-20 4-17 5-18 8-14 9-10 8-6 7-10 15-5 11-5 14-6 20-8 24-16-1-5-1-49-3-27-2-23-1-5-1-25-1-5-1-68-4v240l3-1 7-11 9-11 7-8 19-19 18-14 11-8 11-7 14-8 30-15 16-6 18-7 21-7 21-6 27-6 24-5 25-4 3-1 26-3 45-6 14-1 3-1 59-6 4-1 14-1 2-1 17-1 4-1 36-3 2-1v-67l-1-4-2-18-4-17-6-16-9-17-4-5-7-8-7-7-15-9-14-6-14-4-27-4zm410 265v26l1 52 1 6v3l1 134 14-1 3-1 11-1 13-2 34-5 3-1 11-1 2-1 16-2 30-4 16-2 1 7 6 17 9 16 8 12 9 9 7 8 13 12 5 4 11 8 16 10 11 5 16 6 17 4 11 2 34 3h23l19-2 17-1 15-2 2-1 11-1 13-3 21-6 13-6 12-7 14-10 7-8 7-14 2-7 2-14v-14l-3-14-4-12-7-10-8-9-8-6-14-7-18-5-36-6-69-10-68-12-48-10-48-12-26-8-15-5-26-10-16-7-16-9-10-7-8-6-10-8-16-15-8-8-7-8-10-13-7-10zm-267 49-21 2-44 7-30 7-22 6-31 10-24 9-11 5-18 9-15 9-12 9-20 20-4 6-8 13-7 17-2 7-1 8-1 1v45l4 18 7 18 6 11 7 9 16 16 18 11 14 5 7 2 12 1 3 1h28l2-1 17-1 2-1 9-1 20-6 17-8 16-12 12-11 14-15 11-14 8-13 8-16 6-16 5-17 5-28 2-18 1-41 1-7v-56z" fill="#029CDD"/>
<path transform="translate(1888,1122)" d="m0 0h9l9 3 6 5 1-4 1-2h18v65l-2 12-6 11-11 6-8 2h-20l-11-2-4-3v-13l6 1 7 2h19l6-3 3-6v-13l-2 4-9 6-8 2-6-1-8-2-6-4-4-4-3-7-2-7v-22l4-9 6-9 9-6zm7 13-6 4-5 10-1 5v9l3 10 4 4 4 1 9-1 8-7 1-2v-26l-6-5-4-2z" fill="#059DDD"/>
<path transform="translate(732,1122)" d="m0 0h9l10 4 6 4v-6h18v69l-3 12-7 8-8 5-7 2h-9v2h-2v-2h-9l-16-3-2-5 3-10 11 2 2 1h17l6-3 3-4 1-9-2-4-8 8-7 1-1 1h-7l-10-4-8-8-4-9-2-12v-7l3-12 5-9 10-10 7-1zm8 13-8 5-4 8v20l4 8 1 1 8 1 8-2 7-8-1-10v-17l-5-4-5-2z" fill="#059DDD"/>
<path transform="translate(1273,1093)" d="m0 0h18v100l-2 2h-18l-1-10-4 6-7 4h-19l-6-4-7-7-4-13-1-5v-14l5-14 7-9 5-4 10-3h8l9 4 5 3v-34zm-19 42-7 7-3 7v21l3 6 6 4h7l8-5 3-3v-30l-6-5-5-2z" fill="#029CDD"/>
<path transform="translate(1571,1093)" d="m0 0h18v102h-18l-3-9-6 7-4 2h-20l-8-6-6-10-2-6-2-14 4-16 4-8 7-8 4-3 8-2h9l12 6 1-32zm-18 42-8 7-2 7-1 16 3 10 6 5h7l9-5 2-3v-30l-6-5-4-2z" fill="#049DDD"/>
<path transform="translate(602,1099)" d="m0 0h11l4 8 16 41 10 26 7 18v3h-20l-2-2-6-17-3-6h-36l-6 13-5 12h-14l1-8 5-11 3-9 12-31 14-35 1-1zm-3 25-6 15-6 16v1l13 1h14l-1-6-10-26z" fill="#069DDD"/>
<path transform="translate(1441,1097)" d="m0 0h16l8 2 7 2v15l-11-2-9-2h-7l-7 3-2 6 2 6 6 5 14 8 11 7 1 3 3 1 5 7v19l-7 11-7 5-5 2-10 2h-16l-15-2-3-3v-15l12 3 2 1h21l5-5 2-6-3-6-7-6-13-7-8-6-5-3-5-9-2-9 3-12 6-8 10-5z" fill="#059DDD"/>
<path transform="translate(1135,1122)" d="m0 0h11l11 2 6 4 10 10 4 12v19l-5 12-7 8-5 3-7 3h-24l-9-4-6-5-6-9-2-4-2-10v-9l3-10 5-9 4-5h2v-2l9-4zm2 13-8 7-3 8v19l4 9 4 4 9 2 6-3 4-4 2-4 2-10v-7l-3-11-4-7-5-3z" fill="#059DDD"/>
<path transform="translate(906,1122)" d="m0 0 7 1 10 5 3 4v5h2v56l-2 2h-16l-2-2-1-51-3-3-9 1-5 2-2 4-3 5-1 44h-18l-2-2v-67l2-2h18l1 10 9-8 8-3z" fill="#049CDD"/>
<path transform="translate(321,1124)" d="m0 0h19l1 1v46l2 7 2 1h7l8-5 4-6 1-44h20v69l-2 2h-18v-11h-2l-1 3-9 6-4 2h-17l-9-9-3-11v-47z" fill="#079EDD"/>
<path transform="translate(474,1122)" d="m0 0h13l10 3 6 4 8 8 5 12v22l-3 7-6 8-9 7-5 2h-26l-8-4-10-10-4-10-2-10v-7l4-13 7-10 10-6zm2 13-8 7-3 8v19l5 10 3 3 7 2 8-3 4-5 4-11v-11l-3-11-4-6-4-2z" fill="#049CDD"/>
<path transform="translate(1069,1122)" d="m0 0h8l9 4 7 8v61h-18l-1-48-3-7-7-1-7 4-5 5-1 42-2 5h-18v-71h19l1 4 1 5 5-5 6-4z" fill="#059DDD"/>
<path transform="translate(78,1122)" d="m0 0h8l10 5 4 5 2 3v59l-2 1h-16l-2-3-1-50-3-3-9 1-8 7-2 5-1 43h-18v-71h18v11l8-7 6-4z" fill="#039CDD"/>
<path transform="translate(1734,1124)" d="m0 0h18l1 48 3 6 2 1h7l8-6 2-3 1-45 1-1h19v71h-18l-2-5-1-5-7 7-7 3h-15l-8-5-4-7z" fill="#039CDD"/>
<path transform="translate(2006,1122)" d="m0 0h13l1 1 9 2 8 6 2 3 1 45 5 3 3 2v11h-20l-6-6-4 2-6 4h-19l-8-5-4-7v-15l4-7h2l1-3 10-5 6-2h17l-1-11-4-4h-15l-12 4h-3v-12l9-4zm8 40-11 4-4 5 1 7 4 4h9l8-5v-15z" fill="#049DDD"/>
<path transform="translate(815,1122)" d="m0 0h13l7 3 8 6 5 10 2 6v17h-42l3 9 4 5 5 3h18l1-1 11-2v15l-8 1-1 1h-30l-11-6-7-7-5-12-1-15 2-10 6-12 8-7 4-2zm1 13-5 4-3 7v6h22v-10l-4-5-3-2z" fill="#069DDD"/>
<path transform="translate(1331,1122)" d="m0 0h11l9 3 8 6 5 9 3 12v12h-43l3 9 4 5 6 3h16l14-3v14l-1 1-7 1-1 1h-29l-10-4-8-7-7-14-1-14 2-12 5-9 9-9 4-2 7-1zm1 13-6 7-2 5v5h23v-8l-3-6-3-3z" fill="#069DDD"/>
<path transform="translate(1629,1122)" d="m0 0h12l1 1 7 1 9 7 5 10 2 6v17h-43l6 12 7 5h18l1-1 11-1v12l-3 2-6 2h-29l-10-4-9-9-5-12-1-6v-9l1-9 5-10 7-8 7-4zm2 13-5 4-3 6v7h22v-11l-4-5-2-1z" fill="#059DDD"/>
<path transform="translate(140,1122)" d="m0 0h13l14 2v15l-11-2-1-1h-12l-4 2v7l5 3 19 8 7 6 4 10-1 6-3 7-8 7-7 3h-28l-1-1-8-1v-15l11 2 1 1 9 2h5l6-2 3-6-4-5-15-6-9-5-5-5-2-6v-10l5-8 9-6 7-1z" fill="#059DDD"/>
<path transform="translate(196,1111)" d="m0 0h13v13h13l1 1v12h-14l1 41 3 3 12 1v13h-25l-8-8-3-6v-44h-7l-2-3v-6l3-4h6v-11z" fill="#039CDD"/>
<path transform="translate(952,1111)" d="m0 0h14v13h13l1 1v12h-14l1 42 3 2 11 1 1 1v11l-1 1h-22l-9-6-4-8v-44h-7l-2-2v-8l3-3h6v-11z" fill="#049CDD"/>
<path transform="translate(280,1111)" d="m0 0h14v13h15v12l-1 1h-14l1 38 4 6 11 1v12l-1 1h-20l-7-3-6-7-2-8-1-39-6-1v-12l1-1h6v-11z" fill="#029CDD"/>
<path transform="translate(407,1111)" d="m0 0h16v13h15l1 2-1 10-1 1h-14l1 40 2 4 12 1 1 12-1 1h-22l-8-6-5-8-1-43-6-1v-13h7v-11z" fill="#039CDD"/>
<path transform="translate(2,1100)" d="m0 0h19l1 1v92l-2 2h-18l-1-1v-93z" fill="#099EDD"/>
<path transform="translate(1852,1122)" d="m0 0h5l2 2v15l-2 1h-11l-6 4-5 5-1 44-2 2h-16l-2-2v-69h20v9l9-7z" fill="#029CDD"/>
<path transform="translate(1716,1122)" d="m0 0h7l2 1v16l-3 1h-9l-10 5-3 4-1 45-1 1h-18v-71h18l1 1v9l5-5 7-5z" fill="#079DDD"/>
<path transform="translate(695,1122)" d="m0 0h8v18h-12l-8 4-3 3-2 5-1 43h-18v-71h18v9l5-3 9-6z" fill="#039CDD"/>
<path transform="translate(993,1124)" d="m0 0h20v71h-19l-1-1z" fill="#029CDD"/>
<path transform="translate(1950,1124)" d="m0 0h18l2 2v67l-2 2h-18z" fill="#029CDD"/>
<path transform="translate(1489,1124)" d="m0 0h20v69l-2 2h-16l-2-2z" fill="#029CDD"/>
<path transform="translate(236,1124)" d="m0 0h20v69l-2 2h-16l-2-2z" fill="#029CDD"/>
<path transform="translate(1950,1097)" d="m0 0h20v15l-1 1h-19z" fill="#039CDD"/>
<path transform="translate(1490,1097)" d="m0 0h19v16h-20v-15z" fill="#049CDD"/>
<path transform="translate(236,1097)" d="m0 0h20v15l-1 1h-19z" fill="#039CDD"/>
<path transform="translate(993,1097)" d="m0 0h19l1 1v14l-1 1h-19z" fill="#029CDD"/>
</svg>
