<?xml version="1.0" encoding="UTF-8"?>
<svg version="1.1" viewBox="0 0 2048 476" width="576" height="134" xmlns="http://www.w3.org/2000/svg">
<path transform="translate(10,25)" d="m0 0h50l1 3h68l3 3h2l1-2 4 1v2l4-4h33l4 3 4-2 1 3 3-1 1-3h13l3 3 1-3 35-1 5-1 16 1h11l1-1 7-1h20l2 2 9 2 1-1h17l5-1 1 2 2-3h11l7-1 3 2v2l4-1 9 7 4 2-2 5v3l6 2-1 4-5 3v34h2v8l-1 1v5l1 1v6l-1 1-1 12v161l2 2 1 12-3 1v4l3 1-1 6h-2l1 3 2 1-5 10-8 8-3 7-3 6-1 1v9l-3 7-1 1-7 1-1 2 4 2-1 2-8 1h-2l1 2h5v4h-8l-5 1 3 3v3l-6 5-3 3-1 3 3 1-5 6-8 1v2l3 3-1 4h-15l-4 4-6 3-3 4-1 5-5-4-2 6-4 4-5 2-2 5-15 2-4 3-2 6h-2l-1-2-3-1v2l-7 5-1-1v-6h-2v8l-9 5-4 4-10 4h-30l-8-1-1-6h-5l-3 3-7-6-6-2-1-5-2 3-10-5-10-9-5-4-4-1h-7l1-3 2-1-7-2-6-3-1-4h-3v3l-4-2-7-2v-6h-3v3l-4-1-8-5-1-3 5-2-1-2-5-1v3h-4l-1-5-6-3-5-5-5-2-3-6-10-10-1-3 6-2v-2l-10-1-1-3 4-1v-2l-5 2-3 1-3-2-2-9-1-1-1-11-4-5-6-2-1-13-2-4v-6l1-3-4-1 1-7-2-3 2-2-1-9 1-3-2-1 1-4 1-3-2-1 1-4h2l-1-4-2-1v-4h3l-1-11-1-3h2l-1-15v-3l1-14h-2l1-3 1-48v-90l1-47h3v2h3z" fill="#0C5382"/>
<path transform="translate(204,125)" d="m0 0h137v172l-6 21-10 19-13 16-5 3 1-6 8-20 2-9v-8l-3-9-6-7-9-6-7-2h-15l-10 3-9 6-3 5-1 9-1 1v7l4 11 5 5 12 3 12-1 2-5 3-6v-8l-4-6-7-3-3-1v-3l3-1h10l8 7 2 5v19l-4 8-8 10-5 5-12 11-21 14-17 10-18 8-10 3-2-1-1-5v-273z" fill="#0C5382"/>
<path transform="translate(189,114)" d="m0 0h166l1 1-1 190-4 13-8 15-6 11-9 13-7 9-11 12-13 12-19 14-17 11-17 10-22 11-25 11-7 1-1-2zm15 11-1 2v272l2 6 8-2 15-6 20-11 21-14 10-9 9-7 6-8 6-9 1-3v-19l-3-6-7-6h-10l-3 1v3l9 3 4 5 1 2v8l-4 8-1 3-12 1-12-3-5-5-4-11v-7l1-1 1-9 5-7 10-5 7-2h15l11 4 9 8 4 8 1 4v8l-3 12-8 20 1 3 7-6 10-13 10-19 6-21v-172z" fill="#FCFEFE"/>
<path transform="translate(157,236)" d="m0 0h11l1 1v188l-2 1-12-5-20-9-20-11-14-10-14-12-25-25-10-14-1-4 22-1 1-24 1-1 25-1 2-1 1-23 2-1h21l4-1 1-23 1-1 24-1z" fill="#FCFEFE"/>
<path transform="translate(10,25)" d="m0 0h50l1 3h68l3 3h2l1-2 4 1v2l4-4h33l4 3 4-2 1 3 3-1 1-3h13l3 3 1-3 35-1 5-1 16 1h11l1-1 7-1h20l2 2 9 2 1-1h17l5-1 1 2 2-3h11l7-1 3 2v2l4-1 9 7 4 2-2 5v3l6 2-1 4-5 3v34h2v8l-1 1v5l1 1v6l-1 1-1 12v161l2 2 1 12-3 1v4l3 1-1 6h-2l1 3 2 1-5 10-8 8-3 7-3 6-1 1v9l-3 7-1 1-7 1-1 2 4 2-1 2-8 1h-2l1 2h5v4h-8l-5 1 3 3v3l-6 5-3 3-1 3 3 1-5 6-8 1v2l3 3-1 4h-15l-4 4-6 3-3 4-1 5-5-4-2 6-4 4-5 2-2 5-15 2-4 3-2 6h-2l-1-2-3-1v2l-7 5-1-1v-6h-2v8l-9 5-4 4-10 4h-30l-8-1-1-6h-5l-3 3-7-6-6-2-1-5-2 3-10-5-10-9-5-4-4-1h-7l1-3 2-1-7-2-6-3-1-4h-3v3l-4-2-7-2v-6h-3v3l-4-1-8-5-1-3 5-2-1-2-5-1v3h-4l-1-5-6-3-5-5-5-2-3-6-10-10-1-3 6-2v-2l-10-1-1-3 4-1v-2l-5 2-3 1-3-2-2-9-1-1-1-11-4-5-6-2-1-13-2-4v-6l1-3-4-1 1-7-2-3 2-2-1-9 1-3-2-1 1-4 1-3-2-1 1-4h2l-1-4-2-1v-4h3l-1-11-1-3h2l-1-15v-3l1-14h-2l1-3 1-48v-90l1-47h3v2h3zm0 9-1 1-1 170v76l1 28 7 20 9 17 8 11 10 13 10 11 6 7 11 9 15 13 15 10 13 8 6 4 9 5 16 8 18 8 20 8h12l16-6 16-7 16-8 22-12 17-10 13-11 11-8 12-11 16-16 8-11 9-12 9-17 6-15 2-12v-270l-1-1z" fill="#FAFDFD"/>
<path transform="translate(141,184)" d="m0 0h27l1 1v39l-1 1-22 1v21l-1 1-24 1v23l-1 1-7 1h-21v24l-1 1-28 1v24l-4 1h-15l-3-3-5-12-4-11v-12h24v-23l1-2 28-1v-24l1-1 24-1 1-24 1-1h28v-25z" fill="#FCFEFE"/>
<path transform="translate(138,128)" d="m0 0h30l1 1v24l-1 1h-10v19l-1 1h-28v25l-28 1v24l-1 1-25 1v24l-1 1h-28v25h-13l-1-1v-45h22l-1-27 1-1 25-1v-18l1-4h28v-23l2-6h17l10 1v-22z" fill="#FCFEFE"/>
<path transform="translate(510,48)" d="m0 0 15 1v85l-1 1h-14l-5-5-9-14-15-24-7-11-1 53-1 1h-11l-4-1v-85h17l4 5 18 30 12 19 1-54z" fill="#0C5382"/>
<path transform="translate(456,203)" d="m0 0h17l17 28 13 21 2 3 1-52h15v80l-1 1h-14l-5-5-11-18-14-22-3-5-1 49-1 1h-13l-2-2z" fill="#0E5483"/>
<path transform="translate(1633,47)" d="m0 0h13l12 3 8 6 4 7 2 5v5l-8 1h-9l-5-9-7-3h-8l-8 3-2 3 1 6 8 4 24 7 9 6 5 6 2 5v15l-6 10-8 6-11 3h-19l-10-3-7-5-6-9-3-9v-3l17-2 6 12 6 3 4 1h7l8-3 4-5v-7l-5-4-24-7-12-6-6-9-2-7 1-9 5-8 8-6z" fill="#0D5382"/>
<path transform="translate(1845,49)" d="m0 0h16l1 1v83l-2 2h-11l-3-1 1-7-12 8-3 1h-12l-10-6-7-10-3-12v-10l3-12 6-8 5-4 8-3h9l8 3 5 4zm-19 35-6 5-3 9v12l4 9 6 4h8l7-6 3-7v-13l-3-8-6-5z" fill="#0E5483"/>
<path transform="translate(594,225)" d="m0 0h15l2 3 6 23 3 10 2-5 7-28 2-3h14l3 7 6 26 2 3 7-25 3-10 1-1h15l-3 11-12 38-5 10h-11l-3-1-7-24-2-10h-2l-2 11-7 23-1 1h-12l-3-2-15-46z" fill="#0D5382"/>
<path transform="translate(74,128)" d="m0 0h51l1 1v9l-1 1-27 1v28h-29v22l-2 1h-24v28h-11v-46h16v-25h26z" fill="#FCFEFE"/>
<path transform="translate(721,203)" d="m0 0h59v13l-13 16-11 14-11 13-8 10 44 1 1 1v12l-1 1h-64l-2-3 1-12 7-9 26-32 8-10v-1l-37-1z" fill="#0C5382"/>
<path transform="translate(1127,203)" d="m0 0h16v80l-1 1h-12l-2-1 2-6-7 4-8 4h-11l-10-6-7-11-2-9v-10l2-9 5-8 7-6 7-2h8l8 3 4 3zm-17 33-6 5-3 7v12l3 8 6 5h8l7-6 2-5v-16l-4-7-4-3z" fill="#0C5382"/>
<path transform="translate(850,71)" d="m0 0h16l8 2 7 5 3 6 1 39 2 11-1 1h-14l-2-6-11 6-4 1h-12l-6-3-6-7-2-5v-8l4-7 5-4 8-3 21-5-1-8-2-1h-12l-5 4-3 3-12-3-1-3 6-9 6-4zm12 35-12 3-4 3v8l4 4h9l6-4 3-4v-10z" fill="#0D5382"/>
<path transform="translate(1485,71)" d="m0 0h12l10 3 8 6 6 9 3 12-1 12-5 10-4 5-9 6-8 2h-13l-11-4-7-6-5-8-2-7v-15l4-10 6-8 12-6zm3 13-6 3-4 5-2 6v12l4 8 5 4 9 1 6-3 5-6 2-10-1-9-4-6-5-4z" fill="#0D5482"/>
<path transform="translate(563,71)" d="m0 0h16l9 3 5 4 3 6 1 39 2 12h-15l-2-6-11 6-4 1h-12l-6-3-6-7-2-5v-8l4-7 5-4 8-3 21-5-1-8-9-2-7 2-5 6-13-3-1-2 4-8 8-6zm10 35-13 4-2 2v8l4 4h9l5-3 4-5v-10z" fill="#0C5382"/>
<path transform="translate(707,71)" d="m0 0h11l10 3 6 4 7 8 4 12v10l-3 11-7 9-9 6-7 2h-14l-11-4-5-4-6-9-3-11v-10l4-12 8-9 10-5zm2 13-7 4-4 7-1 5v9l4 9 3 3 6 2 8-1 6-4 3-6 1-5v-8l-3-8-4-5-6-2z" fill="#0D5482"/>
<path transform="translate(1929,71)" d="m0 0h11l10 3 7 6 6 12 2 15-1 1-41 1 3 9 4 4 3 1h7l5-5 2-3 16 2-1 5-6 8-6 4-7 2h-14l-9-3-8-7-4-8-2-9v-12l3-11 7-9 9-5zm6 12-7 3-3 3-2 5v4l5 1 20-1-1-7-6-7z" fill="#0C5382"/>
<path transform="translate(1382,71)" d="m0 0h10l10 3 8 7 5 10 2 8v9h-42l3 9 5 5 2 1h7l4-2 3-6 10 1 6 1-1 6-8 9-6 3-5 1h-14l-9-3-7-6-5-10-2-11 1-12 5-12 7-7zm5 12-7 3-4 6v6h24l1-3-4-8-4-3z" fill="#0C5382"/>
<path transform="translate(790,71)" d="m0 0h10l8 3 6 7 2 7v46l-1 1h-14l-2-1-1-42-3-6-1-1h-11l-5 5-2 8-1 36-3 1-14-1v-61l1-1h14l1 1v7l8-6z" fill="#0D5482"/>
<path transform="translate(1729,72)" d="m0 0h15l2 1 1 44 2 4 5 2 8-1 5-5 1-3 1-40 1-2h15l1 1v61l-1 1h-13l-2-7-3 1-5 5-8 2h-10l-8-4-5-6-2-8z" fill="#0D5382"/>
<path transform="translate(1028,71)" d="m0 0h10l8 3 6 6 2 7v47l-1 1h-14l-2-1-1-43-3-5-1-1h-11l-5 6-1 2-2 41-4 1-12-1v-62h14l1 1v7l10-7z" fill="#0E5483"/>
<path transform="translate(1250,72)" d="m0 0 16 1 1 44 2 4 9 2 7-3 3-6 1-41 4-1h12l1 1v61l-1 1h-13l-2-7-3 1-5 5-8 2h-9l-8-3-6-7-2-8v-45z" fill="#0D5382"/>
<path transform="translate(1993,71)" d="m0 0h16l10 3 7 6 2 4v4l-11 2-5-1-1-4-4-1h-13l-3 2v4l8 3 21 6 6 4 4 5 1 3v8l-4 8-7 6-10 3h-16l-11-4-6-5-4-6v-4l13-3 4 2 3 5 4 2h12l5-4-1-4-13-4-16-5-6-5-3-6v-10l5-8 6-4z" fill="#0D5382"/>
<path transform="translate(1087,71)" d="m0 0h16l9 3 8 7 2 4v3l-11 2h-5l-3-5-2-1h-13l-4 2 1 4 7 3 21 6 6 4 4 4 1 3v11l-4 6-7 6-9 3h-17l-11-4-7-7-3-7 4-2 11-2 3 3 2 4 5 2h11l5-4-1-4-16-5-12-4-8-7-2-5v-8l3-6 7-6z" fill="#0C5382"/>
<path transform="translate(874,224)" d="m0 0h15l9 3 5 4 2 4 1 11 1 31 1 7h-14l-2-2v-4l-7 5-7 2h-11l-8-4-5-8v-10l4-7 6-4 16-4 10-2-2-8-1-1h-12l-4 3-2 4-6-2-7-1 1-6 6-7 6-3zm10 33-11 3-4 4 1 6 4 4h7l6-3 3-4 1-10z" fill="#0C5382"/>
<path transform="translate(970,224)" d="m0 0h16l7 2 6 5 2 4 1 12 1 30 1 7h-14l-2-3v-3l-9 6-5 1h-11l-7-3-4-5-2-4v-10l4-7 6-4 24-6h2l-2-8-1-1h-12l-4 3-2 4-6-2-7-1 1-6 6-7 6-3zm10 33-11 3-4 3 1 7 4 4h7l6-3 3-4 1-10z" fill="#0C5382"/>
<path transform="translate(811,224)" d="m0 0h11l9 3 7 6 4 8 2 7 1 10-1 1h-39l4 10 3 3 9 1 4-1 2-6h9l7 1-1 5-5 7-6 4-7 2h-13l-9-3-6-5-5-9-2-9v-9l2-9 5-8 7-6zm2 12-5 4-3 7 1 2 4 1 19-1-1-6-5-6-2-1z" fill="#0D5382"/>
<path transform="translate(555,224)" d="m0 0h10l8 2 6 4 4 5 4 9 2 10v4l-2 1h-38l3 9 4 4 8 1 5-3 2-4h9l7 1-1 5-9 10-9 3h-14l-8-3-6-5-6-12-1-7v-8l2-9 5-8 8-7zm2 12-6 5-2 8 5 1h9l10-1-1-6-5-6-2-1z" fill="#0C5382"/>
<path transform="translate(1047,224)" d="m0 0h10l7 3 5 5 2 5 1 10v20l-1 16-1 1h-13l-1-1-1-38-3-7-2-1h-8l-5 3-3 9-1 35h-14l-1-1v-58h14l1 7 8-6z" fill="#0C5382"/>
<path transform="translate(1553,47)" d="m0 0h10l8 1 1 5-2 7h-13l-1 12h11l2 1-1 11-1 1h-11v49l-2 1h-14l-1-1v-49h-8l-1-1v-11l1-1h8l1-15 6-7z" fill="#0C5382"/>
<path transform="translate(1154,51)" d="m0 0h3v21h10l1 1v11l-1 1h-10l1 36 11 1v12l-7 2h-12l-6-4-3-4-1-3v-40h-7l-1-8 1-5h7v-12l9-6z" fill="#0D5482"/>
<path transform="translate(1705,51)" d="m0 0h3v21h10l1 1v11l-1 1h-10l1 36 10 1 1 1v10l-2 2-4 1h-12l-6-3-4-5-1-4v-39h-7l-1-5 1-8h7v-12z" fill="#0C5382"/>
<path transform="translate(1225,51)" d="m0 0h3v21h9l2 1v11l-1 1h-10l1 36 10 1 1 1v10l-2 2-4 1h-13l-6-4-3-4-1-4v-39h-7v-12l1-1h6v-12z" fill="#0C5382"/>
<path transform="translate(1340,50)" d="m0 0h1l1 12v10h9l2 1v12l-11 1v27l1 8 10 1 1 2v9l-6 3h-13l-5-3-4-4-1-4v-40h-7l-1-1v-11l1-1h7v-12l9-6z" fill="#0D5483"/>
<path transform="translate(628,51)" d="m0 0h2v21h11l1 1v11l-1 1-10 1v36h11l1 1v10l-1 2-5 1h-13l-5-3-4-4-1-3-1-40-7-1v-12l1-1h7v-12l9-6z" fill="#0C5382"/>
<path transform="translate(965,48)" d="m0 0 17 1v85l-4 1h-12l-2-1v-85z" fill="#135885"/>
<path transform="translate(47,51)" d="m0 0h15l5 5 8 11 7 8v-15l-5-6 1-3h15l2 1-1 5-4 2-1 42-2 2-4-1-6-9-8-9-7-9-3-3-1 4v15l2 4 4 3-1 5h-17v-7l5-1-1-35-5-5v-3z" fill="#FCFEFE"/>
<path transform="translate(121,51)" d="m0 0h36l1 5-8 16-8 13-5 8-1 3 14-3 6-10 4-1 1 4v16l-4 1h-39l-2-3 7-14 11-17 7-11-7 1-6 4-4 6-3-1-1-2v-14z" fill="#FCFEFE"/>
<path transform="translate(188,51)" d="m0 0h13l6 8 8 11 4 4 1-11-2-6-3-1-1-4 3-1h13l2 5-4 3-1 42-5 1-9-11-9-10-7-9h-1v21l5 6v3l-2 1h-13l-3-1 1-5 4-2v-34l-6-8v-1z" fill="#FCFEFE"/>
<path transform="translate(901,49)" d="m0 0h16l1 1v84h-17z" fill="#115684"/>
<path transform="translate(922,203)" d="m0 0h15l1 1v37l-1 43h-13l-2-1z" fill="#0F5583"/>
<path transform="translate(315,51)" d="m0 0h14l6 2 1 1v14l-2 1-8-7-4-4-6 1v5l17 11 5 5v14l-7 7-7 2h-17l-3-1v-20l5 3 5 8 3 2h7l2-6-1-2-14-7-7-8v-14l5-4z" fill="#FCFEFE"/>
<path transform="translate(653,72)" d="m0 0h15l1 1v61l-4 1-13-1v-61z" fill="#0C5382"/>
<path transform="translate(1180,72)" d="m0 0h14l1 1v61l-3 1-14-1v-61z" fill="#0C5382"/>
<path transform="translate(1879,72)" d="m0 0h16l1 3-1 59-4 1h-9l-3-1z" fill="#0C5382"/>
<path transform="translate(270,228)" d="m0 0 2 1 3 5 1 11h19l2 2-10 7-6 2 5 12 1 5-4 1-10-7-6 1-8 6-4-1 1-6 4-7-1-4-8-4-5-5 1-2 19-1 2-13z" fill="#FCFEFE"/>
<path transform="translate(309,188)" d="m0 0 3 2 2 14 17 1-1 5-5 4-5 2 4 12v5l-3 1-10-8-4 1-8 6-5 1-1-4 5-8-1-5-9-6-4-3 1-3h18l1-6 3-9z" fill="#FCFEFE"/>
<path transform="translate(270,138)" d="m0 0h3l2 5 2 9 2 1 16 1-2 5-10 6 1 7 3 6v4h-6l-6-7h-5l-8 6-7 1 3-10 3-7-4-1-10-7v-3l6-1h11l3-6z" fill="#FCFEFE"/>
<path transform="translate(257,51)" d="m0 0h25l-1 4-5 2-1 39 6 1 1 5-16 1h-9l-2-1 1-5 3-3 1-7v-24l-6-10z" fill="#FCFEFE"/>
<path transform="translate(233,182)" d="m0 0 3 1 4 14 1 1 15 1 2 4-10 5-2 2v6l3 4 1 6-5 1-9-7h-5l-8 8h-5l1-4 4-10 1-5-7-2-3-3-4-1-1-3 1-1h18l4-16z" fill="#FCFEFE"/>
<path transform="translate(32,128)" d="m0 0h31l1 1v7l-1 1h-26v26l-5-1z" fill="#FCFEFE"/>
<path transform="translate(1178,49)" d="m0 0h17v14l-2 1h-13l-2-1z" fill="#0C5382"/>
<path transform="translate(652,49)" d="m0 0h17v14l-2 1h-11l-4-1z" fill="#105684"/>
<path transform="translate(1879,49)" d="m0 0h16v14l-1 1-15-1-1-13z" fill="#0D5382"/>
<path transform="translate(331,391)" d="m0 0h9l1 1v5h-3l-3-3h-5z" fill="#FCFEFE"/>
<path transform="translate(179,472)" d="m0 0 7 2-1 2h-7z" fill="#F2F6F8"/>
<path transform="translate(371,334)" d="m0 0 2 2-5 4h-5v-2l6-2z" fill="#E6EEF2"/>
<path transform="translate(192,473)" d="m0 0h7v3h-7z" fill="#FCFEFE"/>
<path transform="translate(118,440)" d="m0 0 7 2v2l-7-1z" fill="#FCFEFE"/>
<path transform="translate(64,412)" d="m0 0 4 2v2l5 2-3 1-6-5z" fill="#FCFEFE"/>
<path transform="translate(310,415)" d="m0 0h2l-1 4h-5l1-3z" fill="#FCFEFE"/>
<path transform="translate(259,444)" d="m0 0h4l-1 3h-6v-2z" fill="#EDF3F6"/>
<path transform="translate(299,423)" d="m0 0h7v2l-6 1z" fill="#FCFEFE"/>
<path transform="translate(108,444)" d="m0 0 5 1-2 2h-4z" fill="#FCFEFE"/>
<path transform="translate(74,419)" d="m0 0 5 1v2l-4-1z" fill="#FCFEFE"/>
<path transform="translate(271,444)" d="m0 0 3 1-1 2h-3z" fill="#FCFEFE"/>
<path transform="translate(352,366)" d="m0 0h3v3h-3z" fill="#FCFEFE"/>
<path transform="translate(374,327)" d="m0 0h3l-1 3-3-1z" fill="#FCFEFE"/>
<path transform="translate(132,451)" d="m0 0 3 1v2h-3z" fill="#FCFEFE"/>
<path transform="translate(295,420)" d="m0 0h3v3l-3-1z" fill="#DEE8EE"/>
<path transform="translate(167,469)" d="m0 0 4 1-3 1z" fill="#FCFEFE"/>
<path transform="translate(0,214)" d="m0 0" fill="#FCFEFE"/>
</svg>
