<?xml version="1.0" encoding="UTF-8"?>
<svg version="1.1" viewBox="0 0 1744 1108" width="436" height="277" xmlns="http://www.w3.org/2000/svg">
<path transform="translate(1085,39)" d="m0 0h52l33 3 33 5 32 7 33 10 27 10 25 11 19 10 17 9 24 15 17 12 13 10 16 13 10 9 8 7 29 29 9 11 12 14 12 16 18 27 12 20 14 27 9 19 11 28 10 31 7 28 5 26 4 31 2 25v22l-3 1h-93l-1-1-3-37-5-35-7-30-8-26-13-32-12-24-13-22-13-19-12-16-12-14-12-13-19-19-11-9-9-8-14-10-27-18-22-12-27-13-26-10-35-10-26-5-12-2-21-2-17-1h-29l-25 2-28 4-18 3-1 1 32 4 28 5 27 7 24 8 24 10 16 8 21 11 27 18 17 13 14 12 12 11 17 17 9 11 11 13 13 18 12 19 12 22 12 25 10 27 9 31 5 25 3 22 2 24v16l-2 1h-94l-2-4-2-27-4-25-6-24-9-26-13-27-10-17-11-16-11-14-12-13-17-17-11-9-18-13-21-13-24-12-27-10-22-6-30-5-10-1h-46l-22 3-36 8-3 1 36 7 22 6 21 8 25 12 16 10 17 12 13 11 10 9 14 14 9 11 10 13 11 17 10 18 9 20 10 30 6 29 2 18 1 21-1 1h-96l-1-1-1-16-5-25-5-16-7-17-11-19-9-12-11-12-10-10-13-10-18-11-19-9-15-5-18-4-14-2h-28l-25 4-20 6-16 7-16 9-14 10-12 11-14 14-11 15-10 18-8 18-6 21-3 17-1 18-2 1h-95l-1-1v-13l2-32 3-25 6-33 7-28 12-37 12-29 16-32 11-20 11-17 11-16 9-12 8-10 9-11 12-13 9-10 19-19 8-7 14-12 18-14 17-12 17-11 22-13 23-12 27-12 27-10 30-9 30-7 29-5 28-3z" fill="#02A2E8"/>
<path transform="translate(45,443)" d="m0 0h437l1 1v79l-4 1h-164v374l-4 1h-105v-375h-161z" fill="#000101"/>
<path transform="translate(1437,566)" d="m0 0h236l1 1v67l-2 1-225 1-9 2-6 4-5 6-4 11v14l3 8 8 9 7 4 8 2 27 2 108 1 23 3 19 5 16 7 11 6 14 11 8 9 8 14 5 13 3 16v20l-3 17-6 18-8 15-8 11-9 10-11 9-17 8-17 4-25 3-18 1h-227l-1-1v-68l238-1 14-3 6-4 6-7 3-9v-15l-4-10-7-8-9-4-11-2-117-1-29-2-20-3-15-4-11-5-10-6-12-11-9-10-8-14-5-12-5-19-1-11v-13l2-16 5-16 6-12 8-11 15-15 12-8 12-5 16-4z" fill="#000101"/>
<path transform="translate(875,566)" d="m0 0h236l1 1v67l-2 1-225 1-9 2-8 6-5 10-1 4v16l4 9 5 5 9 6 8 2 26 2 108 1 29 4 17 5 19 9 14 10 11 11 9 14 5 13 3 15v27l-3 15-5 15-6 12-11 16-10 11-15 10-15 6-20 4-18 2-16 1h-231v-69l239-1 11-2 10-6 6-9 2-7v-13l-4-11-6-7-8-4-14-3-115-1-23-1-22-3-20-5-16-7-14-11-8-8-10-15-7-15-5-18-1-6v-29l4-17 5-12 7-12 8-10 10-10 14-9 12-5 16-4z" fill="#000102"/>
<path transform="translate(553,566)" d="m0 0h168l1 1v67l-2 1h-66l-104 1-15 3-15 5-10 6-6 5-8 14-5 15-3 12 233 1 1 1v67l-2 1h-232l6 22 7 14 5 6 14 9 17 7 19 4 9 1 156 1 1 1v67l-2 1h-156l-24-2-20-3-15-4-16-6-16-8-16-10-13-11-15-15-11-15-11-21-8-24-4-20-1-8v-46l4-22 5-16 5-12 10-19 10-14 9-10 14-14 13-9 14-8 19-7 21-5 22-3z" fill="#000102"/>
<path transform="translate(1172,567)" d="m0 0h99v331l-3 1h-96z"/>
<path transform="translate(1078,967)" d="m0 0h33l13 37 8 25 2 6 2-3 12-36 9-28 1-1h33v105l-2 1h-20l-1-68-15 42-9 25-2 1h-16l-3-5-12-34-10-29-1 67-1 1h-20l-1-1-1-104z" fill="#02A2E8"/>
<path transform="translate(1595,967)" d="m0 0h24l14 23 15 24 9 14 3 4 2-65h21l1 1v104l-2 1h-21l-7-9-17-28-14-22-5-7v57l-1 8-2 1h-19l-1-1z" fill="#02A2E8"/>
<path transform="translate(1509,965)" d="m0 0h23l10 3 11 6 8 8 7 12 4 13 1 7v13l-3 14-4 9-6 9-10 9-8 4-12 3h-20l-13-4-9-6-5-5-6-7-6-13-2-8v-25l5-15 7-11 7-7 13-7zm5 20-9 4-7 8-4 10-1 4v19l4 11 6 8 6 4 6 2h11l9-3 5-4 5-8 3-9 1-7v-9l-3-13-6-10-9-6-4-1z" fill="#02A2E8"/>
<path transform="translate(992,965)" d="m0 0h22l9 2 11 6 9 8 7 11 4 11 1 5v23l-3 12-6 12-8 9-11 7-9 3-6 1h-19l-13-4-11-7-8-9-6-12-3-11v-25l4-13 5-9 9-10 9-6zm4 20-8 4-8 9-4 13v19l4 11 4 6 6 5 7 3h12l10-4 8-9 3-7 1-5v-19l-4-13-8-9-9-4z" fill="#02A2E8"/>
<path transform="translate(468,966)" d="m0 0h13l11 4 8 7 4 10v9l-4 10-5 6-8 5 2 5 8 9h2l2-10h19l1 2-3 12-5 10-1 3 9 11 10 11 1 3h-26l-5-5-2-3-5 1-10 6-11 3h-12l-11-3-9-7-6-9-2-7v-12l4-10 10-10 7-4-2-5-5-11v-13l4-8 7-6zm6 15-5 3-2 3v7l6 9 5-1 6-7v-7l-2-4-6-3zm-10 47-8 9-1 2v7l3 5 5 4 2 1h9l8-5 2-2-1-4-11-14-3-3z" fill="#02A2E8"/>
<path transform="translate(743,967)" d="m0 0h24l1 74 3 7 5 4 6 2h12l8-3 4-5 2-7 1-72h23l1 1v67l-1 11-5 12-7 8-8 5-9 3-6 1h-21l-13-4-9-6-6-7-4-9-1-4z" fill="#02A2E8"/>
<path transform="translate(664,967)" d="m0 0h24l4 8 17 46 13 35 6 16-1 1h-23l-2-1-7-21-4-1h-35l-2 8-5 14-2 1h-22l-1-3 8-20 31-82zm11 30-9 25-3 9h24l-1-7-9-27z" fill="#02A2E8"/>
<path transform="translate(1247,967)" d="m0 0h24l5 12 21 56 13 35-1 3h-23l-2-2-6-19v-2l-39 1-7 20-2 2h-22l-1-3 14-37 16-42 8-22zm10 30-10 29-1 5h25l-11-33z" fill="#02A2E8"/>
<path transform="translate(851,967)" d="m0 0h86l1 1v18l-1 1h-31v85l-3 1h-20l-1-1v-85h-31z" fill="#02A2E8"/>
<path transform="translate(1318,967)" d="m0 0h85l1 1v18l-1 1h-30v85l-1 1h-23v-86h-31l-1-19z" fill="#02A2E8"/>
<path transform="translate(252,967)" d="m0 0h86l1 1v17l-1 1-31 1v85l-2 1h-21l-1-1v-86l-2 1h-28l-1-1z" fill="#02A2E8"/>
<path transform="translate(1423,967)" d="m0 0h24v105l-1 1h-22l-1-1z" fill="#02A2E8"/>
<path transform="translate(210,967)" d="m0 0h23l1 1v104l-2 1h-21l-1-1z" fill="#02A2E8"/>
</svg>
