<?xml version="1.0" encoding="UTF-8"?>
<svg version="1.1" viewBox="0 0 1600 321" width="628" height="126" xmlns="http://www.w3.org/2000/svg">
<path transform="translate(1068,73)" d="m0 0h30l1 1v240l-1 1h-27l-2-3v-20l-5 5-14 10-12 6-18 5-21 3-23-3-18-5-16-8-15-14-7-9-4-6-7-18-3-11-1-14v-10l1-14 4-17 5-12 9-14 15-15 14-8 11-5 17-4h35l16 4 13 5 11 8 10 9 2 1-1-2v-83zm-79 85-17 5-11 7-8 7-6 9-4 9-4 11-2 12v19l3 15 7 16 6 8 9 9 10 6 14 4 7 1h16l12-2 13-5 11-7 7-7 7-11 5-11 3-17v-19l-3-16-8-16-7-9-10-8-12-6-9-3-13-1z" fill="#0498D4"/>
<path transform="translate(1190,134)" d="m0 0h36l14 3 15 6 10 6 10 9 8 8 10 16 6 19 2 12 1 11v10l-6 2h-151l4 16 5 13 8 11 10 9 12 6 11 3 10 1h11l14-2 13-5 9-7 8-8 10-20 1-1h25l4 2-1 8-5 13-7 12-9 10-9 8-12 7-17 5-18 3-16 1-13-1-22-5-10-4-13-8-12-10-11-16-6-15-4-15-1-7v-26l4-18 8-20 6-8 7-8 7-7 14-9 13-6zm17 23-14 2-10 3-11 6-10 9-6 8-6 13-4 13 2 1 122-1-3-15-7-14-14-14-14-7-12-3z" fill="#0274B1"/>
<path transform="translate(792,133)" d="m0 0h9l18 2 19 5 19 10 14 12 9 11 5 8 6 16 3 13 1 9v16l-2 13-4 15-7 14-9 12-10 10-11 7-17 8-19 5-9 1h-19l-17-2-18-5-16-8-13-11-9-9-7-11-6-12-5-21v-29l4-17 8-17 10-14 8-8 15-10 15-7 15-4zm-4 25-13 2-10 4-13 8-8 8-7 11-5 10-3 12-1 7v16l4 17 7 14 9 11 11 9 10 5 8 3 10 1h16l12-2 13-5 10-6 11-11 8-13 5-16 2-18-3-19-4-10-6-11-8-10-13-9-12-5-12-3z" fill="#065091"/>
<path transform="translate(1396,134)" d="m0 0h35l17 4 14 6 11 9 8 11 5 14 2 15v121l-1 1h-29l-1-1-1-110-2-17-4-10-4-6-6-5-10-5-7-2-10-1h-11l-16 3-16 8-10 10-7 14-3 10-1 11-1 101h-30l-2-6v-165l2-5 1-1h28l1 1 1 19 8-7 10-7 12-6z" fill="#0497D3"/>
<path transform="translate(429,87)" d="m0 0h30l1 2v49h39l1 1 1 17v5l-1 1h-40l1 120 3 7 7 3h28l2 2v21l-2 1-9 1h-24l-13-2-10-4-6-4-4-5-4-10-1-8v-122h-35l-1-2v-17l1-4 2-1h33v-50z" fill="#065191"/>
<path transform="translate(1526,87)" d="m0 0h29v51h38l4 2v20l-1 2h-40l1 118 3 9 7 3h26l4 1 1 12-1 9-2 2-7 1h-30l-16-4-9-6-6-9-3-15v-121h-35l-1-2v-15l2-6 1-1h33v-49z" fill="#0497D3"/>
<path transform="translate(908,203)" d="m0 0 5 1 1 2 4 1v6l1 5 5 1 5 2-1-3 9 1 1 18 3 15 7 16 6 8 8 8 10 6 14 4 7 1h16l12-2 13-5 11-7 8-9 6-10 4-9 3-17 1-22 3-2h8l8 5 5 1h1l2-1v-3l3 1 1 5v95h-27l-2-3v-20l-5 5-14 10-12 6-18 5-21 3-23-3-18-5-16-8-15-14-7-9-4-6-7-18-3-11-1-14v-10l1-14z" fill="#0174B0"/>
<path transform="translate(606,136)" d="m0 0h20l1 1v25l-1 1-26 3-16 6-10 6-10 10-6 10-4 13-1 7-1 97-3 1h-25l-3-3v-172l3-3h24l2 1 1 29 11-12 14-10 9-4 12-4z" fill="#064F90"/>
<path transform="translate(718,219)" d="m0 0h6l3 4 4 23 4 12 7 12 6 7 11 9 10 5 8 3 10 1h16l12-2 13-5 10-6 10-10 8-13 5-16 3-22 4 1 3 3v2l6 2 6 3 7 1 3 4v11l-4 15-7 14-9 12-10 10-11 7-17 8-19 5-9 1h-19l-17-2-18-5-16-8-13-11-9-9-7-11-6-12-5-21v-9l2-4 6-2 9-4z" fill="#193B7C"/>
<path transform="translate(1190,134)" d="m0 0h36l14 3 15 6 10 6 10 9 8 8 10 16 6 19 2 12v5l-2-2-1-4-2-1v-2l-2 1v3l-2 1-1 3h-6v-3l-4-1-3-6h-3l-2 1-2-1v2h-2l-3-13-7-14-13-13-14-7-12-3-13-1-14 2-10 3-11 6-10 9-6 9-5 11-4 13h123v1l-67 1-38 1v2h-6l-4-1h-7v3l-1 1h39l28 2-3 2-29-1h-10l-6-1-27 2-9-3-7-2-3-1 1-2 3-1-5-2v-1l5-1-4-1h-3v2h-2l2-12 8-21 7-10 7-8 7-7 14-9 13-6z" fill="#0497D3"/>
<path transform="translate(648,138)" d="m0 0h29l1 1v176h-31v-176z" fill="#054E8F"/>
<path transform="translate(1275,205)" d="m0 0 4 2 3 6 3 1v3h6l1-4h2l-1-4h3v2l3 1 3 12v10l-6 2h-151l4 16 5 13 2 5-15-1-7-3h-8v9h-2l-7-19-3-16v-26l1-3h2v-2l7-1v3l-2 1 3 3-4 2 6 1 9 3 8 1 26-2 2 1h19l20 1-29-2h-36l2-3v-3h9l8 2v-2l4-1 34-1h67l1-5h3z" fill="#0186C2"/>
<path transform="translate(428,163)" d="m0 0h1l1 64 2-7 3-8h2l2-5 13-6 5 1 1-2 1 1 1 62 1 19 3 7 7 3h28l2 2v21l-2 1-9 1h-24l-13-2-10-4-6-4-4-5-4-10-1-8z" fill="#183A7B"/>
<path transform="translate(1526,207)" d="m0 0 7 4 6 5 9 3 2 4 1-3 4-1 1 39 1 22 3 9 7 3h26l4 1 1 12-1 9-2 2-7 1h-30l-16-4-9-6-6-9-3-15v-35l1-38z" fill="#0274B1"/>
<path transform="translate(1319,206)" d="m0 0 4 1v5l2 3 1 3 7-1 7 1-1-3 3-1-2-5 4-3 3 1 1 4v104h-30l-1-1v-101z" fill="#0085C2"/>
<path transform="translate(1460,215)" d="m0 0 6 1 9 3 5 3 5 6 2 8 1 49v29l-1 1h-29l-1-1v-90l1-8z" fill="#0174B0"/>
<path transform="translate(545,227)" d="m0 0h6l1 4v84l-3 1h-25l-3-3v-75l3-9 3-1 4 2 9-1z" fill="#183A7B"/>
<path transform="translate(652,228)" d="m0 0 12 3h7l2-2 4 1 1 1v84h-31v-85z" fill="#18397A"/>
<path transform="translate(177,2)" d="m0 0 10 1 8 3 9 8 3 5 2 8v8l-1 7-8 11-9 5-13 2-10-3-8-5-6-8-2-5-1-12 4-11 7-8 10-5z" fill="#47BBE8"/>
<path transform="translate(217,66)" d="m0 0 12 2 11 8 5 9 1 4v13l-4 9-5 7-11 5-6 1h-8l-8-3-9-7-5-8-1-6v-10l2-7 8-10 9-5z" fill="#0497D3"/>
<path transform="translate(30,260)" d="m0 0 8 1 8 3 7 5 5 8 2 8-1 12-4 8-5 6-8 5-10 2-9-1-10-5-8-9-3-11 1-11 6-11 7-6 7-3z" fill="#47BCE8"/>
<path transform="translate(141,195)" d="m0 0 13 2 10 7 6 10 2 13-3 10-4 6-7 6-6 3-11 2-11-3-3-3-5-3-5-7-2-5-1-12 2-9 5-8 11-7z" fill="#0497D3"/>
<path transform="translate(217,195)" d="m0 0 13 3 9 7 5 7 2 9v8l-4 11-6 7-6 4-12 3-11-2-3-1-3-3-5-3-6-11-2-10 3-13 10-11 7-3z" fill="#0375B1"/>
<path transform="translate(179,260)" d="m0 0 7 1 9 3 8 7 5 9 1 5v8l-4 11-7 8-11 5-10 1-10-3-8-5-6-11-2-7 1-10 7-14 10-6z" fill="#0274B1"/>
<path transform="translate(103,260)" d="m0 0 13 2 9 5 8 11 2 9-1 10-6 11-5 4-7 4-7 2-11-1-12-6-7-11-2-6 1-14 6-11 11-7z" fill="#0397D3"/>
<path transform="translate(325,260)" d="m0 0h9l8 3 9 6 5 9 2 7v9l-3 9-8 9-12 5h-13l-12-6-6-8-3-8v-12l2-6 6-9 9-6z" fill="#02876E"/>
<path transform="translate(178,131)" d="m0 0 10 1 6 3 7 4 6 10 2 8-1 13-4 6-6 7-10 5h-19l-4-4-5-3-7-10-2-8 1-10 4-9 6-7 9-5z" fill="#0597D3"/>
<path transform="translate(104,131)" d="m0 0 10 1 5 2 8 6 5 7 2 8v12l-6 11-8 7-6 3-11 1-9-2-6-4-8-9-3-9v-8l2-9 7-9 8-6z" fill="#47BBE8"/>
<path transform="translate(66,196)" d="m0 0 12 1 12 8 5 8 2 9v7l-1 7-4 5-6 7-8 4-11 2-13-4-10-9-3-6-2-9 1-8 3-8 7-8 6-4z" fill="#47BBE8"/>
<path transform="translate(136,67)" d="m0 0h13l9 4 8 7 4 8 1 4v11l-2 8-6 8-6 4-9 3h-9l-8-2-6-4-8-9-3-10v-8l3-9 6-8 7-5z" fill="#46BBE8"/>
<path transform="translate(287,196)" d="m0 0h10l9 3 7 5 6 10 2 7v7l-3 9-6 9-8 5-13 3-10-3-9-6-6-8-2-5-1-10 3-10 4-6 8-7z" fill="#065F9F"/>
<path transform="translate(252,131)" d="m0 0 11 1 10 5 7 9 3 7 1 7-2 12-8 10-6 4-7 2h-14l-8-4-6-5-6-9-1-13 2-9 4-6 8-7 7-3z" fill="#0274B1"/>
<path transform="translate(250,260)" d="m0 0 13 1 7 3 7 6 5 8 2 9-1 9-5 10-7 7-6 3-6 1h-11l-10-5-7-7-4-8-1-4v-8l4-11 7-8 7-4z" fill="#065191"/>
<path transform="translate(1070,212)" d="m0 0h8l8 5 5 1h1l2-1v-3l3 1 1 5v63h-1l-2-17v-2l-16 2-6-3-3-3v-2l-5-2-3 2 4-22 1-22z" fill="#0085C2"/>
<path transform="translate(1326,263)" d="m0 0 9 3 8 1 4 3 1 9v36h-30l-1-1v-45l2-4z" fill="#0073B0"/>
<path transform="translate(1526,207)" d="m0 0 7 4 6 5 9 3 2 4 1-3 4-1 1 39v16l-5-5-2-3h-6v-2l-5-1-5-2v-2l-5-1-3-2v27h-1v-35l1-38z" fill="#0085C2"/>
<path transform="translate(908,203)" d="m0 0 5 1 1 2 4 1v6l1 5 5 1 5 2-1-3 9 1 1 18 3 15 3 9h-8l-3 2h-4v-2l-3 1-2-2-8-3-5-2-2 3-3-11-1-14v-10l1-14z" fill="#0286C2"/>
<path transform="translate(30,260)" d="m0 0 8 1 8 3 1 6 1 2v7l-5 14-2 2-7 3h-13l-8-4-2-4h-2l-3-11-1-2 6-9 9-6z" fill="#CAEFFE"/>
<path transform="translate(1460,215)" d="m0 0 6 1 9 3 5 3 5 6 2 8v47l-2-4-3-11-7-10-6-2-10 2-1 9h-1v-43l1-8z" fill="#0085C2"/>
<path transform="translate(217,195)" d="m0 0 13 3 3 2 1 15-3 10-5 4-10 6-9-2-9-7-3-5-3-7-1-3 10-11 7-3z" fill="#45A8D3"/>
<path transform="translate(252,131)" d="m0 0 11 1 10 5 3 4-4 1-1 13-3 6-4 2v2l-7 3h-8l-9-2-7-6-2-14v-3l9-8 7-3z" fill="#45A8D3"/>
<path transform="translate(179,260)" d="m0 0 7 1 9 3 2 11-3 13-11 9-4 1h-8l-7-4-3-4v-2l-4-2-1-6-3 1 2-6 4-7 10-6z" fill="#45A8D3"/>
<path transform="translate(136,67)" d="m0 0h13l9 4 4 4-4-1 2 7-1 10-4 6-5 4-5 3h-11l-8-7-7-8v-6l-2 1 2-5 4-5 7-5z" fill="#CAEFFE"/>
<path transform="translate(250,260)" d="m0 0 13 1 6 2v3l3 9-2 11-2 3h-2v2l-7 4-2 1h-11l-8-4-6-7-1-5 3-11 8-6z" fill="#46A9D3"/>
<path transform="translate(104,131)" d="m0 0 10 1 5 2 4 3-1 15-1 2h-2l-2 5-5 6-9 4-11-4-5-6-4-8v-4l-3-1 8-9 9-5z" fill="#CAEFFE"/>
<path transform="translate(177,2)" d="m0 0 10 1 8 3 2 4v12l-4 8-5 4-5 3h-12l-9-5-3-3-2-7 1-7-2 1 2-4 7-6 7-3z" fill="#CAEFFE"/>
<path transform="translate(66,196)" d="m0 0 12 1 5 3 1 6v11l-3 5-1 4-8 4-4 1h-11l-7-5-5-12 1-4-2-1 6-7 6-4z" fill="#C8EEFD"/>
<path transform="translate(325,260)" d="m0 0h9l8 3 1 7 2 6-1 8-4 7-9 5-5 1-10-1-4-5-2-3-2-15-2-1 5-6 7-4z" fill="#A0CA9C"/>
<path transform="translate(287,196)" d="m0 0h10l5 1-1 3 3 1 3 4 1 9-4 11-5 4-10 2-9-1v-2l-4-1-2-1-4-8-1-1 1-8v-3l8-7z" fill="#46A8D3"/>
<path transform="translate(141,195)" d="m0 0 12 2 3 5 1 1v13l-5 9-7 3-10 2-6-3-3-4-4-8-2-5-1-2 2-4 11-7z" fill="#74CAEB"/>
<path transform="translate(178,131)" d="m0 0 10 1-1 3 6 3 1 3v8l-3 7-4 3-2 5-12 1-6-5-4-3v-2l-3-1-1-7 2-5v-1l-2-1 9-7z" fill="#74CAEB"/>
<path transform="translate(103,260)" d="m0 0 10 1 3 7 4 7v4h-2l-1 7-3 3-7 1-2 4-10-1v-2l-4-1-2-1v-3h-2l-1-3-1-12-2 1 2-4 10-6z" fill="#74CAEB"/>
<path transform="translate(217,66)" d="m0 0 7 1 1 4 3 1 3 6v8l-5 9-10 4h-6l-5-3-4-1v-2l-2-1-3-9 6-12 10-4z" fill="#73CAEB"/>
<path transform="translate(266,264)" d="m0 0 5 1 6 5 5 8v4h-4l-1 4-4 7-8 7-4 1-1 3-5 2h-9l-4-2v-2l-3 1-8-3h-3l-2-7v-8l4-11 3-2v6l-1 4 2 6 3 1 2 3 7 3h11l6-3 3-1v-2l3-3 2-11-3-9z" fill="#045C9D"/>
<path transform="translate(317,217)" d="m0 0 4 4v7l-3 9-6 9-8 5-13 3-10-3-4-4-3-9h5l4 2 6-1 9-3 7-5h2v-2h2v-2l5-4z" fill="#075191"/>
<path transform="translate(187,133)" d="m0 0 6 1 5 3 4 4-1 3v8l-4 11-5 6-9 4h-11l-10-5v-2l-5-2-4-7-1-4 4-9 2-3 5-1-3 7 1 7 6 5 7 5 11-1 2-5 5-5 1-4v-11l-6-3z" fill="#46BBE8"/>
<path transform="translate(223,68)" d="m0 0h6l8 6 1 11-2 9-6 9-6 4h-18l-8-4-2-5h-2l-4-5-1-3 2-7 8-10 3-1-2 5-3 6 4 10 8 4 1 1 9-1 7-2 2-5 2-4v-8l-3-6-2-1v-2z" fill="#45BBE8"/>
<path transform="translate(114,262)" d="m0 0 6 2 6 4 2 4h-2v12l-5 9-8 6-2 1h-14l-7-3-5-3-4-4-2-1-1 5h-1l1-14 4-8 4-2 1 16h2v3l6 2v2h10l2-3 8-3 3-8h2l-2-7-5-7z" fill="#45BBE8"/>
<path transform="translate(217,195)" d="m0 0 11 2-4 1 3 4 1 7-2 7-7 8-6 1-5-3v-2l-4-2-3-3-1-8 2-5-1-2 7-3z" fill="#46BBE7"/>
<path transform="translate(35,261)" d="m0 0 9 2 2 1 1 6 1 2v7l-5 14-2 2-7 3h-13l-8-4-2-4h-2l-3-11-1-2 5-8h4l-1 11h2v3h2l1 3 6 3 11-2 2-4 3-2 1-9-2-6-3 1-2-5z" fill="#98DBF7"/>
<path transform="translate(153,197)" d="m0 0 10 6 1 2-1 2-1 12-4 8-7 6-5 2-9 1-8-2-10-5-3-3v-2h-2l2-12 5-3 4 9 4 8 7 3 13-3 4-4 3-6v-13l-3-3z" fill="#46BBE8"/>
<path transform="translate(150,68)" d="m0 0 6 2 6 4-2 1-2-1 2 7-1 10-4 6-5 4-5 3h-11l-8-7-7-8v-6l-2 1 2-5 4-5 4 1 1 3-1 8 2 7 12 2 10-4 2-5v-11l-1-3-3-1z" fill="#98DBF6"/>
<path transform="translate(252,131)" d="m0 0h5l1 4v2l4 1 2 4v8l-4 5-5 3h-10l-2-1v-2h-2l-3-9 1-5 6-5 3-1 1-2-2-1z" fill="#45BBE8"/>
<path transform="translate(179,260)" d="m0 0 7 1 1 3v7l4 2v3l-3 5-1 4h-2v2l-4 1h-9l-5-5-2-5 1-6 4-5h2l1-3h8v-3z" fill="#45BBE8"/>
<path transform="translate(113,133)" d="m0 0h5l5 4-1 15-1 2h-2l-2 5-5 6-9 4-11-4-5-6-4-8v-4l-3-1 3-4 4 1 3 6 2 7 4 3 8 1 6-3 3-4 2-9h2l-2-5-2-4-2-1z" fill="#98DBF7"/>
<path transform="translate(77,198)" d="m0 0 5 1 2 7v11l-3 5-1 4-8 4-4 1h-11l-7-5-5-12 1-4-2-1 6-7 3-1 1 3-3 5v7l9 8h9l5-1 2-6 1-7-1-11z" fill="#99DBF7"/>
<path transform="translate(174,136)" d="m0 0 10 1 6 4v5l-2 4-2 5-2 2-11 1-6-4-3-4 1-8 6-5z" fill="#98DBF7"/>
<path transform="translate(291,199)" d="m0 0 5 3 5 6v6l-3 4h-2v3l-7 1h-6l-5-5v-3h-2l1-8h2v-3h3v-2z" fill="#45BBE8"/>
<path transform="translate(183,3)" d="m0 0 8 1 6 4v14l-4 8-5 4-5 3h-12l-9-5-3-3-2-7 1-7-2 1 2-4 4-4h2l-2 8 1 8 3 1 3 5 2 1h12l5-4 3-11-3-6-3-3-7-2v-1z" fill="#99DBF7"/>
<path transform="translate(123,138)" d="m0 0 4 2 1 3-1 1-1 13-6 8-15 8h-8l-10-6-2-4-5-2-3-1 2-12 4-1 4 10 4 6 8 4 5 1 6-3h2l1-3h2l4-8h2l1-15z" fill="#74CAEB"/>
<path transform="translate(82,201)" d="m0 0 5 2 4 4-2 1v10l-3 7-3 5-11 6-7 1-7-1-6-3-7-6-4-10 1-5 1-2h3l1 7 5 10 5 3h11l8-3 4-1 1-6 2-4v-10z" fill="#74CAEB"/>
<path transform="translate(250,265)" d="m0 0 10 4 4 4v5l-3 5h-2v2l-9 3-7-1-4-8 1-8 8-5z" fill="#45BBE8"/>
<path transform="translate(212,71)" d="m0 0 7 1 4 2 3 3v7l-6 8-4 3-5-1-5-5-5-6 1-5 7-6z" fill="#98DBF7"/>
<path transform="translate(197,9)" d="m0 0 3 1v15l-2 6-5 6-7 5-3 1h-14l-5-3-8-7-2-6-2-1 2-8 4-4 1 3-1 7 3 6 7 5 3 1h12l9-6 4-8v-12z" fill="#74CAEB"/>
<path transform="translate(301,198)" d="m0 0 5 1 7 5 2 4-2 9-6 9-7 6-7 3-7 1-8-2-8-7v-2l-3-1-1-3-2 1 1-8 3-6 3 1-1 8 4 6v3l6 2v2h12l9-3 3-5 3-8-1-9-5-5z" fill="#0073B0"/>
<path transform="translate(130,202)" d="m0 0h13l8 3 1 9-3 1-2 4-2 2-6 2-4 1-4-5-2-9-1-3z" fill="#98DBF7"/>
<path transform="translate(100,265)" d="m0 0 7 1 5 4 3 4-1 5-5 4-4 4h-6l-5-5-3-1-2-6 1-2h2v-2z" fill="#98DBF7"/>
<path transform="translate(260,262)" d="m0 0h7l2 2v2l3 9-2 11-2 3h-2v2l-7 4-2 1h-11l-8-4-6-7-1-5 3-9 4-2-1 4v8l3 7 3 2h12l5-1 1-3h2l3-4 1-10-7-9z" fill="#4098BE"/>
<path transform="translate(174,6)" d="m0 0 9 4 4 3 1 6-3 6-2 2-5 1-7-2-4-5v-10l3-3z" fill="#E3F9FE"/>
<path transform="translate(135,73)" d="m0 0h11l3 3 1 7-6 8-9 2-4-3-2-5v-6l4-5z" fill="#E3F9FF"/>
<path transform="translate(266,264)" d="m0 0 5 1 5 5v12l-3 8-8 6-8 3h-12l-10-4-5-5-2-12 4-6h1v6l-1 4 2 6 3 1 2 3 7 3h11l6-3 3-1v-2l3-3 2-11-3-9z" fill="#0073B0"/>
<path transform="translate(158,74)" d="m0 0 6 2-3 19-5 8-10 4h-13l-8-4-8-7-1-4-2-1 2-7 4-2v7l11 12 3 2h11l9-6 4-6 1-12z" fill="#74CAEB"/>
<path transform="translate(233,73)" d="m0 0 4 1 1 11-2 9-6 9-6 4h-18l-8-4-2-5h-2l-4-5-1-3 2-6h1l2 9 8 5 4 1v2l9 1 7-1 8-5 4-8v-10z" fill="#45A8D3"/>
<path transform="translate(100,137)" d="m0 0 8 1 3 4v9l-4 5h-9l-5-5-2-7 3-5z" fill="#E3F9FF"/>
<path transform="translate(272,141)" d="m0 0 5 1 2 3-4 5-4 12-5 6-6 3-12 1-9-2-5-5-4-7-4 1 2-11 3-3h1l2 15 6 5 12 2 9-1 3-1v-2l4-3 2-7 1-11z" fill="#0286C2"/>
<path transform="translate(295,197)" d="m0 0h7l-1 3 3 1 3 4 1 9-4 11-5 4-10 2-9-1v-2l-4-1-2-1-4-8-1-1 1-8v-3l5-5 2 1-3 4v10l3 6 1 3 6 1h10l6-3 2-5 1-11-4-6z" fill="#4098BE"/>
<path transform="translate(119,266)" d="m0 0h5l4 5-2 1v12l-5 9-8 6-2 1h-14l-7-3-5-3-4-4-2-1-1 5h-1v-7l2-5 4 2 2 6 8 4v2h18l3-3h3l1-4 4-13z" fill="#45A8D3"/>
<path transform="translate(194,265)" d="m0 0 4 1 5 6-5 16-4 6-8 5-11 1-10-3-8-6-4-2-2 3 1-10 4-2 3 7 5 5v2l5 2 2 1h8l7-3 7-6 3-13z" fill="#0187C4"/>
<path transform="translate(233,201)" d="m0 0 4 2-1 2 1 4v8l-1 1-1 7-5 6-5 2v2l-2 1h-14l-11-4-9-10 1-8 3-1 5 12 9 7 9 2 12-7 3-5 2-7z" fill="#0185C2"/>
<path transform="translate(66,201)" d="m0 0 5 1 4 5v7l-2 3-6 1-8-1-4-3-1-5 5-6z" fill="#E3F9FF"/>
<path transform="translate(22,268)" d="m0 0 13 2 3 2-1 6-1 2h-2l-1 3-5 1-5-3-5-2-1-4 2-5z" fill="#E3F9FF"/>
<path transform="translate(35,261)" d="m0 0 7 1 1 7 2 5-1 6-4 8-7 3-2 1h-10l-6-3v-3l-3-1-2-5-1-10 5-1-1 11h2v3h2l1 3 6 3 11-2 2-4 3-2 1-9-2-6-3 1-2-5z" fill="#AEE4FA"/>
<path transform="translate(1581,89)" d="m0 0 9 1 6 5 1 2v10l-5 6-5 2h-7l-6-4-3-4v-10l5-6zm-2 3-5 6v8l4 5 2 1h8l5-5 1-8-4-6-2-1z" fill="#23A6DA"/>
<path transform="translate(172,138)" d="m0 0 4 1 7-1 1 3 2 1-1 10-2 3h-10l-3-8v-7z" fill="#AEE4FA"/>
<path transform="translate(1271,252)" d="m0 0h25l4 2-1 8-2 5-2-4-5-4-5-1-9-2-4-1-2 5-2 4-3 2 1-5 4-8z" fill="#0487C3"/>
<path transform="translate(229,199)" d="m0 0 4 1 1 15-3 10-5 4-10 6-9-2-6-4 1-4 5 3 8 3v-2l5-2 4-2 5-5 1-2v-15z" fill="#4098BE"/>
<path transform="translate(269,143)" d="m0 0h2v12l-3 6-4 2v2l-7 3h-8l-9-2-7-6-1-5 2-1v3l4 1 5 6h7l9-2 5-4h2l2-7z" fill="#4098BE"/>
<path transform="translate(46,265)" d="m0 0 6 3 2 5-2 9-4 10-5 4-8 3h-14v-1l13-1 8-4 3-7 2-7v-7l-2-6z" fill="#74CAEB"/>
<path transform="translate(160,202)" d="m0 0 4 2-2 13-2 7-6 7-8 4-9 1-8-2-10-5-3-3v-2h-2l1-5 4 1 1 7 5 2 8 3h12l9-3 2-4 3-8z" fill="#45A8D3"/>
<path transform="translate(208,202)" d="m0 0h11l2 1 1 7-1 5-4 2h-5l-3-5z" fill="#74CAEB"/>
<path transform="translate(196,138)" d="m0 0 5 1 1 3-1 2v8l-4 11-5 6-6 3-3-1 5-3 4-8 3-8 2-7z" fill="#44A8D3"/>
<path transform="translate(341,268)" d="m0 0 3 3 1 9-3 8-5 5-10 4-11-1-4-5-2-3v-5l4 5 8 4 5 1 11-4 4-10v-7z" fill="#74CAEB"/>
<path transform="translate(113,133)" d="m0 0h5l-3 1 3 5 1 8-2 6h-2l-2 6-7 5-6 1-7-3-3-4 1-3 5 4 8 1 6-3 3-4 2-9h2l-2-5-2-4-2-1z" fill="#AEE4FA"/>
<path transform="translate(77,202)" d="m0 0 1 2h2l1 8-2 6-3 6-5 3-7 1-10-3-4-5-1-3v-8h1l1 7 9 8h9l5-1 2-6 1-7z" fill="#AEE4FA"/>
<path transform="translate(286,205)" d="m0 0h7l3 3v7l-3 3h-6l-3-3-1-6z" fill="#74CAEB"/>
<path transform="translate(153,152)" d="m0 0h2l4 9 1 3h7l3 2 7 1 3 3-1 1 4 2h-11l-10-5v-2l-5-2-4-7-1-4z" fill="#45A8D3"/>
<path transform="translate(157,274)" d="m0 0 2 2 1 7 4 6 2 2 12 3h8l-3 3-4 1h-8l-7-4-3-4v-2l-4-2-1-6-3 1 2-6z" fill="#4098BF"/>
<path transform="translate(192,213)" d="m0 0 2 2 4 10 9 7 9 3v1h-7l-11-4-9-10 1-8z" fill="#0085C1"/>
<path transform="translate(150,68)" d="m0 0 6 2-2 1 3 9-2 8-3 6-6 3-7 2-7-1-3-3v-2l12 2 10-4 2-5v-11l-1-3-3-1z" fill="#AEE4FA"/>
<path transform="translate(151,212)" d="m0 0v3h-2l-2 4-2 2-6 2-4 1-4-5v-4l14-1z" fill="#98DBF7"/>
<path transform="translate(183,3)" d="m0 0 8 1v6l2 3v9l-4 8-8 4-11-1-2-1 1-2 2 1h12l5-4 3-11-3-6-3-3-7-2v-1z" fill="#AEE4FA"/>
<path transform="translate(429,87)" d="m0 0 2 1 2 16-2 14-2 2-1-2v-30z" fill="#055798"/>
<path transform="translate(1156,219)" d="m0 0h30l28 2-3 2-29-1h-10l-6-1h-12z" fill="#0096D3"/>
<path transform="translate(212,75)" d="m0 0 6 1v2h2v5l-2 3-6 1-4-3 1-6z" fill="#AEE4FA"/>
<path transform="translate(144,208)" d="m0 0 7 2v3l-6 2h-13l1-5 5-1z" fill="#AEE4FA"/>
<path transform="translate(232,272)" d="m0 0h1v6l-1 4 2 6 3 1 2 3 7 3v1l-11-1-5-5-2-12z" fill="#087EB9"/>
<path transform="translate(173,271)" d="m0 0h9l3 2 1 4-4 3-9-1-3-3 1-3h2z" fill="#74CAEB"/>
<path transform="translate(1587,90)" d="m0 0 5 1 5 6v10l-5 6-5 1 6-10-1-7-5-5z" fill="#23A5DA"/>
<path transform="translate(100,268)" d="m0 0 4 1 4 4v4l-4 3-6-1-1-4z" fill="#AEE4FA"/>
<path transform="translate(1581,95)" d="m0 0 7 1 1 5v3l1 4-2 1-6-5-1 4-2-2v-9zm2 2-1 5h5l-2-4z" fill="#109DD7"/>
<path transform="translate(246,271)" d="m0 0h9l2 1v6l-9 1-4-2-1-3z" fill="#74CAEB"/>
<path transform="translate(154,280)" d="m0 0h2l3 7 5 5v2l4 2-3 1-8-6-4-2-2 3 1-10z" fill="#098AC5"/>
<path transform="translate(266,264)" d="m0 0 5 1 3 2v13l-3 9-5 4-3-1 3-1v-2l3-3 2-11-3-9z" fill="#0085C2"/>
<path transform="translate(268,208)" d="m0 0 3 1-1 8 4 6v3l6 2v2h9l-2 3-10-2v-2l-4-1-5-6-1-12z" fill="#0286C2"/>
<path transform="translate(301,198)" d="m0 0 5 1 7 5-2 2-2 13-2 3h-2l2-8-1-9-5-5z" fill="#0788C3"/>
<path transform="translate(275,270)" d="m0 0h2l5 8v4h-4l-1 4h-2z" fill="#085F9F"/>
<path transform="translate(247,141)" d="m0 0h5l2 4-1 4-4 1-3-1-1-7z" fill="#74CAEB"/>
<path transform="translate(1271,252)" d="m0 0h25v1l-22 1-4 4-1 5-4 3 1-5 4-8z" fill="#2698CB"/>
<path transform="translate(192,213)" d="m0 0 2 2 4 10 3 4-5-1-4-5-2-9z" fill="#0397D3"/>
<path transform="translate(5,278)" d="m0 0 2 1 2 11h2l3 5-5-2-3-4-1-5h-2l1-5z" fill="#74CAEB"/>
<path transform="translate(264,134)" d="m0 0 6 1 6 5-4 2-3 1z" fill="#31A0CE"/>
<path transform="translate(123,74)" d="m0 0 4 1 1 3-1 8-1 4-2-5v-8l-3-1z" fill="#B0E4FA"/>
<path transform="translate(23,271)" d="m0 0h6l2 2-1 4h-5l-2-2z" fill="#FEFEFE"/>
<path transform="translate(135,210)" d="m0 0h10l1 3-7 1h-6v-3z" fill="#CAEFFE"/>
<path transform="translate(172,3)" d="m0 0h5v2l-10 4-5 4 1-6z" fill="#B2E5FA"/>
<path transform="translate(83,142)" d="m0 0 4 1 3 6v5l-4-2z" fill="#AEE4FA"/>
<path transform="translate(233,286)" d="m0 0 1 2 3 1 2 3 7 3v1l-9-1-4-4z" fill="#0085C2"/>
<path transform="translate(1587,90)" d="m0 0 5 1 4 4v6l-9-9z" fill="#1CA1D7"/>
<path transform="translate(192,264)" d="m0 0 3 1 2 10-2 10-2 1 1-12-3-9z" fill="#419CC3"/>
<path transform="translate(160,202)" d="m0 0 4 2-2 13h-2z" fill="#46A9D4"/>
<path transform="translate(266,264)" d="m0 0 5 1 3 2-1 7-4-4-1-4z" fill="#0E8CC6"/>
<path transform="translate(217,195)" d="m0 0 5 1-2 4-10-1v-2z" fill="#4BAED8"/>
<path transform="translate(160,217)" d="m0 0 2 2-4 8-4 4-2-1 5-7z" fill="#44A6D1"/>
<path transform="translate(267,211)" d="m0 0h1v11h-3-1l1-8z" fill="#0675B0"/>
<path transform="translate(102,272)" d="m0 0 4 1v3l-7 2 1-5z" fill="#CAEFFE"/>
<path transform="translate(1582,102)" d="m0 0h5l3 4-1 3-3-1-4-4z" fill="#2AA9DC"/>
<path transform="translate(230,283)" d="m0 0 1 2h2l2 7 2 3-4-2-3-3z" fill="#0073B0"/>
<path transform="translate(1581,95)" d="m0 0 7 1 1 5-2 1-4-4z" fill="#39B0DF"/>
</svg>
