<?xml version="1.0" encoding="UTF-8"?>
<svg version="1.1" viewBox="0 0 2048 345" width="3556" height="600" xmlns="http://www.w3.org/2000/svg">
<path transform="translate(377,1)" d="m0 0h121l1 198 3 18 5 12 7 6 9 3h16l11-4 7-8 4-10 2-10 1-11 1-194h121v191l-2 33-4 23-6 18-8 15-9 12-12 13-12 10-15 9-19 9-20 6-22 4-13 1h-25l-20-2-19-4-24-8-19-10-16-12-16-16-9-13-8-15-6-20-3-19-1-10-1-27z" fill="#731A37"/>
<path transform="translate(815,1)" d="m0 0h134l4 9 10 29 18 52 13 37 21 60 19 54 17 49 13 36 2 9h-130l-10-39v-3h-91l-2 10-8 32h-130l9-27 9-24 10-29 20-56 19-53 20-56 21-59 11-30zm64 102-3 26-8 36-12 45v4h49l-4-17-10-37-7-34-3-23z" fill="#731A37"/>
<path transform="translate(0,1)" d="m0 0h308v25l-2 33-5 39-7 34-8 28-9 25-11 24-11 21-12 19-12 16-9 11-14 15-13 13-11 9-13 11-16 11-5-1-19-14-15-13-13-12-8-8-7-8-11-13-13-18-15-25-12-23-8-19-12-36-6-24-6-33-4-37-1-18z" fill="#731A37"/>
<path transform="translate(1087,1)" d="m0 0h123v335h-123z" fill="#731A37"/>
<path transform="translate(16,17)" d="m0 0h137v121h-122l-3-8-6-29-4-28-2-23-1-19v-13z" fill="#FCFAFB"/>
<path transform="translate(157,17)" d="m0 0h134l1 1v23l-2 29-5 35-7 32-1 1h-120z" fill="#FCFBFB"/>
<path transform="translate(0,1)" d="m0 0h308v25l-2 33-5 39-7 34-8 28-9 25-11 24-11 21-12 19-12 16-9 11-14 15-13 13-11 9-13 11-16 11-5-1-19-14-15-13-13-12-8-8-7-8-11-13-13-18-15-25-12-23-8-19-12-36-6-24-6-33-4-37-1-18zm7 7-1 1v12l2 33 3 29 5 29 7 30 12 36 10 23 13 25 14 22 14 18 12 14 24 24 11 9 17 13 4 2 16-12 11-9 10-9 8-7 15-16 9-11 13-17 11-17 12-22 10-21 10-27 8-28 6-27 5-33 2-21 1-18v-25z" fill="#741C38"/>
<path transform="translate(7,8)" d="m0 0h294v25l-2 29-5 38-6 28-8 29-9 25-11 24-10 19-10 16-10 14-11 14-14 15-7 8-14 13-14 11-13 10-4 2-16-12-11-9-12-11-19-19-9-11-14-18-12-19-10-18-11-23-9-24-8-26-6-26-5-29-3-29-2-33v-12zm6 6v31l2 27 4 30 6 29 7 25 10 28 11 24 12 21 13 19 13 16 18 20 13 12 14 11 13 10 3 2 5-1 16-12 11-9 10-9 21-21 11-14 11-15 15-25 12-25 11-29 8-29 7-36 4-38 1-24v-18z" fill="#F7F4F5"/>
<path transform="translate(118,153)" d="m0 0h5l1 3 7 1v5l3 1-2 4 7 1-1-2v-6l3 1 1 4 3 1 1-2h2l1 5-2 4 2 1-1 3-5-2-1 3-3 3 2 4 1 4h5l2 3 1-6v-6l-1-2h6l2 1 2 4 2-2 3 6v2l3 1-1 4-6 2 2 6-5 1v2h-3l-1 4-4 6v6l-4-4-8 1v6l7-1-1 5 4 1v3l4-1 4-3 9 3 8 5v3l10 3 2 2-1 6-3 9-6 3-2 5v6l-3 2h-4v3l-2 1v2h-2l-1 5v4l-1 4 2 5-5-4h-2l-2-4v-31l1-6-3-3-3-6 1-5 2-5-6-2-1-2-13-5-2-5-1 1h-2l-6-10-3-4-1-5 2-7-4-2-3-10-5-1-5-2-3 1-1 3-4 2-3-1 2-2-5-6 3-3-3-2 2-4-1-4 5-4 8 1 8 3 7-3 7 3-1-6-4-1z" fill="#E8E6E7"/>
<path transform="translate(1613,277)" d="m0 0h14l6 4 3 3 6-5 4-2h13l8 5 3 5 1 4v44h-16v-37l-3-7h-12l-2 9-1 35h-15l-1-40-2-4h-10l-3 3-1 4-1 37h-15v-57h15l1 5 6-5z" fill="#731B38"/>
<path transform="translate(1300)" d="m0 0h17l1 55 4 8 6 2h8l6-3 3-7 1-55h16l1 1v52l-3 12-4 7-6 5-6 2-7 1h-11l-11-2-6-4-4-5-4-10-1-6z" fill="#731B38"/>
<path transform="translate(1322,129)" d="m0 0h19l7 18 15 43 5 14v2h-18l-4-13v-2h-29l-3 11-2 4h-17l3-10 17-48zm9 19-9 27v2h19l-3-11-6-18z" fill="#751E3A"/>
<path transform="translate(1757)" d="m0 0h15v78h-15l-1-5-8 6-11 1-9-3-5-5-4-5-3-9v-15l4-13 5-6 7-4 4-1h9l8 4 2 2 1-24zm-14 32-7 3-4 7v15l3 6 6 4 9-1 6-7 1-3v-13l-3-6-5-4z" fill="#741B38"/>
<path transform="translate(1881)" d="m0 0h15v78h-14l-1-6-7 6-6 2h-7l-10-4-7-8-3-8-1-13 3-14 6-8 5-4 7-2h9l8 4 2 2zm-14 32-5 2-4 5-2 6v10l4 9 6 3 8-1 5-4 3-9-1-12-4-6-7-3z" fill="#741B38"/>
<path transform="translate(1376,129)" d="m0 0h15l1 25 5-4 4-2h12l9 4 6 8 3 8v19l-5 12-8 7-5 2h-12l-6-3-4-4-1 5h-14zm24 32-6 3-3 6-1 11 3 9 4 4 2 1h9l5-5 2-4v-15l-4-8-5-2z" fill="#731B38"/>
<path transform="translate(223,32)" d="m0 0 4 1 7 11 1 4v14l-6 22-2 11 3-1 6-21 6-11 6-4 7 1 5 5 2 6-1 8-5 11-2 1-3-8-3-3-5 1-5 5-5 10h3v5l-4 1 4 9 4 1 4-1-2 5-1 1h-6l-4-6-1-9h-2l1 5v14l-4 6-3-1-3-6v-10l2-8h-2l-1 9-3 5-7 1-3-4v-2l7 1 3-4 2-6-4-1v-5l2-2-5-10-6-4-5 1-4 9-3-1-5-13v-7l3-6 3-3 7-1 5 3 6 8 5 13 3 12 2 1-3-18-5-17v-10l4-10z" fill="#731A37"/>
<path transform="translate(75,38)" d="m0 0 2 3 5 5 1 7 3-15h1l3 15 3-5 2-9 2-1 1 13-3 6-4 4-13 2-4 3h-2l-2 5-1 2v13l4 6 6 4 3 1h9l8-4 5-8v-11l-1-7 2-3 13-5 3 1-8 7h-2v2l5 1 5-3h7l-2 2-5 3-3 3h-6v2h8l11 2v1l-13 2-5 1v2l12 3 2 2-11 2-4-1v2l4 2 5 5-10-3-5-2 4 7 4 2 2 5-9-3-4-4 3 10-1 3-7-9-2-1 2 13-2 2-3-5-2-2-2-7-2 15-2-2-2-12-1-1-3 5-1 7-1 2-2-1-1-6-2-3-6 5 1-5 3-10-6 3-3 5-4 2 3-10 3-3-9 3-5 1 5-5 6-5-1-2-5 1-2 1h-8l3-2 4-2 2-3 4-2-16-2 4-2 12-2 2-1-5-3h-5l-4-4 9-1 4-1-9-8 2-1 15 6-3-5v-2l-4-1-3-5 2-1v2l7 1 5 6-3-9-1-5 5 5 5 4 1-4-3-6z" fill="#E7D8DD"/>
<path transform="translate(1542,277)" d="m0 0h20l9 4 5 6 1 5 1 39 2 4h-17l-2-5-5 4-6 3h-12l-6-3-5-6-1-3v-12l3-6 10-5 20-4 1-1v-5l-3-2h-12l-2 6-1 1h-14l1-9 6-8zm18 31-15 4-4 4v6l5 4 9-1 5-4 1-3v-10z" fill="#761F3B"/>
<path transform="translate(1620,148)" d="m0 0h18l10 4 5 6 1 5 1 39 2 4h-17l-2-4-10 6h-14l-6-4-4-5-1-3v-11l3-6 8-5 7-2 16-3 1-4-4-4h-9l-4 4-1 3h-15l1-8 6-9zm17 31-16 5-3 4 1 6 3 3h8l6-4 2-3 1-10z" fill="#741C39"/>
<path transform="translate(2010,277)" d="m0 0h20l10 4 4 6 1 3 1 41 2 1v3h-17l-2-5-8 6-3 1h-11l-8-4-4-6-1-3v-9l3-7 5-4 9-3 14-2 4-1-1-7-2-1h-11l-5 7h-14l1-8 6-9zm18 31-15 4-4 5 1 6 4 3 9-1 5-4 2-6v-7z" fill="#741B38"/>
<path transform="translate(1800,19)" d="m0 0h14l10 3 5 4 2 4 1 40 1 4 2 1-1 3h-16l-2-5-7 5-7 2-11-1-7-5-3-6v-12l3-6 6-4 12-3 11-2 2-1v-6l-5-2-9 1-3 6h-15v-6l6-9 3-3zm14 32-15 4-3 4 1 7 5 3 9-2 4-4 1-2v-10z" fill="#741C39"/>
<path transform="translate(1704,276)" d="m0 0 12 1 8 4 5 5 4 8 1 5v12h-39l3 9 4 3 8 1 5-3 3-3h15l-1 6-7 9-10 4h-14l-10-4-6-5-4-8-1-3v-19l3-9 7-8 8-4zm-1 13-6 5-1 7h22l-1-7-6-5z" fill="#741C39"/>
<path transform="translate(1885,277)" d="m0 0h21l9 4 4 5 1 2 1 41 2 3v3h-16l-2-5-9 6-3 1h-11l-6-3-5-5-1-3v-14l3-5 10-5 20-4 1-1v-5l-3-2h-10l-3 3-2 4h-14l-1-3 3-8 6-7zm18 31-14 4-4 4v6l4 4h7l7-4 2-4v-10z" fill="#741B38"/>
<path transform="translate(1449,276)" d="m0 0 12 1 8 4 6 7 4 11v12h-39l3 9 4 3 8 1 5-2 3-4h15l-1 6-9 10-8 3h-14l-10-4-6-5-4-8-1-3v-20l4-9 6-7 8-4zm-1 13-6 5-1 7h22l-1-7-6-5z" fill="#741B38"/>
<path transform="translate(1486,148)" d="m0 0h15l10 4 6 7 3 8 1 6v9h-39l2 8 4 4 3 1h7l4-2 3-4h15l-1 6-7 9-9 4h-17l-10-5-7-8-2-6-1-14 2-11 6-9 5-4zm5 12-5 3-3 4-1 5h23l-1-6-5-5-2-1z" fill="#751D39"/>
<path transform="translate(1547,19)" d="m0 0h12l9 3 6 5 5 10 1 4v12l-38 1 1 7 4 4 2 1h9l5-5h16l-1 6-8 9-7 3-5 1h-8l-10-3-6-4-5-6-3-8v-19l4-10 5-5 5-4zm5 12-7 3-3 5v4h22v-5l-5-5z" fill="#751D3A"/>
<path transform="translate(1646,19)" d="m0 0h15l10 4 6 7 1 8h-15l-4-6-8-1-5 2-1 4 6 3 18 5 6 4 4 5 1 3v7l-3 7-7 6-5 2-6 1h-10l-12-3-6-5-3-5-1-8h16l2 6 5 2h9l4-2v-5l-26-8-6-5-2-4v-9l4-8 9-6z" fill="#741B38"/>
<path transform="translate(1957,277)" d="m0 0h15l8 4 4 6 1 4v44h-16l-1-40-2-4-9-1-5 2-3 8-1 35h-15v-57h14l1 2-1 5h2l2-4z" fill="#751E3A"/>
<path transform="translate(1403,19)" d="m0 0h10l8 3 5 5 2 5v46h-15l-1-38-2-6-2-1h-9l-4 2-2 5-1 6-1 32h-14l-1-1v-56l1-1h14l1 6 7-6z" fill="#77213D"/>
<path transform="translate(1353,277)" d="m0 0h15l6 3 5 6 2 8v41h-16l-1-39-3-5-2-1h-7l-5 3-2 5-1 37h-15v-57h14l1 6 6-6z" fill="#731A37"/>
<path transform="translate(1830,277)" d="m0 0h17l9 4 5 6 3 8v4h-15l-5-8h-11l-3 3-2 6v14l3 7 2 2h10l3-3 3-6h15l-1 7-6 10-5 4-6 2h-15l-10-4-6-7-4-11v-15l3-10 6-8z" fill="#741C39"/>
<path transform="translate(1466,20)" d="m0 0h16l3 8 9 32 12-40h16l-2 9-17 47-1 2h-16l-5-12-15-42z" fill="#76203C"/>
<path transform="translate(1573,134)" d="m0 0h16v16h9v11h-9l1 33 8 2v11h-16l-6-3-2-3-1-5v-35h-7v-11h7z" fill="#77203D"/>
<path transform="translate(1397,262)" d="m0 0h13l1 1v15h9v11h-9l1 34 8 1v12h-15l-7-3-2-4v-40h-8v-11h8v-15z" fill="#741C38"/>
<path transform="translate(105,44)" d="m0 0 1 3-4 10 1 1 5-3 5-6h2l-3 10-1 4-6 1-1 8 1 2v11l-6 9-8 4h-9l-8-4-5-6-1-2v-13l4-7 6-4 13-2 4-4 2-5h4l2-4z" fill="#FAF9F9"/>
<path transform="translate(155,228)" d="m0 0 9 3 8 5v3l10 3 2 2-1 6-3 9-6 3-2 5v6l-3 2h-4v3l-2 1v2h-2l-1 5v4l-1 4 2 5-5-4h-2l-2-4v-31l1-6-3-3-3-6 1-5 4-10z" fill="#E9E8E8"/>
<path transform="translate(1299,258)" d="m0 0h16v77h-16z" fill="#731A37"/>
<path transform="translate(1616,19)" d="m0 0h7v16l-11 1-4 2-2 5-1 35h-16v-57l1-1h14l1 7 7-7z" fill="#751D3A"/>
<path transform="translate(1512,277)" d="m0 0h10v15l-13 2-3 3-1 3-1 35h-16v-57h15l1 7 6-7z" fill="#731A37"/>
<path transform="translate(1768,277)" d="m0 0h9v15l-15 2-2 6-1 35h-16v-57h15l1 7 6-7z" fill="#761F3B"/>
<path transform="translate(1555,148)" d="m0 0h9v15l-13 2-3 3-2 9v29h-16v-57h14l2 7 5-6z" fill="#761F3B"/>
<path transform="translate(1691,20)" d="m0 0h14l1 1v57h-16v-57z" fill="#741D39"/>
<path transform="translate(1442,20)" d="m0 0h15v58h-15z" fill="#751D39"/>
<path transform="translate(1785,278)" d="m0 0h15v57h-15z" fill="#731A37"/>
<path transform="translate(1442,149)" d="m0 0h15v57h-15z" fill="#731A37"/>
<path transform="translate(118,59)" d="m0 0 3 1-8 7h-2v2l5 1 5-3h7l-2 2-5 3-3 3h-6v2h8l11 2v1l-13 2-5 1v2l12 3 2 2-11 2-8-4-3-3-1-11-1-7 2-3z" fill="#E7D8DD"/>
<path transform="translate(1690)" d="m0 0h16v14h-16z" fill="#731A37"/>
<path transform="translate(66,44)" d="m0 0 5 5 4 5 1 7-3 1-6-1 3 4-1 3h-8l-11-9-1-2 9 3 8 3-3-5v-2l-4-1-3-5 2-1v2l7 1 5 6-3-9z" fill="#731B38"/>
<path transform="translate(1442,128)" d="m0 0 15 1v14h-15z" fill="#731A37"/>
<path transform="translate(1785,257)" d="m0 0h15v14h-15z" fill="#731A37"/>
<path transform="translate(1442)" d="m0 0h15v14h-15z" fill="#731A37"/>
<path transform="translate(63,89)" d="m0 0h5v4 4l7-1v9l-8 10-1-3 4-10v-2l-6 3-3 5-4 2 3-10 3-3-9 3-5 1 5-5z" fill="#731A37"/>
<path transform="translate(103,91)" d="m0 0h8l10 8-2 1-13-5 4 7 4 2 2 5-9-3-4-4 3 10-1 3-8-10-1-7 2-2 4 2h3l-3-5z" fill="#741B38"/>
<path transform="translate(141,216)" d="m0 0 5 1 2 4v2l6 3v4l-4 3-4-1v-3l-3-1 1-5-4 2-4-1v-6z" fill="#731A37"/>
<path transform="translate(121,67)" d="m0 0h7l-2 2-5 3-3 3h-6v2h8l11 2v1l-13 2h-6l1-2-5-2v-4l4-4 6-1z" fill="#731A37"/>
<path transform="translate(52,77)" d="m0 0h8l1 2 5 3-6 7-6 1-2 1h-8l3-2 4-2 2-3 4-2-16-2 4-2z" fill="#731A37"/>
<path transform="translate(118,153)" d="m0 0h5l1 3 7 1v5l3 1-2 5-4-1v2h-5l-2-10-4-1z" fill="#E2D7DB"/>
<path transform="translate(75,38)" d="m0 0 2 3 5 5 1 7 3-15h1l2 12v5l-2-2-4 7-6-5v-6l-3-6z" fill="#731A37"/>
<path transform="translate(89,99)" d="m0 0 6 5 1 8 2 6-2 2-3-5-2-2-2-7-2 15-2-2-2-15h3z" fill="#731A37"/>
<path transform="translate(105,44)" d="m0 0 1 3-4 10 1 1 5-3 5-6h2l-3 10-5 4-2-2-3 2h-5v-9z" fill="#731A37"/>
<path transform="translate(150,158)" d="m0 0 3 1v2l5 1v2l3 1v3l3 2v3l-2 1v3h-3l-5-3v-2l2-1-1-4-2-1v2h-2l-3-5 1-4z" fill="#E7DFE2"/>
<path transform="translate(54,67)" d="m0 0 6 1 5 3 1 4-5 1-7-4h-5l-4-4z" fill="#731A37"/>
<path transform="translate(97,51)" d="m0 0 3 1-2 3v6l-1 2 7-2 2-1 1 2 3-1 1 2-6 1-1 6h-2l-4-5-7-3 2-4 3-5z" fill="#E7D9DE"/>
<path transform="translate(80,99)" d="m0 0h2l1 5-4 7-1 7-1 2-2-1-1-11 4-8z" fill="#731A37"/>
<path transform="translate(109,82)" d="m0 0h2v2l5 2 9 2 2 2-11 2-8-4-2-2v-3z" fill="#731A37"/>
<path transform="translate(96,38)" d="m0 0 1 2 1 11-3 6-5 3-1-5 4-7 2-9z" fill="#731A37"/>
<path transform="translate(249,40)" d="m0 0h1v5l-1 1 3 2 1 4h-5l-3-2-2 6h-2l2-6 1-2-4-1-1-3h6z" fill="#751E3A"/>
<path transform="translate(63,89)" d="m0 0h5v4l-1 3-8 2-7 3-3-1 10-8z" fill="#751E3B"/>
<path transform="translate(49,57)" d="m0 0 9 3 8 3-1-2 4 2 1 4-2 1h-7l-11-9z" fill="#741C39"/>
<path transform="translate(199,40)" d="m0 0 3 1v4l2-1h6l-2 4h-3l1 5-2-1v-2l-3 2h-5l2-5 2-1-2-1z" fill="#731A37"/>
<path transform="translate(134,153)" d="m0 0h3l2 15h-7l-1-2h2v-3l-2-1 1-6z" fill="#81324C"/>
<path transform="translate(118,59)" d="m0 0 3 1-12 10-6-1 2-5z" fill="#731A37"/>
<path transform="translate(141,223)" d="m0 0h3l-1 5 4 1v3h4l-1 3-6-2-1-2-9-3 3-3z" fill="#E8DFE2"/>
<path transform="translate(134,153)" d="m0 0h3v8h-3l-2-5z" fill="#E9E1E4"/>
<path transform="translate(147,221)" d="m0 0 14 4-3 2-7-1-6-3z" fill="#E7D9DE"/>
<path transform="translate(118,153)" d="m0 0h5v3l-2 3-4-1z" fill="#E9E3E5"/>
<path transform="translate(91,73)" d="m0 0 6 1 1 2-2 1h-6l-2-2z" fill="#731A37"/>
<path transform="translate(77,73)" d="m0 0 6 1 1 2-2 1h-6l-2-2z" fill="#731A37"/>
<path transform="translate(129,149)" d="m0 0 1 2h2l-1 3-4 1-2-1v-4z" fill="#E8DFE2"/>
</svg>
