<?xml version="1.0" encoding="UTF-8"?>
<svg version="1.1" viewBox="0 0 2048 482" width="2158" height="508" xmlns="http://www.w3.org/2000/svg">
<path transform="translate(0)" d="m0 0h456v272l-3 19-5 15-12 25-9 13h-2l-2 4-8 11h-2l-2 4-24 24-8 7-6 5-9 7-10 8-24 16-13 8-19 12-27 14-17 9-13 5-9 4h-8l-13-5-13-6-19-9-14-8-18-10-11-7-9-5-12-9-12-8-17-13-10-8-11-10-8-7-11-11-18-22-15-24-4-9-6-18-3-15zm32 33v70h391v-70zm147 102 6 7 32 32 7 8 6 5 51-51v-1zm-53 54 6 7 5 4 7 8 12 11 7 8 12 11 1 2 4-2 15-14 7-8 13-13 5-6 8-7v-1zm106 0 6 7 44 44 7-6 44-44v-1zm-54 52 6 7 9 8 7 8 8 7 9 11 12 11 4-2 21-21 7-8 20-20v-1zm-104 1 3 5 46 46 8-6 9-9 6-7 8-7 11-12 8-7 2-3zm211 0 6 7 38 38 5 6 4-2 43-43 4-6zm-164 74-13 3-22 10-8 2h-9l-9-3h-3l13 15 19 19 11 9 5 5 14 10 9 7 20 13 20 12 17 10 15 8 11 5 15 7 6-1 16-8 17-8 13-8 20-11 24-16 14-10 12-9 11-9 11-10 8-7 14-15 5-7-2-1-9 3h-9l-13-4-16-7-7-3-11-1-13 3-23 10-8 2h-12l-13-4-21-9-14-2-14 3-20 9-11 3h-12l-11-3-20-9-6-2z" fill="#054E37"/>
<path transform="translate(530,137)" d="m0 0h41l16 80 1 8 4 21 3-8 9-32 4-17 9-32 6-20h28l3 8 7 24 3 14 8 29 7 24 2 10 5-23 12-61 2-14 3-11h40l-2 11-5 20-2 11-17 66-2 11-11 43-1 2h-38l-4-14-3-14-15-56-3-14-3-10-12 46-6 26-10 36h-38l-3-9-3-15-16-62-2-11-17-66z" fill="#09513A"/>
<path transform="translate(1900,138)" d="m0 0h37l7 8 10 14 13 18 12 16 10 14 10 12 9 13 3 4 1-99h36v164h-35l-10-13-10-14-13-18-11-14-10-14-14-19-8-11-1 103h-36z" fill="#0B523C"/>
<path transform="translate(1232,138)" d="m0 0h37l7 9 6 8v2l3 1 13 18 14 19 13 18 5 6 6 9 7 8 1-98h36v164h-35l-14-19-10-14-8-10-26-36-14-19-4-6-1 104h-36z" fill="#0B513B"/>
<path transform="translate(1776,136)" d="m0 0h28l20 4 10 5 12 8 10 9 8 11 7 12 5 22v26l-5 21-7 13-12 13-5 6-10 6-16 8-15 4-7 1h-20l-16-3-15-6-13-8-10-9-8-11-7-14-4-12-2-12v-20l3-15 5-13 5-9 8-11 10-9 8-6 15-7zm7 31-13 4-10 6-5 4-7 10-5 11-2 9v18l3 12 4 8 8 10 4 4h2l1 3 9 4 15 3 14-1 12-4 9-6 7-7 5-8 5-15 1-15-3-16-4-10-6-9-8-7-13-6-9-2z" fill="#085039"/>
<path transform="translate(1479,135)" d="m0 0h26l19 4 10 5 11 8 9 8-2 4-21 21-4-2-5-5-9-6-11-4-12-1-11 2-12 5-8 6-8 9-7 14-1 9v20l4 12 7 11 7 7 7 5 12 4 5 1h16l17-5 9-6 1-19h-37v-31h73v64l-7 7-10 7-16 9-15 5-16 3h-21l-15-3-14-5-10-6-10-7-6-6-4-7-3-3-7-14-5-17v-30l2-13 5-14 7-11 11-12 9-8 11-7 10-4z" fill="#084F39"/>
<path transform="translate(768,139)" d="m0 0h117l-2 6-6 13-6 12h-67v33h65v31h-65v36h67l8 16 6 13-1 3h-116z" fill="#085039"/>
<path transform="translate(1572,138)" d="m0 0h138l-1 4-5 12-7 16h-41v132h-36v-132h-48z" fill="#0C523D"/>
<path transform="translate(1036,138)" d="m0 0h36v132h62v32h-98z" fill="#0B523C"/>
<path transform="translate(911,138)" d="m0 0h36v132h62v32h-98z" fill="#0F553F"/>
<path transform="translate(1162,138)" d="m0 0h36v164h-36z" fill="#0A513B"/>
<path transform="translate(1606,361)" d="m0 0h19l4 17 3 17 6 27 5-15 11-42 2-4h13l3 8 9 32 4 13 1 6 1 2 13-59 1-2h18l-1 8-14 54-2 10-4 16-1 1h-18l-13-47-2-11-1-3-7 24-7 26-2 10-1 1h-17l-3-9-12-45-4-17z" fill="#125741"/>
<path transform="translate(1214,361)" d="m0 0h17l6 7 7 10 8 10 12 17 10 13 1 1v-58h17v89h-16l-16-20-12-17-11-15-6-9-1 61h-16z" fill="#165944"/>
<path transform="translate(1e3 361)" d="m0 0h50l8 4 5 5 5 8v21l-5 8-7 6-7 3 15 23 5 8v3h-18l-6-9-1-4h-2l-11-19-15-1v33h-16zm16 14v27h25l6-3 4-5 1-7-3-7-3-3-6-2z" fill="#0C523D"/>
<path transform="translate(1367,359)" d="m0 0h10l15 3 10 7 3 3-2 4-8 8h-2l-5-5-10-4h-12l-12 6-6 7-4 10v15l4 9 4 7 10 6 12 1 11-2 6-4h2v-13h-19l-1-1v-15h36v36l-8 7-10 5-10 3h-16l-11-3-9-5-10-9-4-6-4-10-1-5v-18l5-15 8-10 10-7 6-3z" fill="#145843"/>
<path transform="translate(1988,361)" d="m0 0h21l5 11 6 15 6 16 13 32 3 10 1 5h-19l-5-15v-2l-40 1-6 15-1 1h-18l1-6 8-19 7-20 9-21 5-15zm10 19-5 12-9 23v3h30l-8-21-4-11-2-6z" fill="#115641"/>
<path transform="translate(1772,361)" d="m0 0h22l6 16 9 23 5 11 5 15 8 19 1 5h-19l-6-15v-2l-40 1-5 15-1 1h-19l7-21 10-24 4-11 10-25zm10 18-5 14-9 24v1h30l-4-13-8-20-3-6z" fill="#115641"/>
<path transform="translate(1476,361)" d="m0 0h22l6 17 14 34 6 17 8 19v2h-19l-6-15v-2l-40 1-6 15-1 1h-18l2-9 10-25 5-11 5-15 8-19zm10 18-6 16-8 21v2h29l-2-10-8-20-4-9z" fill="#115641"/>
<path transform="translate(787,361)" d="m0 0h16v36h45v-36h17v88l-1 1h-15l-1-1v-38h-45v39h-16z" fill="#074F39"/>
<path transform="translate(1857,361)" d="m0 0h16v40l5-5 11-13 7-9 11-13h21l-6 8-10 11-9 11-10 11 3 5 11 13 8 10 9 10 6 9v1h-20l-11-14-9-10-8-11-3 1-5 6-1 28h-16z" fill="#145843"/>
<path transform="translate(905,361)" d="m0 0h62l-7 14-38 1v21l37 1v14l-37 1v22l38 1 7 14h-62z" fill="#0E543E"/>
<path transform="translate(1111,361)" d="m0 0h62l-7 14h-39l1 22 36 1v14h-37l1 23 38 1 7 14h-62z" fill="#044D36"/>
<path transform="translate(639,361)" d="m0 0h61l-5 12-1 2h-39v23h37v14h-37v24h39l6 12v2h-61z" fill="#09503A"/>
<path transform="translate(1227,14)" d="m0 0h13l12 16 7 10 13 17 1 1 1-44h13v70h-13l-14-19-12-17-7-8-1-2-1 46h-12z" fill="#115640"/>
<path transform="translate(1523,14)" d="m0 0h34l10 3 6 5 3 6 1 5v7l-3 9-5 5-7 4 11 16 4 8v2h-15l-9-15-5-9-12-1 1 25h-14zm13 12v20h23l4-5 1-6-3-6-3-2-5-1z" fill="#1B5D48"/>
<path transform="translate(1930,13)" d="m0 0h11l10 3 9 6 6 7 4 10 1 6v9l-3 12-6 9-7 6-9 3-5 1h-12l-12-3-8-6-6-9-3-10v-15l4-12 6-8 10-6zm3 12-10 3-7 8-3 8v11l4 10 11 8 9 1 10-3 6-5 4-9 1-10-3-10-4-6-6-4-8-2z" fill="#175B46"/>
<path transform="translate(832,13)" d="m0 0h11l11 4 9 6 6 9 3 10v15l-4 12-6 8-10 6-9 2h-13l-11-3-8-6-7-10-3-12v-9l3-12 6-9 7-6 10-4zm3 12-11 3-6 7-4 11v7l4 11 9 8 8 2 9-1 8-5 4-5 3-8v-11l-4-10-6-6-10-3z" fill="#175A45"/>
<path transform="translate(895,14)" d="m0 0h34l9 3 5 5 4 5 1 4v11l-3 7-4 5-6 3h-2l13 22 2 5h-15l-12-21-2-3-12-1v25h-12zm12 12v20h23l4-4 1-8-3-5-7-3z" fill="#135842"/>
<path transform="translate(1036,14)" d="m0 0h16l4 9 9 21 6 15 6 17 3 8h-15l-5-12-31-1-1 6-3 7h-15l1-4 9-25 10-24zm8 15-8 21-3 9 1 1h22l-3-10-7-20z" fill="#195C47"/>
<path transform="translate(537,361)" d="m0 0h70l-4 12-1 2h-22v75h-16v-75h-27z" fill="#034C35"/>
<path transform="translate(1623,13)" d="m0 0h9l12 3 9 6-1 4-6 6-4-2-8-3h-13l-5 2v6l6 4 23 7 7 6 3 7v10l-4 8-7 6-9 2h-13l-13-3-8-6v-4l6-7 14 7 9 1 9-3 2-3-1-6-9-4-19-6-6-4-4-8v-10l5-8 6-5z" fill="#195C47"/>
<path transform="translate(1447,14)" d="m0 0h49l-2 6-3 6h-30v17h28v11h-28v18h29l6 12h-49z" fill="#1E5F4B"/>
<path transform="translate(1139,14)" d="m0 0h12l1 45 2 6 4 5 8 3 9-1 5-3h2l2-7 1-48h14v49l-4 11-7 7-8 3-5 1h-13l-10-2-8-7-5-10z" fill="#175A46"/>
<path transform="translate(533,14)" d="m0 0h15l3 8 15 44 3-9 15-43h15l-3 10-9 25-4 12-8 22-1 1h-16l-5-12-4-12-7-20-9-24z" fill="#1A5D48"/>
<path transform="translate(1357,14)" d="m0 0h14l10 28 7 21 1 4 14-41 3-11 1-1h15l-1 5-11 30-4 11-7 21-2 3h-16l-8-21-5-14-6-18-5-13z" fill="#1A5D48"/>
<path transform="translate(688,13)" d="m0 0h11l10 3 6 4 4 4-2 4-5 5h-3l-4-4-9-3-9 1-6 3-6 7-3 9v7l4 11 7 6 9 3 8-1 8-5 1-2 4 2 6 7-8 8-10 3h-13l-12-3-9-7-7-10-2-10v-12l3-11 7-9 8-6 7-3z" fill="#185B46"/>
<path transform="translate(2e3 14)" d="m0 0h48l-2 6-4 6h-29v17h29v11h-29v30h-13z" fill="#135842"/>
<path transform="translate(1790,14)" d="m0 0h15l12 22 4 6 12-22 3-6h15v3l-6 10-10 16-7 12-1 29h-12l-1-29-10-15-13-23z" fill="#185B46"/>
<path transform="translate(736,14)" d="m0 0h53l1 3-4 9h-17v58h-13v-58h-20l-1-1v-10z" fill="#1A5C47"/>
<path transform="translate(1721,14)" d="m0 0h54l-1 5-3 7h-17v58h-13v-58h-20z" fill="#185B46"/>
<path transform="translate(975,14)" d="m0 0h13v70h-13z" fill="#1A5C48"/>
<path transform="translate(1318,14)" d="m0 0h12l1 1v69h-13z" fill="#1A5C47"/>
<path transform="translate(1683,14)" d="m0 0h12v70h-12z" fill="#074F38"/>
<path transform="translate(623,14)" d="m0 0h12v70h-12z" fill="#074F38"/>
<path transform="translate(205,51)" d="m0 0 8 1 4 2 2 4-1 7-2 3 3 4v8l-3 3-4 1h-9l-5-2-3-4v-6l4-5-4-4v-6l4-4zm2 6-5 3 1 4 6 1 4-3-2-4zm-1 13-5 4 2 4 7 1 4-4-3-4z" fill="#296754"/>
<path transform="translate(239,51)" d="m0 0 9 1 5 6 1 3v13l-3 6-3 3-4 1h-8l-4-2 1-6 5 2 8-1 1-6-4 2-9-1-4-5v-9l5-6zm2 6-5 3 1 5 3 2 6-1 2-4-3-4z" fill="#2D6A57"/>
<path transform="translate(263,52)" d="m0 0h24l-1 8-6 12-5 11h-7l3-10 7-15h-15z" fill="#326D5B"/>
<path transform="translate(177,52)" d="m0 0h6v31h-7l1-21-4 3-4-2 2-5z" fill="#115641"/>
<path transform="translate(178,239)" d="m0 0h104v3h-105l-1-2z" fill="#FEFEFE"/>
</svg>
